G04 #@! TF.GenerationSoftware,KiCad,Pcbnew,7.0.2*
G04 #@! TF.CreationDate,2023-05-10T23:29:11-04:00*
G04 #@! TF.ProjectId,Tetris,54657472-6973-42e6-9b69-6361645f7063,rev?*
G04 #@! TF.SameCoordinates,Original*
G04 #@! TF.FileFunction,Copper,L2,Bot*
G04 #@! TF.FilePolarity,Positive*
%FSLAX46Y46*%
G04 Gerber Fmt 4.6, Leading zero omitted, Abs format (unit mm)*
G04 Created by KiCad (PCBNEW 7.0.2) date 2023-05-10 23:29:11*
%MOMM*%
%LPD*%
G01*
G04 APERTURE LIST*
G04 #@! TA.AperFunction,ComponentPad*
%ADD10C,1.600000*%
G04 #@! TD*
G04 #@! TA.AperFunction,ComponentPad*
%ADD11O,1.600000X1.600000*%
G04 #@! TD*
G04 #@! TA.AperFunction,ComponentPad*
%ADD12C,2.000000*%
G04 #@! TD*
G04 #@! TA.AperFunction,ComponentPad*
%ADD13R,1.600000X2.400000*%
G04 #@! TD*
G04 #@! TA.AperFunction,ComponentPad*
%ADD14O,1.600000X2.400000*%
G04 #@! TD*
G04 #@! TA.AperFunction,ComponentPad*
%ADD15R,2.000000X2.000000*%
G04 #@! TD*
G04 #@! TA.AperFunction,ComponentPad*
%ADD16R,1.700000X1.700000*%
G04 #@! TD*
G04 #@! TA.AperFunction,ComponentPad*
%ADD17O,1.700000X1.700000*%
G04 #@! TD*
G04 #@! TA.AperFunction,ViaPad*
%ADD18C,2.000000*%
G04 #@! TD*
G04 #@! TA.AperFunction,Conductor*
%ADD19C,1.000000*%
G04 #@! TD*
G04 APERTURE END LIST*
D10*
G04 #@! TO.P,R13,1*
G04 #@! TO.N,Net-(M2-P_5)*
X105000000Y-91940000D03*
D11*
G04 #@! TO.P,R13,2*
G04 #@! TO.N,/S5*
X105000000Y-102100000D03*
G04 #@! TD*
D10*
G04 #@! TO.P,R14,1*
G04 #@! TO.N,Net-(M2-P_6)*
X101900000Y-91915000D03*
D11*
G04 #@! TO.P,R14,2*
G04 #@! TO.N,/S6*
X101900000Y-102075000D03*
G04 #@! TD*
D12*
G04 #@! TO.P,SW3,1,1*
G04 #@! TO.N,/18*
X213700000Y-105300000D03*
X213700000Y-111800000D03*
G04 #@! TO.P,SW3,2,2*
G04 #@! TO.N,+5V*
X209200000Y-105300000D03*
X209200000Y-111800000D03*
G04 #@! TD*
G04 #@! TO.P,SW6,1,1*
G04 #@! TO.N,/17*
X202950000Y-98850000D03*
X202950000Y-105350000D03*
G04 #@! TO.P,SW6,2,2*
G04 #@! TO.N,+5V*
X198450000Y-98850000D03*
X198450000Y-105350000D03*
G04 #@! TD*
D10*
G04 #@! TO.P,R2,1*
G04 #@! TO.N,/S2*
X179525000Y-105075000D03*
D11*
G04 #@! TO.P,R2,2*
G04 #@! TO.N,Net-(M1-P_2)*
X179525000Y-92675000D03*
G04 #@! TD*
D10*
G04 #@! TO.P,R3,1*
G04 #@! TO.N,/S3*
X173375000Y-105075000D03*
D11*
G04 #@! TO.P,R3,2*
G04 #@! TO.N,Net-(M1-P_3)*
X173375000Y-92675000D03*
G04 #@! TD*
D10*
G04 #@! TO.P,R15,1*
G04 #@! TO.N,Net-(M2-P_7)*
X98800000Y-91915000D03*
D11*
G04 #@! TO.P,R15,2*
G04 #@! TO.N,/S7*
X98800000Y-102075000D03*
G04 #@! TD*
D12*
G04 #@! TO.P,SW5,1,1*
G04 #@! TO.N,/16*
X202950000Y-87800000D03*
X202950000Y-94300000D03*
G04 #@! TO.P,SW5,2,2*
G04 #@! TO.N,+5V*
X198450000Y-87800000D03*
X198450000Y-94300000D03*
G04 #@! TD*
D13*
G04 #@! TO.P,M1,1,B_1*
G04 #@! TO.N,/A0*
X144400000Y-124900000D03*
D14*
G04 #@! TO.P,M1,2,B_2*
G04 #@! TO.N,/A1*
X146940000Y-124900000D03*
G04 #@! TO.P,M1,3,B_3*
G04 #@! TO.N,/A2*
X149480000Y-124900000D03*
G04 #@! TO.P,M1,4,B_4*
G04 #@! TO.N,/A3*
X152020000Y-124900000D03*
G04 #@! TO.P,M1,5,B_5*
G04 #@! TO.N,/A4*
X154560000Y-124900000D03*
G04 #@! TO.P,M1,6,B_6*
G04 #@! TO.N,/A5*
X157100000Y-124900000D03*
G04 #@! TO.P,M1,7,B_7*
G04 #@! TO.N,/A6*
X159640000Y-124900000D03*
G04 #@! TO.P,M1,8,B_8*
G04 #@! TO.N,/A7*
X162180000Y-124900000D03*
G04 #@! TO.P,M1,9,R_1*
G04 #@! TO.N,/A8*
X164720000Y-124900000D03*
G04 #@! TO.P,M1,10,R_2*
G04 #@! TO.N,/A9*
X167260000Y-124900000D03*
G04 #@! TO.P,M1,11,R_3*
G04 #@! TO.N,/A10*
X169800000Y-124900000D03*
G04 #@! TO.P,M1,12,R_4*
G04 #@! TO.N,/A11*
X172340000Y-124900000D03*
G04 #@! TO.P,M1,13,R_5*
G04 #@! TO.N,/A12*
X174880000Y-124900000D03*
G04 #@! TO.P,M1,14,R_6*
G04 #@! TO.N,/A13*
X177420000Y-124900000D03*
G04 #@! TO.P,M1,15,R_7*
G04 #@! TO.N,/A14*
X179960000Y-124900000D03*
G04 #@! TO.P,M1,16,R_8*
G04 #@! TO.N,/A15*
X182500000Y-124900000D03*
G04 #@! TO.P,M1,17,P_1*
G04 #@! TO.N,Net-(M1-P_1)*
X182600000Y-88900000D03*
G04 #@! TO.P,M1,18,P_2*
G04 #@! TO.N,Net-(M1-P_2)*
X180060000Y-88900000D03*
G04 #@! TO.P,M1,19,P_3*
G04 #@! TO.N,Net-(M1-P_3)*
X177520000Y-88900000D03*
G04 #@! TO.P,M1,20,P_4*
G04 #@! TO.N,Net-(M1-P_4)*
X174980000Y-88900000D03*
G04 #@! TO.P,M1,21,G_8*
G04 #@! TO.N,/22*
X172440000Y-88900000D03*
G04 #@! TO.P,M1,22,G_7*
G04 #@! TO.N,/23*
X169900000Y-88900000D03*
G04 #@! TO.P,M1,23,G_6*
G04 #@! TO.N,/24*
X167360000Y-88900000D03*
G04 #@! TO.P,M1,24,G_5*
G04 #@! TO.N,/25*
X164820000Y-88900000D03*
G04 #@! TO.P,M1,25,G_4*
G04 #@! TO.N,/26*
X162280000Y-88900000D03*
G04 #@! TO.P,M1,26,G_3*
G04 #@! TO.N,/27*
X159740000Y-88900000D03*
G04 #@! TO.P,M1,27,G_2*
G04 #@! TO.N,/28*
X157200000Y-88900000D03*
G04 #@! TO.P,M1,28,G_1*
G04 #@! TO.N,/29*
X154660000Y-88900000D03*
G04 #@! TO.P,M1,29,P_5*
G04 #@! TO.N,Net-(M1-P_5)*
X152120000Y-88900000D03*
G04 #@! TO.P,M1,30,P_6*
G04 #@! TO.N,Net-(M1-P_6)*
X149580000Y-88900000D03*
G04 #@! TO.P,M1,31,P_7*
G04 #@! TO.N,Net-(M1-P_7)*
X147040000Y-88900000D03*
G04 #@! TO.P,M1,32,P_8*
G04 #@! TO.N,Net-(M1-P_8)*
X144500000Y-88900000D03*
G04 #@! TD*
D12*
G04 #@! TO.P,SW4,1,1*
G04 #@! TO.N,/15*
X213750000Y-118400000D03*
X213750000Y-124900000D03*
G04 #@! TO.P,SW4,2,2*
G04 #@! TO.N,+5V*
X209250000Y-118400000D03*
X209250000Y-124900000D03*
G04 #@! TD*
D10*
G04 #@! TO.P,R5,1*
G04 #@! TO.N,Net-(M1-P_5)*
X150675000Y-92775000D03*
D11*
G04 #@! TO.P,R5,2*
G04 #@! TO.N,/S5*
X150675000Y-105175000D03*
G04 #@! TD*
D15*
G04 #@! TO.P,BZ4,1,-*
G04 #@! TO.N,/\u002A9*
X111750000Y-72650000D03*
D12*
G04 #@! TO.P,BZ4,2,+*
G04 #@! TO.N,Net-(BZ4-+)*
X106750000Y-72650000D03*
G04 #@! TD*
G04 #@! TO.P,SW7,1,1*
G04 #@! TO.N,/21*
X202850000Y-109950000D03*
X202850000Y-116450000D03*
G04 #@! TO.P,SW7,2,2*
G04 #@! TO.N,+5V*
X198350000Y-109950000D03*
X198350000Y-116450000D03*
G04 #@! TD*
D13*
G04 #@! TO.P,M2,1,B_1*
G04 #@! TO.N,/\u002A13*
X96210000Y-125000000D03*
D14*
G04 #@! TO.P,M2,2,B_2*
G04 #@! TO.N,/\u002A12*
X98750000Y-125000000D03*
G04 #@! TO.P,M2,3,B_3*
G04 #@! TO.N,/\u002A11*
X101290000Y-125000000D03*
G04 #@! TO.P,M2,4,B_4*
G04 #@! TO.N,/\u002A10*
X103830000Y-125000000D03*
G04 #@! TO.P,M2,5,B_5*
G04 #@! TO.N,/50*
X106370000Y-125000000D03*
G04 #@! TO.P,M2,6,B_6*
G04 #@! TO.N,/51*
X108910000Y-125000000D03*
G04 #@! TO.P,M2,7,B_7*
G04 #@! TO.N,/\u002A52*
X111450000Y-125000000D03*
G04 #@! TO.P,M2,8,B_8*
G04 #@! TO.N,/53*
X113990000Y-125000000D03*
G04 #@! TO.P,M2,9,R_1*
G04 #@! TO.N,/42*
X116530000Y-125000000D03*
G04 #@! TO.P,M2,10,R_2*
G04 #@! TO.N,/43*
X119070000Y-125000000D03*
G04 #@! TO.P,M2,11,R_3*
G04 #@! TO.N,/\u002A44*
X121610000Y-125000000D03*
G04 #@! TO.P,M2,12,R_4*
G04 #@! TO.N,/\u002A45*
X124150000Y-125000000D03*
G04 #@! TO.P,M2,13,R_5*
G04 #@! TO.N,/\u002A46*
X126690000Y-125000000D03*
G04 #@! TO.P,M2,14,R_6*
G04 #@! TO.N,/47*
X129230000Y-125000000D03*
G04 #@! TO.P,M2,15,R_7*
G04 #@! TO.N,/48*
X131770000Y-125000000D03*
G04 #@! TO.P,M2,16,R_8*
G04 #@! TO.N,/49*
X134310000Y-125000000D03*
G04 #@! TO.P,M2,17,P_1*
G04 #@! TO.N,Net-(M2-P_1)*
X134410000Y-89000000D03*
G04 #@! TO.P,M2,18,P_2*
G04 #@! TO.N,Net-(M2-P_2)*
X131870000Y-89000000D03*
G04 #@! TO.P,M2,19,P_3*
G04 #@! TO.N,Net-(M2-P_3)*
X129330000Y-89000000D03*
G04 #@! TO.P,M2,20,P_4*
G04 #@! TO.N,Net-(M2-P_4)*
X126790000Y-89000000D03*
G04 #@! TO.P,M2,21,G_8*
G04 #@! TO.N,/37*
X124250000Y-89000000D03*
G04 #@! TO.P,M2,22,G_7*
G04 #@! TO.N,/36*
X121710000Y-89000000D03*
G04 #@! TO.P,M2,23,G_6*
G04 #@! TO.N,/35*
X119170000Y-89000000D03*
G04 #@! TO.P,M2,24,G_5*
G04 #@! TO.N,/34*
X116630000Y-89000000D03*
G04 #@! TO.P,M2,25,G_4*
G04 #@! TO.N,/33*
X114090000Y-89000000D03*
G04 #@! TO.P,M2,26,G_3*
G04 #@! TO.N,/32*
X111550000Y-89000000D03*
G04 #@! TO.P,M2,27,G_2*
G04 #@! TO.N,/31*
X109010000Y-89000000D03*
G04 #@! TO.P,M2,28,G_1*
G04 #@! TO.N,/30*
X106470000Y-89000000D03*
G04 #@! TO.P,M2,29,P_5*
G04 #@! TO.N,Net-(M2-P_5)*
X103930000Y-89000000D03*
G04 #@! TO.P,M2,30,P_6*
G04 #@! TO.N,Net-(M2-P_6)*
X101390000Y-89000000D03*
G04 #@! TO.P,M2,31,P_7*
G04 #@! TO.N,Net-(M2-P_7)*
X98850000Y-89000000D03*
G04 #@! TO.P,M2,32,P_8*
G04 #@! TO.N,Net-(M2-P_8)*
X96310000Y-89000000D03*
G04 #@! TD*
D15*
G04 #@! TO.P,BZ3,1,-*
G04 #@! TO.N,/\u002A8*
X129075000Y-72715000D03*
D12*
G04 #@! TO.P,BZ3,2,+*
G04 #@! TO.N,Net-(BZ3-+)*
X124075000Y-72715000D03*
G04 #@! TD*
D15*
G04 #@! TO.P,BZ1,1,-*
G04 #@! TO.N,/\u002A6*
X159150000Y-72450000D03*
D12*
G04 #@! TO.P,BZ1,2,+*
G04 #@! TO.N,Net-(BZ1-+)*
X154150000Y-72450000D03*
G04 #@! TD*
D10*
G04 #@! TO.P,R11,1*
G04 #@! TO.N,/S3*
X128600000Y-104975000D03*
D11*
G04 #@! TO.P,R11,2*
G04 #@! TO.N,Net-(M2-P_3)*
X128600000Y-92575000D03*
G04 #@! TD*
D10*
G04 #@! TO.P,R12,1*
G04 #@! TO.N,/S4*
X125500000Y-104975000D03*
D11*
G04 #@! TO.P,R12,2*
G04 #@! TO.N,Net-(M2-P_4)*
X125500000Y-92575000D03*
G04 #@! TD*
D13*
G04 #@! TO.P,U1,1,QB*
G04 #@! TO.N,/S2*
X118355000Y-108155000D03*
D14*
G04 #@! TO.P,U1,2,QC*
G04 #@! TO.N,/S3*
X115815000Y-108155000D03*
G04 #@! TO.P,U1,3,QD*
G04 #@! TO.N,/S4*
X113275000Y-108155000D03*
G04 #@! TO.P,U1,4,QE*
G04 #@! TO.N,/S5*
X110735000Y-108155000D03*
G04 #@! TO.P,U1,5,QF*
G04 #@! TO.N,/S6*
X108195000Y-108155000D03*
G04 #@! TO.P,U1,6,QG*
G04 #@! TO.N,/S7*
X105655000Y-108155000D03*
G04 #@! TO.P,U1,7,QH*
G04 #@! TO.N,/S8*
X103115000Y-108155000D03*
G04 #@! TO.P,U1,8,GND*
G04 #@! TO.N,GND*
X100575000Y-108155000D03*
G04 #@! TO.P,U1,9,QH'*
G04 #@! TO.N,unconnected-(U1-QH'-Pad9)*
X100575000Y-115775000D03*
G04 #@! TO.P,U1,10,~{SRCLR}*
G04 #@! TO.N,+5V*
X103115000Y-115775000D03*
G04 #@! TO.P,U1,11,SRCLK*
G04 #@! TO.N,/\u002A4*
X105655000Y-115775000D03*
G04 #@! TO.P,U1,12,RCLK*
G04 #@! TO.N,/\u002A5*
X108195000Y-115775000D03*
G04 #@! TO.P,U1,13,~{OE}*
G04 #@! TO.N,GND*
X110735000Y-115775000D03*
G04 #@! TO.P,U1,14,SER*
G04 #@! TO.N,/40*
X113275000Y-115775000D03*
G04 #@! TO.P,U1,15,QA*
G04 #@! TO.N,/S1*
X115815000Y-115775000D03*
G04 #@! TO.P,U1,16,VCC*
G04 #@! TO.N,+5V*
X118355000Y-115775000D03*
G04 #@! TD*
D10*
G04 #@! TO.P,R1,1*
G04 #@! TO.N,/S1*
X182600000Y-105075000D03*
D11*
G04 #@! TO.P,R1,2*
G04 #@! TO.N,Net-(M1-P_1)*
X182600000Y-92675000D03*
G04 #@! TD*
D10*
G04 #@! TO.P,R16,1*
G04 #@! TO.N,Net-(M2-P_8)*
X95725000Y-91915000D03*
D11*
G04 #@! TO.P,R16,2*
G04 #@! TO.N,/S8*
X95725000Y-102075000D03*
G04 #@! TD*
D10*
G04 #@! TO.P,R9,1*
G04 #@! TO.N,/S1*
X134800000Y-105000000D03*
D11*
G04 #@! TO.P,R9,2*
G04 #@! TO.N,Net-(M2-P_1)*
X134800000Y-92600000D03*
G04 #@! TD*
D10*
G04 #@! TO.P,R10,1*
G04 #@! TO.N,/S2*
X131700000Y-105000000D03*
D11*
G04 #@! TO.P,R10,2*
G04 #@! TO.N,Net-(M2-P_2)*
X131700000Y-92600000D03*
G04 #@! TD*
D10*
G04 #@! TO.P,R7,1*
G04 #@! TO.N,Net-(M1-P_7)*
X144475000Y-92775000D03*
D11*
G04 #@! TO.P,R7,2*
G04 #@! TO.N,/S7*
X144475000Y-105175000D03*
G04 #@! TD*
D10*
G04 #@! TO.P,R6,1*
G04 #@! TO.N,Net-(M1-P_6)*
X153775000Y-92775000D03*
D11*
G04 #@! TO.P,R6,2*
G04 #@! TO.N,/S6*
X153775000Y-105175000D03*
G04 #@! TD*
D12*
G04 #@! TO.P,SW2,1,1*
G04 #@! TO.N,/20*
X213750000Y-93550000D03*
X213750000Y-100050000D03*
G04 #@! TO.P,SW2,2,2*
G04 #@! TO.N,+5V*
X209250000Y-93550000D03*
X209250000Y-100050000D03*
G04 #@! TD*
D15*
G04 #@! TO.P,BZ2,1,-*
G04 #@! TO.N,/\u002A7*
X144350000Y-72550000D03*
D12*
G04 #@! TO.P,BZ2,2,+*
G04 #@! TO.N,Net-(BZ2-+)*
X139350000Y-72550000D03*
G04 #@! TD*
G04 #@! TO.P,SW1,1,1*
G04 #@! TO.N,/19*
X213650000Y-82400000D03*
X213650000Y-88900000D03*
G04 #@! TO.P,SW1,2,2*
G04 #@! TO.N,+5V*
X209150000Y-82400000D03*
X209150000Y-88900000D03*
G04 #@! TD*
D10*
G04 #@! TO.P,R4,1*
G04 #@! TO.N,/S4*
X176450000Y-105075000D03*
D11*
G04 #@! TO.P,R4,2*
G04 #@! TO.N,Net-(M1-P_4)*
X176450000Y-92675000D03*
G04 #@! TD*
D10*
G04 #@! TO.P,R8,1*
G04 #@! TO.N,Net-(M1-P_8)*
X147575000Y-92775000D03*
D11*
G04 #@! TO.P,R8,2*
G04 #@! TO.N,/S8*
X147575000Y-105175000D03*
G04 #@! TD*
D16*
G04 #@! TO.P,J7,1,Pin_1*
G04 #@! TO.N,/36*
X188392000Y-102530000D03*
D17*
G04 #@! TO.P,J7,2,Pin_2*
G04 #@! TO.N,/37*
X190932000Y-102530000D03*
G04 #@! TO.P,J7,3,Pin_3*
G04 #@! TO.N,/34*
X188392000Y-99990000D03*
G04 #@! TO.P,J7,4,Pin_4*
G04 #@! TO.N,/35*
X190932000Y-99990000D03*
G04 #@! TO.P,J7,5,Pin_5*
G04 #@! TO.N,/32*
X188392000Y-97450000D03*
G04 #@! TO.P,J7,6,Pin_6*
G04 #@! TO.N,/33*
X190932000Y-97450000D03*
G04 #@! TO.P,J7,7,Pin_7*
G04 #@! TO.N,/30*
X188392000Y-94910000D03*
G04 #@! TO.P,J7,8,Pin_8*
G04 #@! TO.N,/31*
X190932000Y-94910000D03*
G04 #@! TO.P,J7,9,Pin_9*
G04 #@! TO.N,/28*
X188392000Y-92370000D03*
G04 #@! TO.P,J7,10,Pin_10*
G04 #@! TO.N,/29*
X190932000Y-92370000D03*
G04 #@! TO.P,J7,11,Pin_11*
G04 #@! TO.N,/26*
X188392000Y-89830000D03*
G04 #@! TO.P,J7,12,Pin_12*
G04 #@! TO.N,/27*
X190932000Y-89830000D03*
G04 #@! TO.P,J7,13,Pin_13*
G04 #@! TO.N,/24*
X188392000Y-87290000D03*
G04 #@! TO.P,J7,14,Pin_14*
G04 #@! TO.N,/25*
X190932000Y-87290000D03*
G04 #@! TO.P,J7,15,Pin_15*
G04 #@! TO.N,/22*
X188392000Y-84750000D03*
G04 #@! TO.P,J7,16,Pin_16*
G04 #@! TO.N,/23*
X190932000Y-84750000D03*
G04 #@! TO.P,J7,17,Pin_17*
G04 #@! TO.N,+5V*
X188392000Y-82210000D03*
G04 #@! TO.P,J7,18,Pin_18*
X190932000Y-82210000D03*
G04 #@! TD*
D10*
G04 #@! TO.P,R27,1*
G04 #@! TO.N,GND*
X115500000Y-76850000D03*
D11*
G04 #@! TO.P,R27,2*
G04 #@! TO.N,Net-(BZ4-+)*
X103100000Y-76850000D03*
G04 #@! TD*
D16*
G04 #@! TO.P,J8,1,Pin_1*
G04 #@! TO.N,GND*
X188410000Y-125380000D03*
D17*
G04 #@! TO.P,J8,2,Pin_2*
X190950000Y-125380000D03*
G04 #@! TO.P,J8,3,Pin_3*
G04 #@! TO.N,/\u002A52*
X188410000Y-122840000D03*
G04 #@! TO.P,J8,4,Pin_4*
G04 #@! TO.N,/53*
X190950000Y-122840000D03*
G04 #@! TO.P,J8,5,Pin_5*
G04 #@! TO.N,/50*
X188410000Y-120300000D03*
G04 #@! TO.P,J8,6,Pin_6*
G04 #@! TO.N,/51*
X190950000Y-120300000D03*
G04 #@! TO.P,J8,7,Pin_7*
G04 #@! TO.N,/48*
X188410000Y-117760000D03*
G04 #@! TO.P,J8,8,Pin_8*
G04 #@! TO.N,/49*
X190950000Y-117760000D03*
G04 #@! TO.P,J8,9,Pin_9*
G04 #@! TO.N,/\u002A46*
X188410000Y-115220000D03*
G04 #@! TO.P,J8,10,Pin_10*
G04 #@! TO.N,/47*
X190950000Y-115220000D03*
G04 #@! TO.P,J8,11,Pin_11*
G04 #@! TO.N,/\u002A44*
X188410000Y-112680000D03*
G04 #@! TO.P,J8,12,Pin_12*
G04 #@! TO.N,/\u002A45*
X190950000Y-112680000D03*
G04 #@! TO.P,J8,13,Pin_13*
G04 #@! TO.N,/42*
X188410000Y-110140000D03*
G04 #@! TO.P,J8,14,Pin_14*
G04 #@! TO.N,/43*
X190950000Y-110140000D03*
G04 #@! TO.P,J8,15,Pin_15*
G04 #@! TO.N,/40*
X188410000Y-107600000D03*
G04 #@! TO.P,J8,16,Pin_16*
G04 #@! TO.N,/41*
X190950000Y-107600000D03*
G04 #@! TD*
D16*
G04 #@! TO.P,J2,1,Pin_1*
G04 #@! TO.N,GND*
X120800000Y-82100000D03*
D17*
G04 #@! TO.P,J2,2,Pin_2*
G04 #@! TO.N,/\u002A13*
X123340000Y-82100000D03*
G04 #@! TO.P,J2,3,Pin_3*
G04 #@! TO.N,/\u002A12*
X125880000Y-82100000D03*
G04 #@! TO.P,J2,4,Pin_4*
G04 #@! TO.N,/\u002A11*
X128420000Y-82100000D03*
G04 #@! TO.P,J2,5,Pin_5*
G04 #@! TO.N,/\u002A10*
X130960000Y-82100000D03*
G04 #@! TO.P,J2,6,Pin_6*
G04 #@! TO.N,/\u002A9*
X133500000Y-82100000D03*
G04 #@! TO.P,J2,7,Pin_7*
G04 #@! TO.N,/\u002A8*
X136040000Y-82100000D03*
G04 #@! TD*
D10*
G04 #@! TO.P,R19,1*
G04 #@! TO.N,GND*
X216900000Y-113680000D03*
D11*
G04 #@! TO.P,R19,2*
G04 #@! TO.N,/18*
X216900000Y-103520000D03*
G04 #@! TD*
D16*
G04 #@! TO.P,J1,1,Pin_1*
G04 #@! TO.N,+5V*
X132525000Y-130550000D03*
D17*
G04 #@! TO.P,J1,2,Pin_2*
G04 #@! TO.N,GND*
X135065000Y-130550000D03*
G04 #@! TD*
D10*
G04 #@! TO.P,R25,1*
G04 #@! TO.N,GND*
X147940000Y-77000000D03*
D11*
G04 #@! TO.P,R25,2*
G04 #@! TO.N,Net-(BZ2-+)*
X135540000Y-77000000D03*
G04 #@! TD*
D10*
G04 #@! TO.P,R18,1*
G04 #@! TO.N,GND*
X216900000Y-100710000D03*
D11*
G04 #@! TO.P,R18,2*
G04 #@! TO.N,/20*
X216900000Y-93090000D03*
G04 #@! TD*
D10*
G04 #@! TO.P,R17,1*
G04 #@! TO.N,GND*
X216800000Y-89560000D03*
D11*
G04 #@! TO.P,R17,2*
G04 #@! TO.N,/19*
X216800000Y-81940000D03*
G04 #@! TD*
D10*
G04 #@! TO.P,R26,1*
G04 #@! TO.N,GND*
X132875000Y-77015000D03*
D11*
G04 #@! TO.P,R26,2*
G04 #@! TO.N,Net-(BZ3-+)*
X120475000Y-77015000D03*
G04 #@! TD*
D16*
G04 #@! TO.P,J5,1,Pin_1*
G04 #@! TO.N,/A8*
X168057000Y-130600000D03*
D17*
G04 #@! TO.P,J5,2,Pin_2*
G04 #@! TO.N,/A9*
X170597000Y-130600000D03*
G04 #@! TO.P,J5,3,Pin_3*
G04 #@! TO.N,/A10*
X173137000Y-130600000D03*
G04 #@! TO.P,J5,4,Pin_4*
G04 #@! TO.N,/A11*
X175677000Y-130600000D03*
G04 #@! TO.P,J5,5,Pin_5*
G04 #@! TO.N,/A12*
X178217000Y-130600000D03*
G04 #@! TO.P,J5,6,Pin_6*
G04 #@! TO.N,/A13*
X180757000Y-130600000D03*
G04 #@! TO.P,J5,7,Pin_7*
G04 #@! TO.N,/A14*
X183297000Y-130600000D03*
G04 #@! TO.P,J5,8,Pin_8*
G04 #@! TO.N,/A15*
X185837000Y-130600000D03*
G04 #@! TD*
D10*
G04 #@! TO.P,R22,1*
G04 #@! TO.N,/17*
X206100000Y-98360000D03*
D11*
G04 #@! TO.P,R22,2*
G04 #@! TO.N,GND*
X206100000Y-108520000D03*
G04 #@! TD*
D10*
G04 #@! TO.P,R23,1*
G04 #@! TO.N,/21*
X206100000Y-112710000D03*
D11*
G04 #@! TO.P,R23,2*
G04 #@! TO.N,GND*
X206100000Y-122870000D03*
G04 #@! TD*
D10*
G04 #@! TO.P,R24,1*
G04 #@! TO.N,GND*
X163100000Y-77000000D03*
D11*
G04 #@! TO.P,R24,2*
G04 #@! TO.N,Net-(BZ1-+)*
X150700000Y-77000000D03*
G04 #@! TD*
D16*
G04 #@! TO.P,J4,1,Pin_1*
G04 #@! TO.N,/\u002A7*
X140117000Y-82100000D03*
D17*
G04 #@! TO.P,J4,2,Pin_2*
G04 #@! TO.N,/\u002A6*
X142657000Y-82100000D03*
G04 #@! TO.P,J4,3,Pin_3*
G04 #@! TO.N,/\u002A5*
X145197000Y-82100000D03*
G04 #@! TO.P,J4,4,Pin_4*
G04 #@! TO.N,/\u002A4*
X147737000Y-82100000D03*
G04 #@! TO.P,J4,5,Pin_5*
G04 #@! TO.N,/\u002A3*
X150277000Y-82100000D03*
G04 #@! TO.P,J4,6,Pin_6*
G04 #@! TO.N,/\u002A2*
X152817000Y-82100000D03*
G04 #@! TD*
D10*
G04 #@! TO.P,R21,1*
G04 #@! TO.N,GND*
X206100000Y-94730000D03*
D11*
G04 #@! TO.P,R21,2*
G04 #@! TO.N,/16*
X206100000Y-84570000D03*
G04 #@! TD*
D10*
G04 #@! TO.P,R20,1*
G04 #@! TO.N,GND*
X216900000Y-126660000D03*
D11*
G04 #@! TO.P,R20,2*
G04 #@! TO.N,/15*
X216900000Y-116500000D03*
G04 #@! TD*
D16*
G04 #@! TO.P,J6,1,Pin_1*
G04 #@! TO.N,/14*
X162997000Y-82200000D03*
D17*
G04 #@! TO.P,J6,2,Pin_2*
G04 #@! TO.N,/15*
X165537000Y-82200000D03*
G04 #@! TO.P,J6,3,Pin_3*
G04 #@! TO.N,/16*
X168077000Y-82200000D03*
G04 #@! TO.P,J6,4,Pin_4*
G04 #@! TO.N,/17*
X170617000Y-82200000D03*
G04 #@! TO.P,J6,5,Pin_5*
G04 #@! TO.N,/18*
X173157000Y-82200000D03*
G04 #@! TO.P,J6,6,Pin_6*
G04 #@! TO.N,/19*
X175697000Y-82200000D03*
G04 #@! TO.P,J6,7,Pin_7*
G04 #@! TO.N,/20*
X178237000Y-82200000D03*
G04 #@! TO.P,J6,8,Pin_8*
G04 #@! TO.N,/21*
X180777000Y-82200000D03*
G04 #@! TD*
D16*
G04 #@! TO.P,J3,1,Pin_1*
G04 #@! TO.N,/A0*
X145197000Y-130600000D03*
D17*
G04 #@! TO.P,J3,2,Pin_2*
G04 #@! TO.N,/A1*
X147737000Y-130600000D03*
G04 #@! TO.P,J3,3,Pin_3*
G04 #@! TO.N,/A2*
X150277000Y-130600000D03*
G04 #@! TO.P,J3,4,Pin_4*
G04 #@! TO.N,/A3*
X152817000Y-130600000D03*
G04 #@! TO.P,J3,5,Pin_5*
G04 #@! TO.N,/A4*
X155357000Y-130600000D03*
G04 #@! TO.P,J3,6,Pin_6*
G04 #@! TO.N,/A5*
X157897000Y-130600000D03*
G04 #@! TO.P,J3,7,Pin_7*
G04 #@! TO.N,/A6*
X160437000Y-130600000D03*
G04 #@! TO.P,J3,8,Pin_8*
G04 #@! TO.N,/A7*
X162977000Y-130600000D03*
G04 #@! TD*
D18*
G04 #@! TO.N,GND*
X94775000Y-115700000D03*
X103725000Y-82275000D03*
G04 #@! TO.N,/53*
X197740000Y-127250000D03*
X197740000Y-122850000D03*
G04 #@! TO.N,/51*
X200200000Y-122850000D03*
X200200000Y-127250000D03*
G04 #@! TO.N,/43*
X125750000Y-133890000D03*
X202850000Y-127190000D03*
X202800000Y-122840000D03*
G04 #@! TO.N,/25*
X196050000Y-82190000D03*
G04 #@! TO.N,/23*
X193850000Y-80590000D03*
G04 #@! TO.N,+5V*
X94850000Y-118275000D03*
G04 #@! TO.N,/\u002A5*
X94850000Y-110700000D03*
G04 #@! TO.N,/\u002A4*
X94875000Y-113175000D03*
G04 #@! TD*
D19*
G04 #@! TO.N,GND*
X115500000Y-76850000D02*
X109150000Y-76850000D01*
X98250000Y-117925000D02*
X108919874Y-117925000D01*
X218700000Y-91460000D02*
X218700000Y-98910000D01*
X108919874Y-117925000D02*
X110735000Y-116109874D01*
X109150000Y-76850000D02*
X103725000Y-82275000D01*
X96025000Y-115700000D02*
X98250000Y-117925000D01*
X216800000Y-89560000D02*
X218700000Y-91460000D01*
X216900000Y-100710000D02*
X218700000Y-102510000D01*
X218700000Y-102510000D02*
X218700000Y-111880000D01*
X218700000Y-111880000D02*
X216900000Y-113680000D01*
X218700000Y-98910000D02*
X216900000Y-100710000D01*
X110735000Y-116109874D02*
X110735000Y-115775000D01*
X94775000Y-115700000D02*
X96025000Y-115700000D01*
G04 #@! TO.N,/53*
X197740000Y-122850000D02*
X197740000Y-127250000D01*
G04 #@! TO.N,/51*
X200200000Y-122850000D02*
X200200000Y-127250000D01*
G04 #@! TO.N,/48*
X131770000Y-125000000D02*
X131770000Y-123600000D01*
X136760000Y-118610000D02*
X187560000Y-118610000D01*
X187560000Y-118610000D02*
X188410000Y-117760000D01*
X131770000Y-123600000D02*
X136760000Y-118610000D01*
G04 #@! TO.N,/49*
X136560000Y-122750000D02*
X183224874Y-122750000D01*
X186900000Y-127300000D02*
X184250000Y-124650000D01*
X191646296Y-127300000D02*
X186900000Y-127300000D01*
X191646296Y-127300000D02*
X192800000Y-126146296D01*
X192800000Y-126146296D02*
X192800000Y-118407919D01*
X184250000Y-123775126D02*
X183224874Y-122750000D01*
X134310000Y-125000000D02*
X136560000Y-122750000D01*
X192800000Y-118407919D02*
X192152081Y-117760000D01*
X192152081Y-117760000D02*
X190950000Y-117760000D01*
X184250000Y-124650000D02*
X184250000Y-123775126D01*
G04 #@! TO.N,/\u002A46*
X126690000Y-125000000D02*
X126690000Y-123600000D01*
X187915025Y-115220000D02*
X188410000Y-115220000D01*
X186535025Y-116600000D02*
X187915025Y-115220000D01*
X126690000Y-123600000D02*
X133690000Y-116600000D01*
X133690000Y-116600000D02*
X186535025Y-116600000D01*
G04 #@! TO.N,/47*
X129230000Y-126400000D02*
X131480000Y-128650000D01*
X143800000Y-132400000D02*
X188600000Y-132400000D01*
X191662691Y-115220000D02*
X190950000Y-115220000D01*
X194250000Y-117807309D02*
X191662691Y-115220000D01*
X131480000Y-128650000D02*
X140050000Y-128650000D01*
X140050000Y-128650000D02*
X143800000Y-132400000D01*
X194250000Y-126750000D02*
X194250000Y-117807309D01*
X188600000Y-132400000D02*
X194250000Y-126750000D01*
X129230000Y-125000000D02*
X129230000Y-126400000D01*
G04 #@! TO.N,/\u002A44*
X121610000Y-125000000D02*
X121610000Y-123600000D01*
X121610000Y-123600000D02*
X130060000Y-115150000D01*
X185934415Y-115150000D02*
X188404415Y-112680000D01*
X130060000Y-115150000D02*
X185934415Y-115150000D01*
X188404415Y-112680000D02*
X188410000Y-112680000D01*
G04 #@! TO.N,/\u002A45*
X124150000Y-126400000D02*
X131600000Y-133850000D01*
X195700000Y-127400000D02*
X195700000Y-116800000D01*
X131600000Y-133850000D02*
X189250000Y-133850000D01*
X189250000Y-133850000D02*
X195700000Y-127400000D01*
X124150000Y-125000000D02*
X124150000Y-126400000D01*
X191580000Y-112680000D02*
X190950000Y-112680000D01*
X195700000Y-116800000D02*
X191580000Y-112680000D01*
G04 #@! TO.N,/42*
X116530000Y-125000000D02*
X116530000Y-123600000D01*
X116530000Y-123600000D02*
X126430000Y-113700000D01*
X126430000Y-113700000D02*
X184844415Y-113700000D01*
X188404415Y-110140000D02*
X188410000Y-110140000D01*
X184844415Y-113700000D02*
X188404415Y-110140000D01*
G04 #@! TO.N,/43*
X119070000Y-127210000D02*
X125750000Y-133890000D01*
X119070000Y-125000000D02*
X119070000Y-127210000D01*
X202850000Y-127190000D02*
X202850000Y-122890000D01*
X202850000Y-122890000D02*
X202800000Y-122840000D01*
G04 #@! TO.N,/40*
X113275000Y-115440126D02*
X116465126Y-112250000D01*
X113275000Y-115775000D02*
X113275000Y-115440126D01*
X183754415Y-112250000D02*
X116465126Y-112250000D01*
X183754415Y-112250000D02*
X188404415Y-107600000D01*
X188404415Y-107600000D02*
X188410000Y-107600000D01*
G04 #@! TO.N,/37*
X190932000Y-103732081D02*
X190334081Y-104330000D01*
X159125000Y-97425000D02*
X127810126Y-97425000D01*
X123750000Y-93364874D02*
X123750000Y-89500000D01*
X190932000Y-102530000D02*
X190932000Y-103732081D01*
X182985000Y-100225000D02*
X161925000Y-100225000D01*
X127810126Y-97425000D02*
X123750000Y-93364874D01*
X187090000Y-104330000D02*
X182985000Y-100225000D01*
X123750000Y-89500000D02*
X124250000Y-89000000D01*
X190334081Y-104330000D02*
X187090000Y-104330000D01*
X161925000Y-100225000D02*
X159125000Y-97425000D01*
G04 #@! TO.N,/34*
X136160000Y-87875126D02*
X135134874Y-86850000D01*
X116630000Y-88010000D02*
X116630000Y-89000000D01*
X188392000Y-99990000D02*
X185940000Y-99990000D01*
X184725000Y-98775000D02*
X162638906Y-98775000D01*
X185940000Y-99990000D02*
X184725000Y-98775000D01*
X159838906Y-95975000D02*
X143149516Y-95975000D01*
X136160000Y-88985484D02*
X136160000Y-87875126D01*
X162638906Y-98775000D02*
X159838906Y-95975000D01*
X135134874Y-86850000D02*
X117790000Y-86850000D01*
X117790000Y-86850000D02*
X116630000Y-88010000D01*
X143149516Y-95975000D02*
X136160000Y-88985484D01*
G04 #@! TO.N,/32*
X157300000Y-94525000D02*
X160439516Y-94525000D01*
X135735484Y-85400000D02*
X142725000Y-92389516D01*
X160439516Y-94525000D02*
X163239516Y-97325000D01*
X111550000Y-89000000D02*
X111550000Y-88665126D01*
X143750126Y-94525000D02*
X157300000Y-94525000D01*
X114815126Y-85400000D02*
X135735484Y-85400000D01*
X142725000Y-93499874D02*
X143750126Y-94525000D01*
X111550000Y-88665126D02*
X114815126Y-85400000D01*
X188267000Y-97325000D02*
X188392000Y-97450000D01*
X163239516Y-97325000D02*
X188267000Y-97325000D01*
X142725000Y-92389516D02*
X142725000Y-93499874D01*
G04 #@! TO.N,/33*
X192732000Y-104308000D02*
X191260000Y-105780000D01*
X190932000Y-97450000D02*
X192134081Y-97450000D01*
X114090000Y-90400000D02*
X114090000Y-89000000D01*
X182384390Y-101675000D02*
X161324390Y-101675000D01*
X192134081Y-97450000D02*
X192732000Y-98047919D01*
X192732000Y-98047919D02*
X192732000Y-104308000D01*
X158524390Y-98875000D02*
X122565000Y-98875000D01*
X186489390Y-105780000D02*
X182384390Y-101675000D01*
X122565000Y-98875000D02*
X114090000Y-90400000D01*
X161324390Y-101675000D02*
X158524390Y-98875000D01*
X191260000Y-105780000D02*
X186489390Y-105780000D01*
G04 #@! TO.N,/28*
X157200000Y-89234874D02*
X157200000Y-88900000D01*
X187430484Y-92370000D02*
X183925484Y-95875000D01*
X188392000Y-92370000D02*
X187430484Y-92370000D01*
X183925484Y-95875000D02*
X163840126Y-95875000D01*
X163840126Y-95875000D02*
X157200000Y-89234874D01*
G04 #@! TO.N,/29*
X180600000Y-85100000D02*
X188800000Y-76900000D01*
X188800000Y-76900000D02*
X197308327Y-76900000D01*
X200450000Y-80041673D02*
X200450000Y-88628428D01*
X196708428Y-92370000D02*
X190932000Y-92370000D01*
X200450000Y-88628428D02*
X196708428Y-92370000D01*
X154660000Y-88900000D02*
X154660000Y-87500000D01*
X154660000Y-87500000D02*
X157060000Y-85100000D01*
X157060000Y-85100000D02*
X180600000Y-85100000D01*
X197308327Y-76900000D02*
X200450000Y-80041673D01*
G04 #@! TO.N,/26*
X167470126Y-94425000D02*
X162280000Y-89234874D01*
X188392000Y-89830000D02*
X187919874Y-89830000D01*
X162280000Y-89234874D02*
X162280000Y-88900000D01*
X183324874Y-94425000D02*
X167470126Y-94425000D01*
X187919874Y-89830000D02*
X183324874Y-94425000D01*
G04 #@! TO.N,/25*
X191644691Y-87290000D02*
X190932000Y-87290000D01*
X196050000Y-82190000D02*
X196050000Y-82884691D01*
X196050000Y-82884691D02*
X191644691Y-87290000D01*
G04 #@! TO.N,/23*
X193850000Y-80590000D02*
X193850000Y-83034081D01*
X193850000Y-83034081D02*
X192134081Y-84750000D01*
X192134081Y-84750000D02*
X190932000Y-84750000D01*
G04 #@! TO.N,+5V*
X201300000Y-119400000D02*
X208250000Y-119400000D01*
X198350000Y-105450000D02*
X198450000Y-105350000D01*
X198450000Y-94300000D02*
X198450000Y-98850000D01*
X118355000Y-116109874D02*
X118355000Y-115775000D01*
X115089874Y-119375000D02*
X118355000Y-116109874D01*
X198350000Y-109950000D02*
X198350000Y-105450000D01*
X94850000Y-118275000D02*
X95950000Y-119375000D01*
X209150000Y-88900000D02*
X209150000Y-93450000D01*
X209250000Y-105250000D02*
X209200000Y-105300000D01*
X95950000Y-119375000D02*
X115089874Y-119375000D01*
X209250000Y-100050000D02*
X209250000Y-105250000D01*
X198350000Y-116450000D02*
X201300000Y-119400000D01*
X208250000Y-119400000D02*
X209250000Y-118400000D01*
X209200000Y-111800000D02*
X209200000Y-118350000D01*
X209150000Y-93450000D02*
X209250000Y-93550000D01*
X209200000Y-118350000D02*
X209250000Y-118400000D01*
G04 #@! TO.N,/A0*
X144400000Y-124900000D02*
X144400000Y-129803000D01*
X144400000Y-129803000D02*
X145197000Y-130600000D01*
G04 #@! TO.N,/A1*
X146940000Y-126300000D02*
X147737000Y-127097000D01*
X147737000Y-127097000D02*
X147737000Y-130600000D01*
X146940000Y-124900000D02*
X146940000Y-126300000D01*
G04 #@! TO.N,/A2*
X149480000Y-129803000D02*
X150277000Y-130600000D01*
X149480000Y-124900000D02*
X149480000Y-129803000D01*
G04 #@! TO.N,/A3*
X152020000Y-124900000D02*
X152020000Y-129803000D01*
X152020000Y-129803000D02*
X152817000Y-130600000D01*
G04 #@! TO.N,/A4*
X154560000Y-129803000D02*
X155357000Y-130600000D01*
X154560000Y-124900000D02*
X154560000Y-129803000D01*
G04 #@! TO.N,/A5*
X157100000Y-129803000D02*
X157897000Y-130600000D01*
X157100000Y-124900000D02*
X157100000Y-129803000D01*
G04 #@! TO.N,/A6*
X159640000Y-124900000D02*
X159640000Y-129803000D01*
X159640000Y-129803000D02*
X160437000Y-130600000D01*
G04 #@! TO.N,/A7*
X162180000Y-129803000D02*
X162977000Y-130600000D01*
X162180000Y-124900000D02*
X162180000Y-129803000D01*
G04 #@! TO.N,/A8*
X164720000Y-124900000D02*
X164720000Y-127263000D01*
X164720000Y-127263000D02*
X168057000Y-130600000D01*
G04 #@! TO.N,/A9*
X167260000Y-124900000D02*
X167260000Y-126300000D01*
X167260000Y-126300000D02*
X170597000Y-129637000D01*
X170597000Y-129637000D02*
X170597000Y-130600000D01*
G04 #@! TO.N,/A10*
X173137000Y-130055680D02*
X173137000Y-130600000D01*
X169800000Y-124900000D02*
X169800000Y-126718680D01*
X169800000Y-126718680D02*
X173137000Y-130055680D01*
G04 #@! TO.N,/A11*
X172340000Y-124900000D02*
X172340000Y-127137360D01*
X172340000Y-127137360D02*
X175677000Y-130474360D01*
X175677000Y-130474360D02*
X175677000Y-130600000D01*
G04 #@! TO.N,/A12*
X178217000Y-130523704D02*
X178217000Y-130600000D01*
X174880000Y-127186704D02*
X178217000Y-130523704D01*
X174880000Y-124900000D02*
X174880000Y-127186704D01*
G04 #@! TO.N,/A13*
X177420000Y-127186704D02*
X180757000Y-130523704D01*
X177420000Y-124900000D02*
X177420000Y-127186704D01*
X180757000Y-130523704D02*
X180757000Y-130600000D01*
G04 #@! TO.N,/A14*
X179960000Y-127186704D02*
X183297000Y-130523704D01*
X183297000Y-130523704D02*
X183297000Y-130600000D01*
X179960000Y-124900000D02*
X179960000Y-127186704D01*
G04 #@! TO.N,/A15*
X185837000Y-130337000D02*
X185837000Y-130600000D01*
X182500000Y-127000000D02*
X185837000Y-130337000D01*
X182500000Y-124900000D02*
X182500000Y-127000000D01*
G04 #@! TO.N,/\u002A11*
X126625585Y-80300000D02*
X126875292Y-80549708D01*
X101290000Y-125000000D02*
X101290000Y-124665126D01*
X115813906Y-80300000D02*
X126625585Y-80300000D01*
X128420000Y-82094415D02*
X126875292Y-80549708D01*
X128420000Y-82100000D02*
X128420000Y-82094415D01*
X94616673Y-122850000D02*
X91375000Y-119608327D01*
X99474874Y-122850000D02*
X94616673Y-122850000D01*
X101290000Y-124665126D02*
X99474874Y-122850000D01*
X94843096Y-85400000D02*
X110713906Y-85400000D01*
X91375000Y-88868096D02*
X94843096Y-85400000D01*
X110713906Y-85400000D02*
X115813906Y-80300000D01*
X126875292Y-80549708D02*
X126575585Y-80250000D01*
X91375000Y-119608327D02*
X91375000Y-88868096D01*
G04 #@! TO.N,/\u002A10*
X95585126Y-86850000D02*
X92825000Y-89610126D01*
X130312081Y-83950000D02*
X114214516Y-83950000D01*
X111314516Y-86850000D02*
X95585126Y-86850000D01*
X130960000Y-82100000D02*
X130960000Y-83302081D01*
X114214516Y-83950000D02*
X111314516Y-86850000D01*
X92825000Y-89610126D02*
X92825000Y-119007717D01*
X95217283Y-121400000D02*
X101630000Y-121400000D01*
X101630000Y-121400000D02*
X103830000Y-123600000D01*
X130960000Y-83302081D02*
X130312081Y-83950000D01*
X103830000Y-123600000D02*
X103830000Y-125000000D01*
X92825000Y-119007717D02*
X95217283Y-121400000D01*
G04 #@! TO.N,/\u002A9*
X133500000Y-82100000D02*
X133500000Y-82094415D01*
X127141195Y-78765000D02*
X118440126Y-78765000D01*
X131620585Y-80215000D02*
X128591194Y-80215000D01*
X133500000Y-82094415D02*
X131620585Y-80215000D01*
X118440126Y-78765000D02*
X118440126Y-77315252D01*
X118440126Y-77315252D02*
X113774874Y-72650000D01*
X113774874Y-72650000D02*
X111750000Y-72650000D01*
X128591194Y-80215000D02*
X127141195Y-78765000D01*
G04 #@! TO.N,/\u002A8*
X136040000Y-82100000D02*
X136040000Y-80897919D01*
X129075000Y-75750000D02*
X129075000Y-72715000D01*
X132090000Y-78765000D02*
X129075000Y-75750000D01*
X133907081Y-78765000D02*
X132090000Y-78765000D01*
X136040000Y-80897919D02*
X133907081Y-78765000D01*
G04 #@! TO.N,/\u002A7*
X140117000Y-76783000D02*
X140117000Y-82100000D01*
X144350000Y-72550000D02*
X140117000Y-76783000D01*
G04 #@! TO.N,/\u002A6*
X144804919Y-78750000D02*
X142657000Y-80897919D01*
X152850000Y-78750000D02*
X144804919Y-78750000D01*
X159150000Y-72450000D02*
X152850000Y-78750000D01*
X142657000Y-80897919D02*
X142657000Y-82100000D01*
G04 #@! TO.N,/\u002A5*
X103520000Y-110700000D02*
X108195000Y-115375000D01*
X94850000Y-110700000D02*
X103520000Y-110700000D01*
X108195000Y-115375000D02*
X108195000Y-115775000D01*
G04 #@! TO.N,/\u002A4*
X105655000Y-115440126D02*
X103419874Y-113205000D01*
X94905000Y-113205000D02*
X94875000Y-113175000D01*
X105655000Y-115775000D02*
X105655000Y-115440126D01*
X103419874Y-113205000D02*
X94905000Y-113205000D01*
G04 #@! TO.N,Net-(M1-P_1)*
X182600000Y-92675000D02*
X182600000Y-88900000D01*
G04 #@! TO.N,Net-(M1-P_2)*
X180060000Y-92140000D02*
X179525000Y-92675000D01*
X180060000Y-88900000D02*
X180060000Y-92140000D01*
G04 #@! TO.N,Net-(M1-P_3)*
X177520000Y-89234874D02*
X177520000Y-88900000D01*
X173975126Y-92675000D02*
X175600126Y-91050000D01*
X175600126Y-91050000D02*
X175704874Y-91050000D01*
X173375000Y-92675000D02*
X173975126Y-92675000D01*
X175704874Y-91050000D02*
X177520000Y-89234874D01*
G04 #@! TO.N,Net-(M1-P_6)*
X151370126Y-91025000D02*
X151399874Y-91025000D01*
X149580000Y-89234874D02*
X151370126Y-91025000D01*
X151399874Y-91025000D02*
X153149874Y-92775000D01*
X149580000Y-88900000D02*
X149580000Y-89234874D01*
X153149874Y-92775000D02*
X153775000Y-92775000D01*
G04 #@! TO.N,Net-(M1-P_8)*
X144500000Y-88900000D02*
X144500000Y-89700000D01*
X144500000Y-89700000D02*
X147575000Y-92775000D01*
G04 #@! TO.N,Net-(M2-P_1)*
X134410000Y-92210000D02*
X134800000Y-92600000D01*
X134410000Y-89000000D02*
X134410000Y-92210000D01*
G04 #@! TO.N,Net-(M2-P_2)*
X131870000Y-89000000D02*
X131870000Y-92430000D01*
X131870000Y-92430000D02*
X131700000Y-92600000D01*
G04 #@! TO.N,Net-(M2-P_3)*
X129330000Y-89000000D02*
X129330000Y-91845000D01*
X129330000Y-91845000D02*
X128600000Y-92575000D01*
G04 #@! TO.N,Net-(M2-P_4)*
X126790000Y-91285000D02*
X125500000Y-92575000D01*
X126790000Y-89000000D02*
X126790000Y-91285000D01*
G04 #@! TO.N,Net-(M2-P_5)*
X103930000Y-90870000D02*
X105000000Y-91940000D01*
X103930000Y-89000000D02*
X103930000Y-90870000D01*
G04 #@! TO.N,Net-(M2-P_6)*
X101390000Y-89000000D02*
X101390000Y-91405000D01*
X101390000Y-91405000D02*
X101900000Y-91915000D01*
G04 #@! TO.N,Net-(M2-P_7)*
X98850000Y-91865000D02*
X98800000Y-91915000D01*
X98850000Y-89000000D02*
X98850000Y-91865000D01*
G04 #@! TO.N,Net-(M2-P_8)*
X96310000Y-91330000D02*
X95725000Y-91915000D01*
X96310000Y-89000000D02*
X96310000Y-91330000D01*
G04 #@! TO.N,Net-(BZ1-+)*
X154150000Y-73550000D02*
X150700000Y-77000000D01*
X154150000Y-72450000D02*
X154150000Y-73550000D01*
G04 #@! TO.N,Net-(BZ2-+)*
X139350000Y-73190000D02*
X135540000Y-77000000D01*
X139350000Y-72550000D02*
X139350000Y-73190000D01*
G04 #@! TO.N,Net-(BZ3-+)*
X124075000Y-72715000D02*
X124075000Y-73415000D01*
X124075000Y-73415000D02*
X120475000Y-77015000D01*
G04 #@! TO.N,Net-(BZ4-+)*
X106750000Y-73200000D02*
X103100000Y-76850000D01*
X106750000Y-72650000D02*
X106750000Y-73200000D01*
G04 #@! TO.N,/27*
X161634416Y-86600000D02*
X159740000Y-88494416D01*
X193527717Y-89830000D02*
X198000000Y-85357717D01*
X198000000Y-79642283D02*
X196707717Y-78350000D01*
X181390704Y-86595000D02*
X181390704Y-86600000D01*
X181390704Y-86600000D02*
X161634416Y-86600000D01*
X198000000Y-85357717D02*
X198000000Y-79642283D01*
X196707717Y-78350000D02*
X189635704Y-78350000D01*
X190932000Y-89830000D02*
X193527717Y-89830000D01*
X189635704Y-78350000D02*
X181390704Y-86595000D01*
X159740000Y-88494416D02*
X159740000Y-88900000D01*
G04 #@! TO.N,/S2*
X177775000Y-103325000D02*
X179525000Y-105075000D01*
X169050126Y-106925000D02*
X172650126Y-103325000D01*
X131700000Y-105000000D02*
X133625000Y-106925000D01*
X133625000Y-106925000D02*
X169050126Y-106925000D01*
X172650126Y-103325000D02*
X177775000Y-103325000D01*
G04 #@! TO.N,/S3*
X128600000Y-104975000D02*
X132000000Y-108375000D01*
X132000000Y-108375000D02*
X170075000Y-108375000D01*
X170075000Y-108375000D02*
X173375000Y-105075000D01*
G04 #@! TO.N,/S4*
X116120126Y-104975000D02*
X125500000Y-104975000D01*
X113275000Y-108155000D02*
X113275000Y-107820126D01*
X171700000Y-109825000D02*
X176450000Y-105075000D01*
X113275000Y-107820126D02*
X116120126Y-104975000D01*
X130350000Y-109825000D02*
X171700000Y-109825000D01*
X125500000Y-104975000D02*
X130350000Y-109825000D01*
G04 #@! TO.N,/S5*
X147600000Y-102100000D02*
X150675000Y-105175000D01*
X105000000Y-102100000D02*
X106131370Y-102100000D01*
X106131370Y-102100000D02*
X110735000Y-106703630D01*
X110735000Y-106703630D02*
X110735000Y-108155000D01*
X106131370Y-102100000D02*
X147600000Y-102100000D01*
G04 #@! TO.N,/S6*
X148950000Y-100350000D02*
X153775000Y-105175000D01*
X103625000Y-100350000D02*
X148950000Y-100350000D01*
X101900000Y-102075000D02*
X102449874Y-102075000D01*
X103625000Y-100350000D02*
X101900000Y-102075000D01*
X108195000Y-107820126D02*
X108195000Y-108155000D01*
X102449874Y-102075000D02*
X108195000Y-107820126D01*
G04 #@! TO.N,/S7*
X105655000Y-107755000D02*
X105655000Y-108155000D01*
X102455000Y-104555000D02*
X105655000Y-107755000D01*
X101280000Y-104555000D02*
X102455000Y-104555000D01*
X98800000Y-102075000D02*
X101280000Y-104555000D01*
G04 #@! TO.N,/S8*
X99655000Y-106005000D02*
X101299874Y-106005000D01*
X103115000Y-107820126D02*
X103115000Y-108155000D01*
X101299874Y-106005000D02*
X103115000Y-107820126D01*
X95725000Y-102075000D02*
X99655000Y-106005000D01*
G04 #@! TO.N,/15*
X220200000Y-113200000D02*
X216900000Y-116500000D01*
X173984919Y-72550000D02*
X209884874Y-72550000D01*
X165537000Y-80997919D02*
X173984919Y-72550000D01*
X165537000Y-82200000D02*
X165537000Y-80997919D01*
X220200000Y-82865126D02*
X220200000Y-113200000D01*
X209884874Y-72550000D02*
X220200000Y-82865126D01*
G04 #@! TO.N,/16*
X168077000Y-82200000D02*
X168077000Y-80997919D01*
X206100000Y-81590453D02*
X206100000Y-84570000D01*
X175074919Y-74000000D02*
X198509547Y-74000000D01*
X168077000Y-80997919D02*
X175074919Y-74000000D01*
X198509547Y-74000000D02*
X206100000Y-81590453D01*
G04 #@! TO.N,/17*
X203757717Y-81298780D02*
X203757717Y-85850000D01*
X203757717Y-85850000D02*
X204900000Y-86992283D01*
X170617000Y-80997919D02*
X176164919Y-75450000D01*
X201000000Y-96900000D02*
X202950000Y-98850000D01*
X170617000Y-82200000D02*
X170617000Y-80997919D01*
X204900000Y-89592283D02*
X201000000Y-93492283D01*
X197908937Y-75450000D02*
X203757717Y-81298780D01*
X204900000Y-86992283D02*
X204900000Y-89592283D01*
X176164919Y-75450000D02*
X197908937Y-75450000D01*
X201000000Y-93492283D02*
X201000000Y-96900000D01*
G04 #@! TD*
M02*
