G04 #@! TF.GenerationSoftware,KiCad,Pcbnew,7.0.2*
G04 #@! TF.CreationDate,2023-05-10T23:43:37-04:00*
G04 #@! TF.ProjectId,Tetris,54657472-6973-42e6-9b69-6361645f7063,rev?*
G04 #@! TF.SameCoordinates,Original*
G04 #@! TF.FileFunction,Legend,Top*
G04 #@! TF.FilePolarity,Positive*
%FSLAX46Y46*%
G04 Gerber Fmt 4.6, Leading zero omitted, Abs format (unit mm)*
G04 Created by KiCad (PCBNEW 7.0.2) date 2023-05-10 23:43:37*
%MOMM*%
%LPD*%
G01*
G04 APERTURE LIST*
%ADD10C,1.000000*%
%ADD11C,0.300000*%
%ADD12C,0.150000*%
%ADD13C,0.120000*%
G04 APERTURE END LIST*
D10*
G36*
X95016224Y-129907166D02*
G01*
X93762159Y-129907166D01*
X93762159Y-128445617D01*
X93392864Y-128445617D01*
X93392864Y-133432079D01*
X93762159Y-133432079D01*
X93762159Y-133690000D01*
X91679745Y-133690000D01*
X91679745Y-133432079D01*
X92046475Y-133432079D01*
X92046475Y-128445617D01*
X91677180Y-128445617D01*
X91677180Y-129907166D01*
X90423115Y-129907166D01*
X90423115Y-128187697D01*
X95016224Y-128187697D01*
X95016224Y-129907166D01*
G37*
G36*
X99132327Y-133690000D02*
G01*
X95275244Y-133690000D01*
X95275244Y-133432079D01*
X95644539Y-133432079D01*
X95644539Y-128445617D01*
X95275244Y-128445617D01*
X95275244Y-128187697D01*
X99132327Y-128187697D01*
X99132327Y-129907166D01*
X97785938Y-129907166D01*
X97785938Y-128445617D01*
X96990928Y-128445617D01*
X96990928Y-130594954D01*
X98391172Y-130594954D01*
X98391172Y-130852875D01*
X96990928Y-130852875D01*
X96990928Y-133432079D01*
X97785938Y-133432079D01*
X97785938Y-131970530D01*
X99132327Y-131970530D01*
X99132327Y-133690000D01*
G37*
G36*
X104125505Y-129907166D02*
G01*
X102871441Y-129907166D01*
X102871441Y-128445617D01*
X102502145Y-128445617D01*
X102502145Y-133432079D01*
X102871441Y-133432079D01*
X102871441Y-133690000D01*
X100789026Y-133690000D01*
X100789026Y-133432079D01*
X101155757Y-133432079D01*
X101155757Y-128445617D01*
X100786461Y-128445617D01*
X100786461Y-129907166D01*
X99532397Y-129907166D01*
X99532397Y-128187697D01*
X104125505Y-128187697D01*
X104125505Y-129907166D01*
G37*
G36*
X106670303Y-128189857D02*
G01*
X106808195Y-128196339D01*
X106942165Y-128207142D01*
X107072213Y-128222267D01*
X107198340Y-128241712D01*
X107320544Y-128265479D01*
X107438826Y-128293567D01*
X107553187Y-128325976D01*
X107663625Y-128362707D01*
X107770142Y-128403759D01*
X107838974Y-128433527D01*
X107936594Y-128480518D01*
X108024613Y-128529303D01*
X108103030Y-128579882D01*
X108171844Y-128632257D01*
X108231057Y-128686426D01*
X108280667Y-128742389D01*
X108320676Y-128800148D01*
X108351082Y-128859700D01*
X108371887Y-128921048D01*
X108383089Y-128984190D01*
X108385223Y-129027281D01*
X108385223Y-130083143D01*
X108381737Y-130149261D01*
X108371278Y-130212607D01*
X108353847Y-130273183D01*
X108329444Y-130330989D01*
X108298068Y-130386023D01*
X108259720Y-130438288D01*
X108214400Y-130487781D01*
X108162107Y-130534504D01*
X108102842Y-130578456D01*
X108036604Y-130619638D01*
X107963394Y-130658049D01*
X107883212Y-130693689D01*
X107796058Y-130726559D01*
X107701931Y-130756658D01*
X107600831Y-130783987D01*
X107492759Y-130808545D01*
X107600831Y-130833811D01*
X107701931Y-130861585D01*
X107796058Y-130891868D01*
X107883212Y-130924659D01*
X107963394Y-130959958D01*
X108036604Y-130997766D01*
X108133346Y-131059180D01*
X108214400Y-131126238D01*
X108279766Y-131198940D01*
X108314628Y-131250543D01*
X108342517Y-131304654D01*
X108363434Y-131361273D01*
X108377379Y-131420401D01*
X108384351Y-131482037D01*
X108385223Y-131513796D01*
X108385223Y-133272222D01*
X108394329Y-133326548D01*
X108434801Y-133381499D01*
X108519033Y-133419434D01*
X108628307Y-133431923D01*
X108644242Y-133432079D01*
X108754518Y-133432079D01*
X108754518Y-133690000D01*
X108159542Y-133690000D01*
X108023832Y-133687649D01*
X107896876Y-133680596D01*
X107778677Y-133668842D01*
X107669233Y-133652386D01*
X107568544Y-133631229D01*
X107476611Y-133605369D01*
X107355128Y-133557765D01*
X107253345Y-133499582D01*
X107171262Y-133430820D01*
X107127484Y-133379101D01*
X107092462Y-133322681D01*
X107066195Y-133261559D01*
X107048684Y-133195736D01*
X107039929Y-133125211D01*
X107038834Y-133088185D01*
X107038834Y-131200799D01*
X107027068Y-131142143D01*
X106991771Y-131088588D01*
X106932941Y-131040133D01*
X106890090Y-131015418D01*
X106801553Y-130978404D01*
X106703279Y-130953504D01*
X106595267Y-130940717D01*
X106531053Y-130938848D01*
X106100209Y-130938848D01*
X106100209Y-133432079D01*
X106466939Y-133432079D01*
X106466939Y-133690000D01*
X104384525Y-133690000D01*
X104384525Y-133432079D01*
X104753820Y-133432079D01*
X104753820Y-128445617D01*
X106100209Y-128445617D01*
X106100209Y-130680928D01*
X106531053Y-130680928D01*
X106644474Y-130674871D01*
X106748158Y-130656700D01*
X106842105Y-130626416D01*
X106890090Y-130604357D01*
X106961993Y-130558087D01*
X107010364Y-130506929D01*
X107035203Y-130450883D01*
X107038834Y-130417634D01*
X107038834Y-128708911D01*
X107027068Y-128650255D01*
X106991771Y-128596700D01*
X106932941Y-128548246D01*
X106890090Y-128523531D01*
X106801553Y-128485867D01*
X106703279Y-128460530D01*
X106595267Y-128447519D01*
X106531053Y-128445617D01*
X106100209Y-128445617D01*
X104753820Y-128445617D01*
X104384525Y-128445617D01*
X104384525Y-128187697D01*
X106528489Y-128187697D01*
X106670303Y-128189857D01*
G37*
G36*
X111052355Y-133690000D02*
G01*
X108967376Y-133690000D01*
X108967376Y-133432079D01*
X109336671Y-133432079D01*
X109336671Y-128445617D01*
X108967376Y-128445617D01*
X108967376Y-128187697D01*
X111052355Y-128187697D01*
X111052355Y-128445617D01*
X110683060Y-128445617D01*
X110683060Y-133432079D01*
X111052355Y-133432079D01*
X111052355Y-133690000D01*
G37*
G36*
X115071004Y-132873251D02*
G01*
X115066496Y-132936319D01*
X115052972Y-132997568D01*
X115030432Y-133056998D01*
X114998876Y-133114611D01*
X114958304Y-133170405D01*
X114908716Y-133224382D01*
X114850112Y-133276539D01*
X114782493Y-133326879D01*
X114705857Y-133375401D01*
X114620205Y-133422104D01*
X114558094Y-133452229D01*
X114459828Y-133494721D01*
X114357368Y-133533034D01*
X114250717Y-133567167D01*
X114139872Y-133597120D01*
X114024836Y-133622894D01*
X113905607Y-133644489D01*
X113782185Y-133661904D01*
X113654571Y-133675139D01*
X113522765Y-133684195D01*
X113386766Y-133689071D01*
X113293771Y-133690000D01*
X113153603Y-133687910D01*
X113017762Y-133681640D01*
X112886248Y-133671191D01*
X112759063Y-133656563D01*
X112636205Y-133637755D01*
X112517674Y-133614767D01*
X112403472Y-133587600D01*
X112293597Y-133556254D01*
X112188050Y-133520727D01*
X112086830Y-133481022D01*
X112021755Y-133452229D01*
X111930092Y-133406486D01*
X111847445Y-133358925D01*
X111773815Y-133309546D01*
X111709200Y-133258348D01*
X111653601Y-133205332D01*
X111607019Y-133150498D01*
X111569452Y-133093846D01*
X111540901Y-133035375D01*
X111521367Y-132975086D01*
X111510848Y-132912980D01*
X111508845Y-132870565D01*
X111508845Y-131970530D01*
X112855233Y-131970530D01*
X112855233Y-133178189D01*
X112862085Y-133237694D01*
X112889922Y-133300919D01*
X112939172Y-133351747D01*
X113026537Y-133396376D01*
X113122896Y-133419930D01*
X113240667Y-133431087D01*
X113293771Y-133432079D01*
X113417892Y-133425717D01*
X113520974Y-133406629D01*
X113616905Y-133366927D01*
X113673705Y-133319845D01*
X113709469Y-133260038D01*
X113722933Y-133203030D01*
X113724616Y-133171472D01*
X113724616Y-132249944D01*
X113721618Y-132182248D01*
X113712624Y-132116182D01*
X113697635Y-132051745D01*
X113676651Y-131988938D01*
X113649670Y-131927760D01*
X113616694Y-131868211D01*
X113577723Y-131810291D01*
X113532755Y-131754001D01*
X113481792Y-131699340D01*
X113424834Y-131646308D01*
X113383531Y-131611859D01*
X111903785Y-130431067D01*
X111833205Y-130370542D01*
X111769567Y-130308860D01*
X111712872Y-130246021D01*
X111663118Y-130182025D01*
X111620307Y-130116872D01*
X111584439Y-130050562D01*
X111555512Y-129983095D01*
X111533528Y-129914471D01*
X111518487Y-129844689D01*
X111510387Y-129773751D01*
X111508845Y-129725816D01*
X111508845Y-129004445D01*
X111513353Y-128941377D01*
X111526877Y-128880128D01*
X111549417Y-128820698D01*
X111580973Y-128763085D01*
X111621545Y-128707291D01*
X111671133Y-128653315D01*
X111729736Y-128601157D01*
X111797356Y-128550817D01*
X111873992Y-128502296D01*
X111959644Y-128455592D01*
X112021755Y-128425467D01*
X112120089Y-128382975D01*
X112222751Y-128344662D01*
X112329741Y-128310529D01*
X112441058Y-128280576D01*
X112556704Y-128254802D01*
X112676676Y-128233207D01*
X112800977Y-128215793D01*
X112929605Y-128202557D01*
X113062561Y-128193502D01*
X113199845Y-128188625D01*
X113293771Y-128187697D01*
X113432565Y-128189798D01*
X113567166Y-128196103D01*
X113697575Y-128206611D01*
X113823792Y-128221322D01*
X113945816Y-128240236D01*
X114063647Y-128263354D01*
X114177286Y-128290674D01*
X114286733Y-128322198D01*
X114391987Y-128357925D01*
X114493049Y-128397855D01*
X114558094Y-128426810D01*
X114649757Y-128472313D01*
X114732404Y-128519658D01*
X114806034Y-128568845D01*
X114870649Y-128619873D01*
X114926248Y-128672743D01*
X114972830Y-128727455D01*
X115010397Y-128784009D01*
X115038948Y-128842405D01*
X115058482Y-128902642D01*
X115069001Y-128964722D01*
X115071004Y-129007131D01*
X115071004Y-129907166D01*
X113724616Y-129907166D01*
X113724616Y-128699508D01*
X113717884Y-128640002D01*
X113690535Y-128576777D01*
X113642149Y-128525950D01*
X113556317Y-128481320D01*
X113461649Y-128457766D01*
X113345944Y-128446609D01*
X113293771Y-128445617D01*
X113190989Y-128449689D01*
X113081783Y-128466232D01*
X112993989Y-128495499D01*
X112927609Y-128537491D01*
X112882642Y-128592209D01*
X112862085Y-128645144D01*
X112855233Y-128706224D01*
X112855233Y-129594169D01*
X112858231Y-129661144D01*
X112867225Y-129726561D01*
X112882214Y-129790419D01*
X112903198Y-129852719D01*
X112930179Y-129913461D01*
X112963155Y-129972643D01*
X113002126Y-130030268D01*
X113047094Y-130086334D01*
X113098057Y-130140841D01*
X113155015Y-130193790D01*
X113196318Y-130228224D01*
X114676064Y-131409016D01*
X114746644Y-131469576D01*
X114810282Y-131531364D01*
X114866977Y-131594380D01*
X114916731Y-131658624D01*
X114959542Y-131724096D01*
X114995410Y-131790796D01*
X115024337Y-131858723D01*
X115046321Y-131927879D01*
X115061362Y-131998262D01*
X115069462Y-132069874D01*
X115071004Y-132118297D01*
X115071004Y-132873251D01*
G37*
D11*
X161115962Y-93885730D02*
X161115962Y-92385730D01*
X161115962Y-92385730D02*
X161615962Y-93457159D01*
X161615962Y-93457159D02*
X162115962Y-92385730D01*
X162115962Y-92385730D02*
X162115962Y-93885730D01*
X162830248Y-93885730D02*
X162830248Y-92885730D01*
X162830248Y-93171444D02*
X162901677Y-93028587D01*
X162901677Y-93028587D02*
X162973106Y-92957159D01*
X162973106Y-92957159D02*
X163115963Y-92885730D01*
X163115963Y-92885730D02*
X163258820Y-92885730D01*
X163758819Y-93742873D02*
X163830248Y-93814302D01*
X163830248Y-93814302D02*
X163758819Y-93885730D01*
X163758819Y-93885730D02*
X163687391Y-93814302D01*
X163687391Y-93814302D02*
X163758819Y-93742873D01*
X163758819Y-93742873D02*
X163758819Y-93885730D01*
X166401677Y-92457159D02*
X166258820Y-92385730D01*
X166258820Y-92385730D02*
X166044534Y-92385730D01*
X166044534Y-92385730D02*
X165830248Y-92457159D01*
X165830248Y-92457159D02*
X165687391Y-92600016D01*
X165687391Y-92600016D02*
X165615962Y-92742873D01*
X165615962Y-92742873D02*
X165544534Y-93028587D01*
X165544534Y-93028587D02*
X165544534Y-93242873D01*
X165544534Y-93242873D02*
X165615962Y-93528587D01*
X165615962Y-93528587D02*
X165687391Y-93671444D01*
X165687391Y-93671444D02*
X165830248Y-93814302D01*
X165830248Y-93814302D02*
X166044534Y-93885730D01*
X166044534Y-93885730D02*
X166187391Y-93885730D01*
X166187391Y-93885730D02*
X166401677Y-93814302D01*
X166401677Y-93814302D02*
X166473105Y-93742873D01*
X166473105Y-93742873D02*
X166473105Y-93242873D01*
X166473105Y-93242873D02*
X166187391Y-93242873D01*
D12*
G04 #@! TO.C,R13*
X104307142Y-104537619D02*
X103973809Y-104061428D01*
X103735714Y-104537619D02*
X103735714Y-103537619D01*
X103735714Y-103537619D02*
X104116666Y-103537619D01*
X104116666Y-103537619D02*
X104211904Y-103585238D01*
X104211904Y-103585238D02*
X104259523Y-103632857D01*
X104259523Y-103632857D02*
X104307142Y-103728095D01*
X104307142Y-103728095D02*
X104307142Y-103870952D01*
X104307142Y-103870952D02*
X104259523Y-103966190D01*
X104259523Y-103966190D02*
X104211904Y-104013809D01*
X104211904Y-104013809D02*
X104116666Y-104061428D01*
X104116666Y-104061428D02*
X103735714Y-104061428D01*
X105259523Y-104537619D02*
X104688095Y-104537619D01*
X104973809Y-104537619D02*
X104973809Y-103537619D01*
X104973809Y-103537619D02*
X104878571Y-103680476D01*
X104878571Y-103680476D02*
X104783333Y-103775714D01*
X104783333Y-103775714D02*
X104688095Y-103823333D01*
X105592857Y-103537619D02*
X106211904Y-103537619D01*
X106211904Y-103537619D02*
X105878571Y-103918571D01*
X105878571Y-103918571D02*
X106021428Y-103918571D01*
X106021428Y-103918571D02*
X106116666Y-103966190D01*
X106116666Y-103966190D02*
X106164285Y-104013809D01*
X106164285Y-104013809D02*
X106211904Y-104109047D01*
X106211904Y-104109047D02*
X106211904Y-104347142D01*
X106211904Y-104347142D02*
X106164285Y-104442380D01*
X106164285Y-104442380D02*
X106116666Y-104490000D01*
X106116666Y-104490000D02*
X106021428Y-104537619D01*
X106021428Y-104537619D02*
X105735714Y-104537619D01*
X105735714Y-104537619D02*
X105640476Y-104490000D01*
X105640476Y-104490000D02*
X105592857Y-104442380D01*
X104333333Y-106187619D02*
X103761905Y-106187619D01*
X104047619Y-106187619D02*
X104047619Y-105187619D01*
X104047619Y-105187619D02*
X103952381Y-105330476D01*
X103952381Y-105330476D02*
X103857143Y-105425714D01*
X103857143Y-105425714D02*
X103761905Y-105473333D01*
X105285714Y-106187619D02*
X104714286Y-106187619D01*
X105000000Y-106187619D02*
X105000000Y-105187619D01*
X105000000Y-105187619D02*
X104904762Y-105330476D01*
X104904762Y-105330476D02*
X104809524Y-105425714D01*
X104809524Y-105425714D02*
X104714286Y-105473333D01*
X105904762Y-105187619D02*
X106000000Y-105187619D01*
X106000000Y-105187619D02*
X106095238Y-105235238D01*
X106095238Y-105235238D02*
X106142857Y-105282857D01*
X106142857Y-105282857D02*
X106190476Y-105378095D01*
X106190476Y-105378095D02*
X106238095Y-105568571D01*
X106238095Y-105568571D02*
X106238095Y-105806666D01*
X106238095Y-105806666D02*
X106190476Y-105997142D01*
X106190476Y-105997142D02*
X106142857Y-106092380D01*
X106142857Y-106092380D02*
X106095238Y-106140000D01*
X106095238Y-106140000D02*
X106000000Y-106187619D01*
X106000000Y-106187619D02*
X105904762Y-106187619D01*
X105904762Y-106187619D02*
X105809524Y-106140000D01*
X105809524Y-106140000D02*
X105761905Y-106092380D01*
X105761905Y-106092380D02*
X105714286Y-105997142D01*
X105714286Y-105997142D02*
X105666667Y-105806666D01*
X105666667Y-105806666D02*
X105666667Y-105568571D01*
X105666667Y-105568571D02*
X105714286Y-105378095D01*
X105714286Y-105378095D02*
X105761905Y-105282857D01*
X105761905Y-105282857D02*
X105809524Y-105235238D01*
X105809524Y-105235238D02*
X105904762Y-105187619D01*
G04 #@! TO.C,R14*
X101257142Y-104562619D02*
X100923809Y-104086428D01*
X100685714Y-104562619D02*
X100685714Y-103562619D01*
X100685714Y-103562619D02*
X101066666Y-103562619D01*
X101066666Y-103562619D02*
X101161904Y-103610238D01*
X101161904Y-103610238D02*
X101209523Y-103657857D01*
X101209523Y-103657857D02*
X101257142Y-103753095D01*
X101257142Y-103753095D02*
X101257142Y-103895952D01*
X101257142Y-103895952D02*
X101209523Y-103991190D01*
X101209523Y-103991190D02*
X101161904Y-104038809D01*
X101161904Y-104038809D02*
X101066666Y-104086428D01*
X101066666Y-104086428D02*
X100685714Y-104086428D01*
X102209523Y-104562619D02*
X101638095Y-104562619D01*
X101923809Y-104562619D02*
X101923809Y-103562619D01*
X101923809Y-103562619D02*
X101828571Y-103705476D01*
X101828571Y-103705476D02*
X101733333Y-103800714D01*
X101733333Y-103800714D02*
X101638095Y-103848333D01*
X103066666Y-103895952D02*
X103066666Y-104562619D01*
X102828571Y-103515000D02*
X102590476Y-104229285D01*
X102590476Y-104229285D02*
X103209523Y-104229285D01*
X101233333Y-106162619D02*
X100661905Y-106162619D01*
X100947619Y-106162619D02*
X100947619Y-105162619D01*
X100947619Y-105162619D02*
X100852381Y-105305476D01*
X100852381Y-105305476D02*
X100757143Y-105400714D01*
X100757143Y-105400714D02*
X100661905Y-105448333D01*
X102185714Y-106162619D02*
X101614286Y-106162619D01*
X101900000Y-106162619D02*
X101900000Y-105162619D01*
X101900000Y-105162619D02*
X101804762Y-105305476D01*
X101804762Y-105305476D02*
X101709524Y-105400714D01*
X101709524Y-105400714D02*
X101614286Y-105448333D01*
X102804762Y-105162619D02*
X102900000Y-105162619D01*
X102900000Y-105162619D02*
X102995238Y-105210238D01*
X102995238Y-105210238D02*
X103042857Y-105257857D01*
X103042857Y-105257857D02*
X103090476Y-105353095D01*
X103090476Y-105353095D02*
X103138095Y-105543571D01*
X103138095Y-105543571D02*
X103138095Y-105781666D01*
X103138095Y-105781666D02*
X103090476Y-105972142D01*
X103090476Y-105972142D02*
X103042857Y-106067380D01*
X103042857Y-106067380D02*
X102995238Y-106115000D01*
X102995238Y-106115000D02*
X102900000Y-106162619D01*
X102900000Y-106162619D02*
X102804762Y-106162619D01*
X102804762Y-106162619D02*
X102709524Y-106115000D01*
X102709524Y-106115000D02*
X102661905Y-106067380D01*
X102661905Y-106067380D02*
X102614286Y-105972142D01*
X102614286Y-105972142D02*
X102566667Y-105781666D01*
X102566667Y-105781666D02*
X102566667Y-105543571D01*
X102566667Y-105543571D02*
X102614286Y-105353095D01*
X102614286Y-105353095D02*
X102661905Y-105257857D01*
X102661905Y-105257857D02*
X102709524Y-105210238D01*
X102709524Y-105210238D02*
X102804762Y-105162619D01*
G04 #@! TO.C,SW3*
X210266667Y-103305000D02*
X210409524Y-103352619D01*
X210409524Y-103352619D02*
X210647619Y-103352619D01*
X210647619Y-103352619D02*
X210742857Y-103305000D01*
X210742857Y-103305000D02*
X210790476Y-103257380D01*
X210790476Y-103257380D02*
X210838095Y-103162142D01*
X210838095Y-103162142D02*
X210838095Y-103066904D01*
X210838095Y-103066904D02*
X210790476Y-102971666D01*
X210790476Y-102971666D02*
X210742857Y-102924047D01*
X210742857Y-102924047D02*
X210647619Y-102876428D01*
X210647619Y-102876428D02*
X210457143Y-102828809D01*
X210457143Y-102828809D02*
X210361905Y-102781190D01*
X210361905Y-102781190D02*
X210314286Y-102733571D01*
X210314286Y-102733571D02*
X210266667Y-102638333D01*
X210266667Y-102638333D02*
X210266667Y-102543095D01*
X210266667Y-102543095D02*
X210314286Y-102447857D01*
X210314286Y-102447857D02*
X210361905Y-102400238D01*
X210361905Y-102400238D02*
X210457143Y-102352619D01*
X210457143Y-102352619D02*
X210695238Y-102352619D01*
X210695238Y-102352619D02*
X210838095Y-102400238D01*
X211171429Y-102352619D02*
X211409524Y-103352619D01*
X211409524Y-103352619D02*
X211600000Y-102638333D01*
X211600000Y-102638333D02*
X211790476Y-103352619D01*
X211790476Y-103352619D02*
X212028572Y-102352619D01*
X212314286Y-102352619D02*
X212933333Y-102352619D01*
X212933333Y-102352619D02*
X212600000Y-102733571D01*
X212600000Y-102733571D02*
X212742857Y-102733571D01*
X212742857Y-102733571D02*
X212838095Y-102781190D01*
X212838095Y-102781190D02*
X212885714Y-102828809D01*
X212885714Y-102828809D02*
X212933333Y-102924047D01*
X212933333Y-102924047D02*
X212933333Y-103162142D01*
X212933333Y-103162142D02*
X212885714Y-103257380D01*
X212885714Y-103257380D02*
X212838095Y-103305000D01*
X212838095Y-103305000D02*
X212742857Y-103352619D01*
X212742857Y-103352619D02*
X212457143Y-103352619D01*
X212457143Y-103352619D02*
X212361905Y-103305000D01*
X212361905Y-103305000D02*
X212314286Y-103257380D01*
X216617380Y-111333333D02*
X216665000Y-111380952D01*
X216665000Y-111380952D02*
X216712619Y-111523809D01*
X216712619Y-111523809D02*
X216712619Y-111619047D01*
X216712619Y-111619047D02*
X216665000Y-111761904D01*
X216665000Y-111761904D02*
X216569761Y-111857142D01*
X216569761Y-111857142D02*
X216474523Y-111904761D01*
X216474523Y-111904761D02*
X216284047Y-111952380D01*
X216284047Y-111952380D02*
X216141190Y-111952380D01*
X216141190Y-111952380D02*
X215950714Y-111904761D01*
X215950714Y-111904761D02*
X215855476Y-111857142D01*
X215855476Y-111857142D02*
X215760238Y-111761904D01*
X215760238Y-111761904D02*
X215712619Y-111619047D01*
X215712619Y-111619047D02*
X215712619Y-111523809D01*
X215712619Y-111523809D02*
X215760238Y-111380952D01*
X215760238Y-111380952D02*
X215807857Y-111333333D01*
X216712619Y-110761904D02*
X216665000Y-110857142D01*
X216665000Y-110857142D02*
X216569761Y-110904761D01*
X216569761Y-110904761D02*
X215712619Y-110904761D01*
X216712619Y-110238094D02*
X216665000Y-110333332D01*
X216665000Y-110333332D02*
X216617380Y-110380951D01*
X216617380Y-110380951D02*
X216522142Y-110428570D01*
X216522142Y-110428570D02*
X216236428Y-110428570D01*
X216236428Y-110428570D02*
X216141190Y-110380951D01*
X216141190Y-110380951D02*
X216093571Y-110333332D01*
X216093571Y-110333332D02*
X216045952Y-110238094D01*
X216045952Y-110238094D02*
X216045952Y-110095237D01*
X216045952Y-110095237D02*
X216093571Y-109999999D01*
X216093571Y-109999999D02*
X216141190Y-109952380D01*
X216141190Y-109952380D02*
X216236428Y-109904761D01*
X216236428Y-109904761D02*
X216522142Y-109904761D01*
X216522142Y-109904761D02*
X216617380Y-109952380D01*
X216617380Y-109952380D02*
X216665000Y-109999999D01*
X216665000Y-109999999D02*
X216712619Y-110095237D01*
X216712619Y-110095237D02*
X216712619Y-110238094D01*
X216665000Y-109047618D02*
X216712619Y-109142856D01*
X216712619Y-109142856D02*
X216712619Y-109333332D01*
X216712619Y-109333332D02*
X216665000Y-109428570D01*
X216665000Y-109428570D02*
X216617380Y-109476189D01*
X216617380Y-109476189D02*
X216522142Y-109523808D01*
X216522142Y-109523808D02*
X216236428Y-109523808D01*
X216236428Y-109523808D02*
X216141190Y-109476189D01*
X216141190Y-109476189D02*
X216093571Y-109428570D01*
X216093571Y-109428570D02*
X216045952Y-109333332D01*
X216045952Y-109333332D02*
X216045952Y-109142856D01*
X216045952Y-109142856D02*
X216093571Y-109047618D01*
X216712619Y-108619046D02*
X215712619Y-108619046D01*
X216331666Y-108523808D02*
X216712619Y-108238094D01*
X216045952Y-108238094D02*
X216426904Y-108619046D01*
X216045952Y-107904760D02*
X216712619Y-107714284D01*
X216712619Y-107714284D02*
X216236428Y-107523808D01*
X216236428Y-107523808D02*
X216712619Y-107333332D01*
X216712619Y-107333332D02*
X216045952Y-107142856D01*
X216712619Y-106761903D02*
X216045952Y-106761903D01*
X215712619Y-106761903D02*
X215760238Y-106809522D01*
X215760238Y-106809522D02*
X215807857Y-106761903D01*
X215807857Y-106761903D02*
X215760238Y-106714284D01*
X215760238Y-106714284D02*
X215712619Y-106761903D01*
X215712619Y-106761903D02*
X215807857Y-106761903D01*
X216665000Y-106333332D02*
X216712619Y-106238094D01*
X216712619Y-106238094D02*
X216712619Y-106047618D01*
X216712619Y-106047618D02*
X216665000Y-105952380D01*
X216665000Y-105952380D02*
X216569761Y-105904761D01*
X216569761Y-105904761D02*
X216522142Y-105904761D01*
X216522142Y-105904761D02*
X216426904Y-105952380D01*
X216426904Y-105952380D02*
X216379285Y-106047618D01*
X216379285Y-106047618D02*
X216379285Y-106190475D01*
X216379285Y-106190475D02*
X216331666Y-106285713D01*
X216331666Y-106285713D02*
X216236428Y-106333332D01*
X216236428Y-106333332D02*
X216188809Y-106333332D01*
X216188809Y-106333332D02*
X216093571Y-106285713D01*
X216093571Y-106285713D02*
X216045952Y-106190475D01*
X216045952Y-106190475D02*
X216045952Y-106047618D01*
X216045952Y-106047618D02*
X216093571Y-105952380D01*
X216665000Y-105095237D02*
X216712619Y-105190475D01*
X216712619Y-105190475D02*
X216712619Y-105380951D01*
X216712619Y-105380951D02*
X216665000Y-105476189D01*
X216665000Y-105476189D02*
X216569761Y-105523808D01*
X216569761Y-105523808D02*
X216188809Y-105523808D01*
X216188809Y-105523808D02*
X216093571Y-105476189D01*
X216093571Y-105476189D02*
X216045952Y-105380951D01*
X216045952Y-105380951D02*
X216045952Y-105190475D01*
X216045952Y-105190475D02*
X216093571Y-105095237D01*
X216093571Y-105095237D02*
X216188809Y-105047618D01*
X216188809Y-105047618D02*
X216284047Y-105047618D01*
X216284047Y-105047618D02*
X216379285Y-105523808D01*
G04 #@! TO.C,SW6*
X199366667Y-97015000D02*
X199509524Y-97062619D01*
X199509524Y-97062619D02*
X199747619Y-97062619D01*
X199747619Y-97062619D02*
X199842857Y-97015000D01*
X199842857Y-97015000D02*
X199890476Y-96967380D01*
X199890476Y-96967380D02*
X199938095Y-96872142D01*
X199938095Y-96872142D02*
X199938095Y-96776904D01*
X199938095Y-96776904D02*
X199890476Y-96681666D01*
X199890476Y-96681666D02*
X199842857Y-96634047D01*
X199842857Y-96634047D02*
X199747619Y-96586428D01*
X199747619Y-96586428D02*
X199557143Y-96538809D01*
X199557143Y-96538809D02*
X199461905Y-96491190D01*
X199461905Y-96491190D02*
X199414286Y-96443571D01*
X199414286Y-96443571D02*
X199366667Y-96348333D01*
X199366667Y-96348333D02*
X199366667Y-96253095D01*
X199366667Y-96253095D02*
X199414286Y-96157857D01*
X199414286Y-96157857D02*
X199461905Y-96110238D01*
X199461905Y-96110238D02*
X199557143Y-96062619D01*
X199557143Y-96062619D02*
X199795238Y-96062619D01*
X199795238Y-96062619D02*
X199938095Y-96110238D01*
X200271429Y-96062619D02*
X200509524Y-97062619D01*
X200509524Y-97062619D02*
X200700000Y-96348333D01*
X200700000Y-96348333D02*
X200890476Y-97062619D01*
X200890476Y-97062619D02*
X201128572Y-96062619D01*
X201938095Y-96062619D02*
X201747619Y-96062619D01*
X201747619Y-96062619D02*
X201652381Y-96110238D01*
X201652381Y-96110238D02*
X201604762Y-96157857D01*
X201604762Y-96157857D02*
X201509524Y-96300714D01*
X201509524Y-96300714D02*
X201461905Y-96491190D01*
X201461905Y-96491190D02*
X201461905Y-96872142D01*
X201461905Y-96872142D02*
X201509524Y-96967380D01*
X201509524Y-96967380D02*
X201557143Y-97015000D01*
X201557143Y-97015000D02*
X201652381Y-97062619D01*
X201652381Y-97062619D02*
X201842857Y-97062619D01*
X201842857Y-97062619D02*
X201938095Y-97015000D01*
X201938095Y-97015000D02*
X201985714Y-96967380D01*
X201985714Y-96967380D02*
X202033333Y-96872142D01*
X202033333Y-96872142D02*
X202033333Y-96634047D01*
X202033333Y-96634047D02*
X201985714Y-96538809D01*
X201985714Y-96538809D02*
X201938095Y-96491190D01*
X201938095Y-96491190D02*
X201842857Y-96443571D01*
X201842857Y-96443571D02*
X201652381Y-96443571D01*
X201652381Y-96443571D02*
X201557143Y-96491190D01*
X201557143Y-96491190D02*
X201509524Y-96538809D01*
X201509524Y-96538809D02*
X201461905Y-96634047D01*
X196412619Y-105495238D02*
X195412619Y-105495238D01*
X195888809Y-105495238D02*
X195888809Y-104923810D01*
X196412619Y-104923810D02*
X195412619Y-104923810D01*
X196412619Y-104019048D02*
X195888809Y-104019048D01*
X195888809Y-104019048D02*
X195793571Y-104066667D01*
X195793571Y-104066667D02*
X195745952Y-104161905D01*
X195745952Y-104161905D02*
X195745952Y-104352381D01*
X195745952Y-104352381D02*
X195793571Y-104447619D01*
X196365000Y-104019048D02*
X196412619Y-104114286D01*
X196412619Y-104114286D02*
X196412619Y-104352381D01*
X196412619Y-104352381D02*
X196365000Y-104447619D01*
X196365000Y-104447619D02*
X196269761Y-104495238D01*
X196269761Y-104495238D02*
X196174523Y-104495238D01*
X196174523Y-104495238D02*
X196079285Y-104447619D01*
X196079285Y-104447619D02*
X196031666Y-104352381D01*
X196031666Y-104352381D02*
X196031666Y-104114286D01*
X196031666Y-104114286D02*
X195984047Y-104019048D01*
X196412619Y-103542857D02*
X195745952Y-103542857D01*
X195936428Y-103542857D02*
X195841190Y-103495238D01*
X195841190Y-103495238D02*
X195793571Y-103447619D01*
X195793571Y-103447619D02*
X195745952Y-103352381D01*
X195745952Y-103352381D02*
X195745952Y-103257143D01*
X196412619Y-102495238D02*
X195412619Y-102495238D01*
X196365000Y-102495238D02*
X196412619Y-102590476D01*
X196412619Y-102590476D02*
X196412619Y-102780952D01*
X196412619Y-102780952D02*
X196365000Y-102876190D01*
X196365000Y-102876190D02*
X196317380Y-102923809D01*
X196317380Y-102923809D02*
X196222142Y-102971428D01*
X196222142Y-102971428D02*
X195936428Y-102971428D01*
X195936428Y-102971428D02*
X195841190Y-102923809D01*
X195841190Y-102923809D02*
X195793571Y-102876190D01*
X195793571Y-102876190D02*
X195745952Y-102780952D01*
X195745952Y-102780952D02*
X195745952Y-102590476D01*
X195745952Y-102590476D02*
X195793571Y-102495238D01*
X196412619Y-101257142D02*
X195412619Y-101257142D01*
X195412619Y-101257142D02*
X195412619Y-101019047D01*
X195412619Y-101019047D02*
X195460238Y-100876190D01*
X195460238Y-100876190D02*
X195555476Y-100780952D01*
X195555476Y-100780952D02*
X195650714Y-100733333D01*
X195650714Y-100733333D02*
X195841190Y-100685714D01*
X195841190Y-100685714D02*
X195984047Y-100685714D01*
X195984047Y-100685714D02*
X196174523Y-100733333D01*
X196174523Y-100733333D02*
X196269761Y-100780952D01*
X196269761Y-100780952D02*
X196365000Y-100876190D01*
X196365000Y-100876190D02*
X196412619Y-101019047D01*
X196412619Y-101019047D02*
X196412619Y-101257142D01*
X196412619Y-100257142D02*
X195745952Y-100257142D01*
X195936428Y-100257142D02*
X195841190Y-100209523D01*
X195841190Y-100209523D02*
X195793571Y-100161904D01*
X195793571Y-100161904D02*
X195745952Y-100066666D01*
X195745952Y-100066666D02*
X195745952Y-99971428D01*
X196412619Y-99495237D02*
X196365000Y-99590475D01*
X196365000Y-99590475D02*
X196317380Y-99638094D01*
X196317380Y-99638094D02*
X196222142Y-99685713D01*
X196222142Y-99685713D02*
X195936428Y-99685713D01*
X195936428Y-99685713D02*
X195841190Y-99638094D01*
X195841190Y-99638094D02*
X195793571Y-99590475D01*
X195793571Y-99590475D02*
X195745952Y-99495237D01*
X195745952Y-99495237D02*
X195745952Y-99352380D01*
X195745952Y-99352380D02*
X195793571Y-99257142D01*
X195793571Y-99257142D02*
X195841190Y-99209523D01*
X195841190Y-99209523D02*
X195936428Y-99161904D01*
X195936428Y-99161904D02*
X196222142Y-99161904D01*
X196222142Y-99161904D02*
X196317380Y-99209523D01*
X196317380Y-99209523D02*
X196365000Y-99257142D01*
X196365000Y-99257142D02*
X196412619Y-99352380D01*
X196412619Y-99352380D02*
X196412619Y-99495237D01*
X195745952Y-98733332D02*
X196745952Y-98733332D01*
X195793571Y-98733332D02*
X195745952Y-98638094D01*
X195745952Y-98638094D02*
X195745952Y-98447618D01*
X195745952Y-98447618D02*
X195793571Y-98352380D01*
X195793571Y-98352380D02*
X195841190Y-98304761D01*
X195841190Y-98304761D02*
X195936428Y-98257142D01*
X195936428Y-98257142D02*
X196222142Y-98257142D01*
X196222142Y-98257142D02*
X196317380Y-98304761D01*
X196317380Y-98304761D02*
X196365000Y-98352380D01*
X196365000Y-98352380D02*
X196412619Y-98447618D01*
X196412619Y-98447618D02*
X196412619Y-98638094D01*
X196412619Y-98638094D02*
X196365000Y-98733332D01*
G04 #@! TO.C,R2*
X179383333Y-107582619D02*
X179050000Y-107106428D01*
X178811905Y-107582619D02*
X178811905Y-106582619D01*
X178811905Y-106582619D02*
X179192857Y-106582619D01*
X179192857Y-106582619D02*
X179288095Y-106630238D01*
X179288095Y-106630238D02*
X179335714Y-106677857D01*
X179335714Y-106677857D02*
X179383333Y-106773095D01*
X179383333Y-106773095D02*
X179383333Y-106915952D01*
X179383333Y-106915952D02*
X179335714Y-107011190D01*
X179335714Y-107011190D02*
X179288095Y-107058809D01*
X179288095Y-107058809D02*
X179192857Y-107106428D01*
X179192857Y-107106428D02*
X178811905Y-107106428D01*
X179764286Y-106677857D02*
X179811905Y-106630238D01*
X179811905Y-106630238D02*
X179907143Y-106582619D01*
X179907143Y-106582619D02*
X180145238Y-106582619D01*
X180145238Y-106582619D02*
X180240476Y-106630238D01*
X180240476Y-106630238D02*
X180288095Y-106677857D01*
X180288095Y-106677857D02*
X180335714Y-106773095D01*
X180335714Y-106773095D02*
X180335714Y-106868333D01*
X180335714Y-106868333D02*
X180288095Y-107011190D01*
X180288095Y-107011190D02*
X179716667Y-107582619D01*
X179716667Y-107582619D02*
X180335714Y-107582619D01*
X178933333Y-109162619D02*
X178361905Y-109162619D01*
X178647619Y-109162619D02*
X178647619Y-108162619D01*
X178647619Y-108162619D02*
X178552381Y-108305476D01*
X178552381Y-108305476D02*
X178457143Y-108400714D01*
X178457143Y-108400714D02*
X178361905Y-108448333D01*
X179885714Y-109162619D02*
X179314286Y-109162619D01*
X179600000Y-109162619D02*
X179600000Y-108162619D01*
X179600000Y-108162619D02*
X179504762Y-108305476D01*
X179504762Y-108305476D02*
X179409524Y-108400714D01*
X179409524Y-108400714D02*
X179314286Y-108448333D01*
X180504762Y-108162619D02*
X180600000Y-108162619D01*
X180600000Y-108162619D02*
X180695238Y-108210238D01*
X180695238Y-108210238D02*
X180742857Y-108257857D01*
X180742857Y-108257857D02*
X180790476Y-108353095D01*
X180790476Y-108353095D02*
X180838095Y-108543571D01*
X180838095Y-108543571D02*
X180838095Y-108781666D01*
X180838095Y-108781666D02*
X180790476Y-108972142D01*
X180790476Y-108972142D02*
X180742857Y-109067380D01*
X180742857Y-109067380D02*
X180695238Y-109115000D01*
X180695238Y-109115000D02*
X180600000Y-109162619D01*
X180600000Y-109162619D02*
X180504762Y-109162619D01*
X180504762Y-109162619D02*
X180409524Y-109115000D01*
X180409524Y-109115000D02*
X180361905Y-109067380D01*
X180361905Y-109067380D02*
X180314286Y-108972142D01*
X180314286Y-108972142D02*
X180266667Y-108781666D01*
X180266667Y-108781666D02*
X180266667Y-108543571D01*
X180266667Y-108543571D02*
X180314286Y-108353095D01*
X180314286Y-108353095D02*
X180361905Y-108257857D01*
X180361905Y-108257857D02*
X180409524Y-108210238D01*
X180409524Y-108210238D02*
X180504762Y-108162619D01*
G04 #@! TO.C,R3*
X173233333Y-107562619D02*
X172900000Y-107086428D01*
X172661905Y-107562619D02*
X172661905Y-106562619D01*
X172661905Y-106562619D02*
X173042857Y-106562619D01*
X173042857Y-106562619D02*
X173138095Y-106610238D01*
X173138095Y-106610238D02*
X173185714Y-106657857D01*
X173185714Y-106657857D02*
X173233333Y-106753095D01*
X173233333Y-106753095D02*
X173233333Y-106895952D01*
X173233333Y-106895952D02*
X173185714Y-106991190D01*
X173185714Y-106991190D02*
X173138095Y-107038809D01*
X173138095Y-107038809D02*
X173042857Y-107086428D01*
X173042857Y-107086428D02*
X172661905Y-107086428D01*
X173566667Y-106562619D02*
X174185714Y-106562619D01*
X174185714Y-106562619D02*
X173852381Y-106943571D01*
X173852381Y-106943571D02*
X173995238Y-106943571D01*
X173995238Y-106943571D02*
X174090476Y-106991190D01*
X174090476Y-106991190D02*
X174138095Y-107038809D01*
X174138095Y-107038809D02*
X174185714Y-107134047D01*
X174185714Y-107134047D02*
X174185714Y-107372142D01*
X174185714Y-107372142D02*
X174138095Y-107467380D01*
X174138095Y-107467380D02*
X174090476Y-107515000D01*
X174090476Y-107515000D02*
X173995238Y-107562619D01*
X173995238Y-107562619D02*
X173709524Y-107562619D01*
X173709524Y-107562619D02*
X173614286Y-107515000D01*
X173614286Y-107515000D02*
X173566667Y-107467380D01*
X172783333Y-109162619D02*
X172211905Y-109162619D01*
X172497619Y-109162619D02*
X172497619Y-108162619D01*
X172497619Y-108162619D02*
X172402381Y-108305476D01*
X172402381Y-108305476D02*
X172307143Y-108400714D01*
X172307143Y-108400714D02*
X172211905Y-108448333D01*
X173735714Y-109162619D02*
X173164286Y-109162619D01*
X173450000Y-109162619D02*
X173450000Y-108162619D01*
X173450000Y-108162619D02*
X173354762Y-108305476D01*
X173354762Y-108305476D02*
X173259524Y-108400714D01*
X173259524Y-108400714D02*
X173164286Y-108448333D01*
X174354762Y-108162619D02*
X174450000Y-108162619D01*
X174450000Y-108162619D02*
X174545238Y-108210238D01*
X174545238Y-108210238D02*
X174592857Y-108257857D01*
X174592857Y-108257857D02*
X174640476Y-108353095D01*
X174640476Y-108353095D02*
X174688095Y-108543571D01*
X174688095Y-108543571D02*
X174688095Y-108781666D01*
X174688095Y-108781666D02*
X174640476Y-108972142D01*
X174640476Y-108972142D02*
X174592857Y-109067380D01*
X174592857Y-109067380D02*
X174545238Y-109115000D01*
X174545238Y-109115000D02*
X174450000Y-109162619D01*
X174450000Y-109162619D02*
X174354762Y-109162619D01*
X174354762Y-109162619D02*
X174259524Y-109115000D01*
X174259524Y-109115000D02*
X174211905Y-109067380D01*
X174211905Y-109067380D02*
X174164286Y-108972142D01*
X174164286Y-108972142D02*
X174116667Y-108781666D01*
X174116667Y-108781666D02*
X174116667Y-108543571D01*
X174116667Y-108543571D02*
X174164286Y-108353095D01*
X174164286Y-108353095D02*
X174211905Y-108257857D01*
X174211905Y-108257857D02*
X174259524Y-108210238D01*
X174259524Y-108210238D02*
X174354762Y-108162619D01*
G04 #@! TO.C,R15*
X98182142Y-104537619D02*
X97848809Y-104061428D01*
X97610714Y-104537619D02*
X97610714Y-103537619D01*
X97610714Y-103537619D02*
X97991666Y-103537619D01*
X97991666Y-103537619D02*
X98086904Y-103585238D01*
X98086904Y-103585238D02*
X98134523Y-103632857D01*
X98134523Y-103632857D02*
X98182142Y-103728095D01*
X98182142Y-103728095D02*
X98182142Y-103870952D01*
X98182142Y-103870952D02*
X98134523Y-103966190D01*
X98134523Y-103966190D02*
X98086904Y-104013809D01*
X98086904Y-104013809D02*
X97991666Y-104061428D01*
X97991666Y-104061428D02*
X97610714Y-104061428D01*
X99134523Y-104537619D02*
X98563095Y-104537619D01*
X98848809Y-104537619D02*
X98848809Y-103537619D01*
X98848809Y-103537619D02*
X98753571Y-103680476D01*
X98753571Y-103680476D02*
X98658333Y-103775714D01*
X98658333Y-103775714D02*
X98563095Y-103823333D01*
X100039285Y-103537619D02*
X99563095Y-103537619D01*
X99563095Y-103537619D02*
X99515476Y-104013809D01*
X99515476Y-104013809D02*
X99563095Y-103966190D01*
X99563095Y-103966190D02*
X99658333Y-103918571D01*
X99658333Y-103918571D02*
X99896428Y-103918571D01*
X99896428Y-103918571D02*
X99991666Y-103966190D01*
X99991666Y-103966190D02*
X100039285Y-104013809D01*
X100039285Y-104013809D02*
X100086904Y-104109047D01*
X100086904Y-104109047D02*
X100086904Y-104347142D01*
X100086904Y-104347142D02*
X100039285Y-104442380D01*
X100039285Y-104442380D02*
X99991666Y-104490000D01*
X99991666Y-104490000D02*
X99896428Y-104537619D01*
X99896428Y-104537619D02*
X99658333Y-104537619D01*
X99658333Y-104537619D02*
X99563095Y-104490000D01*
X99563095Y-104490000D02*
X99515476Y-104442380D01*
X98133333Y-106162619D02*
X97561905Y-106162619D01*
X97847619Y-106162619D02*
X97847619Y-105162619D01*
X97847619Y-105162619D02*
X97752381Y-105305476D01*
X97752381Y-105305476D02*
X97657143Y-105400714D01*
X97657143Y-105400714D02*
X97561905Y-105448333D01*
X99085714Y-106162619D02*
X98514286Y-106162619D01*
X98800000Y-106162619D02*
X98800000Y-105162619D01*
X98800000Y-105162619D02*
X98704762Y-105305476D01*
X98704762Y-105305476D02*
X98609524Y-105400714D01*
X98609524Y-105400714D02*
X98514286Y-105448333D01*
X99704762Y-105162619D02*
X99800000Y-105162619D01*
X99800000Y-105162619D02*
X99895238Y-105210238D01*
X99895238Y-105210238D02*
X99942857Y-105257857D01*
X99942857Y-105257857D02*
X99990476Y-105353095D01*
X99990476Y-105353095D02*
X100038095Y-105543571D01*
X100038095Y-105543571D02*
X100038095Y-105781666D01*
X100038095Y-105781666D02*
X99990476Y-105972142D01*
X99990476Y-105972142D02*
X99942857Y-106067380D01*
X99942857Y-106067380D02*
X99895238Y-106115000D01*
X99895238Y-106115000D02*
X99800000Y-106162619D01*
X99800000Y-106162619D02*
X99704762Y-106162619D01*
X99704762Y-106162619D02*
X99609524Y-106115000D01*
X99609524Y-106115000D02*
X99561905Y-106067380D01*
X99561905Y-106067380D02*
X99514286Y-105972142D01*
X99514286Y-105972142D02*
X99466667Y-105781666D01*
X99466667Y-105781666D02*
X99466667Y-105543571D01*
X99466667Y-105543571D02*
X99514286Y-105353095D01*
X99514286Y-105353095D02*
X99561905Y-105257857D01*
X99561905Y-105257857D02*
X99609524Y-105210238D01*
X99609524Y-105210238D02*
X99704762Y-105162619D01*
G04 #@! TO.C,SW5*
X199216667Y-86015000D02*
X199359524Y-86062619D01*
X199359524Y-86062619D02*
X199597619Y-86062619D01*
X199597619Y-86062619D02*
X199692857Y-86015000D01*
X199692857Y-86015000D02*
X199740476Y-85967380D01*
X199740476Y-85967380D02*
X199788095Y-85872142D01*
X199788095Y-85872142D02*
X199788095Y-85776904D01*
X199788095Y-85776904D02*
X199740476Y-85681666D01*
X199740476Y-85681666D02*
X199692857Y-85634047D01*
X199692857Y-85634047D02*
X199597619Y-85586428D01*
X199597619Y-85586428D02*
X199407143Y-85538809D01*
X199407143Y-85538809D02*
X199311905Y-85491190D01*
X199311905Y-85491190D02*
X199264286Y-85443571D01*
X199264286Y-85443571D02*
X199216667Y-85348333D01*
X199216667Y-85348333D02*
X199216667Y-85253095D01*
X199216667Y-85253095D02*
X199264286Y-85157857D01*
X199264286Y-85157857D02*
X199311905Y-85110238D01*
X199311905Y-85110238D02*
X199407143Y-85062619D01*
X199407143Y-85062619D02*
X199645238Y-85062619D01*
X199645238Y-85062619D02*
X199788095Y-85110238D01*
X200121429Y-85062619D02*
X200359524Y-86062619D01*
X200359524Y-86062619D02*
X200550000Y-85348333D01*
X200550000Y-85348333D02*
X200740476Y-86062619D01*
X200740476Y-86062619D02*
X200978572Y-85062619D01*
X201835714Y-85062619D02*
X201359524Y-85062619D01*
X201359524Y-85062619D02*
X201311905Y-85538809D01*
X201311905Y-85538809D02*
X201359524Y-85491190D01*
X201359524Y-85491190D02*
X201454762Y-85443571D01*
X201454762Y-85443571D02*
X201692857Y-85443571D01*
X201692857Y-85443571D02*
X201788095Y-85491190D01*
X201788095Y-85491190D02*
X201835714Y-85538809D01*
X201835714Y-85538809D02*
X201883333Y-85634047D01*
X201883333Y-85634047D02*
X201883333Y-85872142D01*
X201883333Y-85872142D02*
X201835714Y-85967380D01*
X201835714Y-85967380D02*
X201788095Y-86015000D01*
X201788095Y-86015000D02*
X201692857Y-86062619D01*
X201692857Y-86062619D02*
X201454762Y-86062619D01*
X201454762Y-86062619D02*
X201359524Y-86015000D01*
X201359524Y-86015000D02*
X201311905Y-85967380D01*
X196415000Y-94204762D02*
X196462619Y-94061905D01*
X196462619Y-94061905D02*
X196462619Y-93823810D01*
X196462619Y-93823810D02*
X196415000Y-93728572D01*
X196415000Y-93728572D02*
X196367380Y-93680953D01*
X196367380Y-93680953D02*
X196272142Y-93633334D01*
X196272142Y-93633334D02*
X196176904Y-93633334D01*
X196176904Y-93633334D02*
X196081666Y-93680953D01*
X196081666Y-93680953D02*
X196034047Y-93728572D01*
X196034047Y-93728572D02*
X195986428Y-93823810D01*
X195986428Y-93823810D02*
X195938809Y-94014286D01*
X195938809Y-94014286D02*
X195891190Y-94109524D01*
X195891190Y-94109524D02*
X195843571Y-94157143D01*
X195843571Y-94157143D02*
X195748333Y-94204762D01*
X195748333Y-94204762D02*
X195653095Y-94204762D01*
X195653095Y-94204762D02*
X195557857Y-94157143D01*
X195557857Y-94157143D02*
X195510238Y-94109524D01*
X195510238Y-94109524D02*
X195462619Y-94014286D01*
X195462619Y-94014286D02*
X195462619Y-93776191D01*
X195462619Y-93776191D02*
X195510238Y-93633334D01*
X196462619Y-93061905D02*
X196415000Y-93157143D01*
X196415000Y-93157143D02*
X196367380Y-93204762D01*
X196367380Y-93204762D02*
X196272142Y-93252381D01*
X196272142Y-93252381D02*
X195986428Y-93252381D01*
X195986428Y-93252381D02*
X195891190Y-93204762D01*
X195891190Y-93204762D02*
X195843571Y-93157143D01*
X195843571Y-93157143D02*
X195795952Y-93061905D01*
X195795952Y-93061905D02*
X195795952Y-92919048D01*
X195795952Y-92919048D02*
X195843571Y-92823810D01*
X195843571Y-92823810D02*
X195891190Y-92776191D01*
X195891190Y-92776191D02*
X195986428Y-92728572D01*
X195986428Y-92728572D02*
X196272142Y-92728572D01*
X196272142Y-92728572D02*
X196367380Y-92776191D01*
X196367380Y-92776191D02*
X196415000Y-92823810D01*
X196415000Y-92823810D02*
X196462619Y-92919048D01*
X196462619Y-92919048D02*
X196462619Y-93061905D01*
X195795952Y-92442857D02*
X195795952Y-92061905D01*
X196462619Y-92300000D02*
X195605476Y-92300000D01*
X195605476Y-92300000D02*
X195510238Y-92252381D01*
X195510238Y-92252381D02*
X195462619Y-92157143D01*
X195462619Y-92157143D02*
X195462619Y-92061905D01*
X195795952Y-91871428D02*
X195795952Y-91490476D01*
X195462619Y-91728571D02*
X196319761Y-91728571D01*
X196319761Y-91728571D02*
X196415000Y-91680952D01*
X196415000Y-91680952D02*
X196462619Y-91585714D01*
X196462619Y-91585714D02*
X196462619Y-91490476D01*
X196462619Y-90395237D02*
X195462619Y-90395237D01*
X195462619Y-90395237D02*
X195462619Y-90157142D01*
X195462619Y-90157142D02*
X195510238Y-90014285D01*
X195510238Y-90014285D02*
X195605476Y-89919047D01*
X195605476Y-89919047D02*
X195700714Y-89871428D01*
X195700714Y-89871428D02*
X195891190Y-89823809D01*
X195891190Y-89823809D02*
X196034047Y-89823809D01*
X196034047Y-89823809D02*
X196224523Y-89871428D01*
X196224523Y-89871428D02*
X196319761Y-89919047D01*
X196319761Y-89919047D02*
X196415000Y-90014285D01*
X196415000Y-90014285D02*
X196462619Y-90157142D01*
X196462619Y-90157142D02*
X196462619Y-90395237D01*
X196462619Y-89395237D02*
X195795952Y-89395237D01*
X195986428Y-89395237D02*
X195891190Y-89347618D01*
X195891190Y-89347618D02*
X195843571Y-89299999D01*
X195843571Y-89299999D02*
X195795952Y-89204761D01*
X195795952Y-89204761D02*
X195795952Y-89109523D01*
X196462619Y-88633332D02*
X196415000Y-88728570D01*
X196415000Y-88728570D02*
X196367380Y-88776189D01*
X196367380Y-88776189D02*
X196272142Y-88823808D01*
X196272142Y-88823808D02*
X195986428Y-88823808D01*
X195986428Y-88823808D02*
X195891190Y-88776189D01*
X195891190Y-88776189D02*
X195843571Y-88728570D01*
X195843571Y-88728570D02*
X195795952Y-88633332D01*
X195795952Y-88633332D02*
X195795952Y-88490475D01*
X195795952Y-88490475D02*
X195843571Y-88395237D01*
X195843571Y-88395237D02*
X195891190Y-88347618D01*
X195891190Y-88347618D02*
X195986428Y-88299999D01*
X195986428Y-88299999D02*
X196272142Y-88299999D01*
X196272142Y-88299999D02*
X196367380Y-88347618D01*
X196367380Y-88347618D02*
X196415000Y-88395237D01*
X196415000Y-88395237D02*
X196462619Y-88490475D01*
X196462619Y-88490475D02*
X196462619Y-88633332D01*
X195795952Y-87871427D02*
X196795952Y-87871427D01*
X195843571Y-87871427D02*
X195795952Y-87776189D01*
X195795952Y-87776189D02*
X195795952Y-87585713D01*
X195795952Y-87585713D02*
X195843571Y-87490475D01*
X195843571Y-87490475D02*
X195891190Y-87442856D01*
X195891190Y-87442856D02*
X195986428Y-87395237D01*
X195986428Y-87395237D02*
X196272142Y-87395237D01*
X196272142Y-87395237D02*
X196367380Y-87442856D01*
X196367380Y-87442856D02*
X196415000Y-87490475D01*
X196415000Y-87490475D02*
X196462619Y-87585713D01*
X196462619Y-87585713D02*
X196462619Y-87776189D01*
X196462619Y-87776189D02*
X196415000Y-87871427D01*
G04 #@! TO.C,M1*
X143693476Y-86702619D02*
X143693476Y-85702619D01*
X143693476Y-85702619D02*
X144026809Y-86416904D01*
X144026809Y-86416904D02*
X144360142Y-85702619D01*
X144360142Y-85702619D02*
X144360142Y-86702619D01*
X145360142Y-86702619D02*
X144788714Y-86702619D01*
X145074428Y-86702619D02*
X145074428Y-85702619D01*
X145074428Y-85702619D02*
X144979190Y-85845476D01*
X144979190Y-85845476D02*
X144883952Y-85940714D01*
X144883952Y-85940714D02*
X144788714Y-85988333D01*
X140690476Y-88302619D02*
X141309523Y-88302619D01*
X141309523Y-88302619D02*
X140976190Y-88683571D01*
X140976190Y-88683571D02*
X141119047Y-88683571D01*
X141119047Y-88683571D02*
X141214285Y-88731190D01*
X141214285Y-88731190D02*
X141261904Y-88778809D01*
X141261904Y-88778809D02*
X141309523Y-88874047D01*
X141309523Y-88874047D02*
X141309523Y-89112142D01*
X141309523Y-89112142D02*
X141261904Y-89207380D01*
X141261904Y-89207380D02*
X141214285Y-89255000D01*
X141214285Y-89255000D02*
X141119047Y-89302619D01*
X141119047Y-89302619D02*
X140833333Y-89302619D01*
X140833333Y-89302619D02*
X140738095Y-89255000D01*
X140738095Y-89255000D02*
X140690476Y-89207380D01*
X141690476Y-88397857D02*
X141738095Y-88350238D01*
X141738095Y-88350238D02*
X141833333Y-88302619D01*
X141833333Y-88302619D02*
X142071428Y-88302619D01*
X142071428Y-88302619D02*
X142166666Y-88350238D01*
X142166666Y-88350238D02*
X142214285Y-88397857D01*
X142214285Y-88397857D02*
X142261904Y-88493095D01*
X142261904Y-88493095D02*
X142261904Y-88588333D01*
X142261904Y-88588333D02*
X142214285Y-88731190D01*
X142214285Y-88731190D02*
X141642857Y-89302619D01*
X141642857Y-89302619D02*
X142261904Y-89302619D01*
X141985714Y-125517619D02*
X141414286Y-125517619D01*
X141700000Y-125517619D02*
X141700000Y-124517619D01*
X141700000Y-124517619D02*
X141604762Y-124660476D01*
X141604762Y-124660476D02*
X141509524Y-124755714D01*
X141509524Y-124755714D02*
X141414286Y-124803333D01*
G04 #@! TO.C,SW4*
X210366667Y-116455000D02*
X210509524Y-116502619D01*
X210509524Y-116502619D02*
X210747619Y-116502619D01*
X210747619Y-116502619D02*
X210842857Y-116455000D01*
X210842857Y-116455000D02*
X210890476Y-116407380D01*
X210890476Y-116407380D02*
X210938095Y-116312142D01*
X210938095Y-116312142D02*
X210938095Y-116216904D01*
X210938095Y-116216904D02*
X210890476Y-116121666D01*
X210890476Y-116121666D02*
X210842857Y-116074047D01*
X210842857Y-116074047D02*
X210747619Y-116026428D01*
X210747619Y-116026428D02*
X210557143Y-115978809D01*
X210557143Y-115978809D02*
X210461905Y-115931190D01*
X210461905Y-115931190D02*
X210414286Y-115883571D01*
X210414286Y-115883571D02*
X210366667Y-115788333D01*
X210366667Y-115788333D02*
X210366667Y-115693095D01*
X210366667Y-115693095D02*
X210414286Y-115597857D01*
X210414286Y-115597857D02*
X210461905Y-115550238D01*
X210461905Y-115550238D02*
X210557143Y-115502619D01*
X210557143Y-115502619D02*
X210795238Y-115502619D01*
X210795238Y-115502619D02*
X210938095Y-115550238D01*
X211271429Y-115502619D02*
X211509524Y-116502619D01*
X211509524Y-116502619D02*
X211700000Y-115788333D01*
X211700000Y-115788333D02*
X211890476Y-116502619D01*
X211890476Y-116502619D02*
X212128572Y-115502619D01*
X212938095Y-115835952D02*
X212938095Y-116502619D01*
X212700000Y-115455000D02*
X212461905Y-116169285D01*
X212461905Y-116169285D02*
X213080952Y-116169285D01*
X216467380Y-123621429D02*
X216515000Y-123669048D01*
X216515000Y-123669048D02*
X216562619Y-123811905D01*
X216562619Y-123811905D02*
X216562619Y-123907143D01*
X216562619Y-123907143D02*
X216515000Y-124050000D01*
X216515000Y-124050000D02*
X216419761Y-124145238D01*
X216419761Y-124145238D02*
X216324523Y-124192857D01*
X216324523Y-124192857D02*
X216134047Y-124240476D01*
X216134047Y-124240476D02*
X215991190Y-124240476D01*
X215991190Y-124240476D02*
X215800714Y-124192857D01*
X215800714Y-124192857D02*
X215705476Y-124145238D01*
X215705476Y-124145238D02*
X215610238Y-124050000D01*
X215610238Y-124050000D02*
X215562619Y-123907143D01*
X215562619Y-123907143D02*
X215562619Y-123811905D01*
X215562619Y-123811905D02*
X215610238Y-123669048D01*
X215610238Y-123669048D02*
X215657857Y-123621429D01*
X216562619Y-123050000D02*
X216515000Y-123145238D01*
X216515000Y-123145238D02*
X216467380Y-123192857D01*
X216467380Y-123192857D02*
X216372142Y-123240476D01*
X216372142Y-123240476D02*
X216086428Y-123240476D01*
X216086428Y-123240476D02*
X215991190Y-123192857D01*
X215991190Y-123192857D02*
X215943571Y-123145238D01*
X215943571Y-123145238D02*
X215895952Y-123050000D01*
X215895952Y-123050000D02*
X215895952Y-122907143D01*
X215895952Y-122907143D02*
X215943571Y-122811905D01*
X215943571Y-122811905D02*
X215991190Y-122764286D01*
X215991190Y-122764286D02*
X216086428Y-122716667D01*
X216086428Y-122716667D02*
X216372142Y-122716667D01*
X216372142Y-122716667D02*
X216467380Y-122764286D01*
X216467380Y-122764286D02*
X216515000Y-122811905D01*
X216515000Y-122811905D02*
X216562619Y-122907143D01*
X216562619Y-122907143D02*
X216562619Y-123050000D01*
X215895952Y-121859524D02*
X216562619Y-121859524D01*
X215895952Y-122288095D02*
X216419761Y-122288095D01*
X216419761Y-122288095D02*
X216515000Y-122240476D01*
X216515000Y-122240476D02*
X216562619Y-122145238D01*
X216562619Y-122145238D02*
X216562619Y-122002381D01*
X216562619Y-122002381D02*
X216515000Y-121907143D01*
X216515000Y-121907143D02*
X216467380Y-121859524D01*
X215895952Y-121383333D02*
X216562619Y-121383333D01*
X215991190Y-121383333D02*
X215943571Y-121335714D01*
X215943571Y-121335714D02*
X215895952Y-121240476D01*
X215895952Y-121240476D02*
X215895952Y-121097619D01*
X215895952Y-121097619D02*
X215943571Y-121002381D01*
X215943571Y-121002381D02*
X216038809Y-120954762D01*
X216038809Y-120954762D02*
X216562619Y-120954762D01*
X215895952Y-120621428D02*
X215895952Y-120240476D01*
X215562619Y-120478571D02*
X216419761Y-120478571D01*
X216419761Y-120478571D02*
X216515000Y-120430952D01*
X216515000Y-120430952D02*
X216562619Y-120335714D01*
X216562619Y-120335714D02*
X216562619Y-120240476D01*
X216515000Y-119526190D02*
X216562619Y-119621428D01*
X216562619Y-119621428D02*
X216562619Y-119811904D01*
X216562619Y-119811904D02*
X216515000Y-119907142D01*
X216515000Y-119907142D02*
X216419761Y-119954761D01*
X216419761Y-119954761D02*
X216038809Y-119954761D01*
X216038809Y-119954761D02*
X215943571Y-119907142D01*
X215943571Y-119907142D02*
X215895952Y-119811904D01*
X215895952Y-119811904D02*
X215895952Y-119621428D01*
X215895952Y-119621428D02*
X215943571Y-119526190D01*
X215943571Y-119526190D02*
X216038809Y-119478571D01*
X216038809Y-119478571D02*
X216134047Y-119478571D01*
X216134047Y-119478571D02*
X216229285Y-119954761D01*
X216562619Y-119049999D02*
X215895952Y-119049999D01*
X216086428Y-119049999D02*
X215991190Y-119002380D01*
X215991190Y-119002380D02*
X215943571Y-118954761D01*
X215943571Y-118954761D02*
X215895952Y-118859523D01*
X215895952Y-118859523D02*
X215895952Y-118764285D01*
X217817380Y-124433333D02*
X217865000Y-124480952D01*
X217865000Y-124480952D02*
X217912619Y-124623809D01*
X217912619Y-124623809D02*
X217912619Y-124719047D01*
X217912619Y-124719047D02*
X217865000Y-124861904D01*
X217865000Y-124861904D02*
X217769761Y-124957142D01*
X217769761Y-124957142D02*
X217674523Y-125004761D01*
X217674523Y-125004761D02*
X217484047Y-125052380D01*
X217484047Y-125052380D02*
X217341190Y-125052380D01*
X217341190Y-125052380D02*
X217150714Y-125004761D01*
X217150714Y-125004761D02*
X217055476Y-124957142D01*
X217055476Y-124957142D02*
X216960238Y-124861904D01*
X216960238Y-124861904D02*
X216912619Y-124719047D01*
X216912619Y-124719047D02*
X216912619Y-124623809D01*
X216912619Y-124623809D02*
X216960238Y-124480952D01*
X216960238Y-124480952D02*
X217007857Y-124433333D01*
X217912619Y-123861904D02*
X217865000Y-123957142D01*
X217865000Y-123957142D02*
X217769761Y-124004761D01*
X217769761Y-124004761D02*
X216912619Y-124004761D01*
X217912619Y-123338094D02*
X217865000Y-123433332D01*
X217865000Y-123433332D02*
X217817380Y-123480951D01*
X217817380Y-123480951D02*
X217722142Y-123528570D01*
X217722142Y-123528570D02*
X217436428Y-123528570D01*
X217436428Y-123528570D02*
X217341190Y-123480951D01*
X217341190Y-123480951D02*
X217293571Y-123433332D01*
X217293571Y-123433332D02*
X217245952Y-123338094D01*
X217245952Y-123338094D02*
X217245952Y-123195237D01*
X217245952Y-123195237D02*
X217293571Y-123099999D01*
X217293571Y-123099999D02*
X217341190Y-123052380D01*
X217341190Y-123052380D02*
X217436428Y-123004761D01*
X217436428Y-123004761D02*
X217722142Y-123004761D01*
X217722142Y-123004761D02*
X217817380Y-123052380D01*
X217817380Y-123052380D02*
X217865000Y-123099999D01*
X217865000Y-123099999D02*
X217912619Y-123195237D01*
X217912619Y-123195237D02*
X217912619Y-123338094D01*
X217865000Y-122147618D02*
X217912619Y-122242856D01*
X217912619Y-122242856D02*
X217912619Y-122433332D01*
X217912619Y-122433332D02*
X217865000Y-122528570D01*
X217865000Y-122528570D02*
X217817380Y-122576189D01*
X217817380Y-122576189D02*
X217722142Y-122623808D01*
X217722142Y-122623808D02*
X217436428Y-122623808D01*
X217436428Y-122623808D02*
X217341190Y-122576189D01*
X217341190Y-122576189D02*
X217293571Y-122528570D01*
X217293571Y-122528570D02*
X217245952Y-122433332D01*
X217245952Y-122433332D02*
X217245952Y-122242856D01*
X217245952Y-122242856D02*
X217293571Y-122147618D01*
X217912619Y-121719046D02*
X216912619Y-121719046D01*
X217531666Y-121623808D02*
X217912619Y-121338094D01*
X217245952Y-121338094D02*
X217626904Y-121719046D01*
X217245952Y-121004760D02*
X217912619Y-120814284D01*
X217912619Y-120814284D02*
X217436428Y-120623808D01*
X217436428Y-120623808D02*
X217912619Y-120433332D01*
X217912619Y-120433332D02*
X217245952Y-120242856D01*
X217912619Y-119861903D02*
X217245952Y-119861903D01*
X216912619Y-119861903D02*
X216960238Y-119909522D01*
X216960238Y-119909522D02*
X217007857Y-119861903D01*
X217007857Y-119861903D02*
X216960238Y-119814284D01*
X216960238Y-119814284D02*
X216912619Y-119861903D01*
X216912619Y-119861903D02*
X217007857Y-119861903D01*
X217865000Y-119433332D02*
X217912619Y-119338094D01*
X217912619Y-119338094D02*
X217912619Y-119147618D01*
X217912619Y-119147618D02*
X217865000Y-119052380D01*
X217865000Y-119052380D02*
X217769761Y-119004761D01*
X217769761Y-119004761D02*
X217722142Y-119004761D01*
X217722142Y-119004761D02*
X217626904Y-119052380D01*
X217626904Y-119052380D02*
X217579285Y-119147618D01*
X217579285Y-119147618D02*
X217579285Y-119290475D01*
X217579285Y-119290475D02*
X217531666Y-119385713D01*
X217531666Y-119385713D02*
X217436428Y-119433332D01*
X217436428Y-119433332D02*
X217388809Y-119433332D01*
X217388809Y-119433332D02*
X217293571Y-119385713D01*
X217293571Y-119385713D02*
X217245952Y-119290475D01*
X217245952Y-119290475D02*
X217245952Y-119147618D01*
X217245952Y-119147618D02*
X217293571Y-119052380D01*
X217865000Y-118195237D02*
X217912619Y-118290475D01*
X217912619Y-118290475D02*
X217912619Y-118480951D01*
X217912619Y-118480951D02*
X217865000Y-118576189D01*
X217865000Y-118576189D02*
X217769761Y-118623808D01*
X217769761Y-118623808D02*
X217388809Y-118623808D01*
X217388809Y-118623808D02*
X217293571Y-118576189D01*
X217293571Y-118576189D02*
X217245952Y-118480951D01*
X217245952Y-118480951D02*
X217245952Y-118290475D01*
X217245952Y-118290475D02*
X217293571Y-118195237D01*
X217293571Y-118195237D02*
X217388809Y-118147618D01*
X217388809Y-118147618D02*
X217484047Y-118147618D01*
X217484047Y-118147618D02*
X217579285Y-118623808D01*
G04 #@! TO.C,R5*
X150433333Y-107712619D02*
X150100000Y-107236428D01*
X149861905Y-107712619D02*
X149861905Y-106712619D01*
X149861905Y-106712619D02*
X150242857Y-106712619D01*
X150242857Y-106712619D02*
X150338095Y-106760238D01*
X150338095Y-106760238D02*
X150385714Y-106807857D01*
X150385714Y-106807857D02*
X150433333Y-106903095D01*
X150433333Y-106903095D02*
X150433333Y-107045952D01*
X150433333Y-107045952D02*
X150385714Y-107141190D01*
X150385714Y-107141190D02*
X150338095Y-107188809D01*
X150338095Y-107188809D02*
X150242857Y-107236428D01*
X150242857Y-107236428D02*
X149861905Y-107236428D01*
X151338095Y-106712619D02*
X150861905Y-106712619D01*
X150861905Y-106712619D02*
X150814286Y-107188809D01*
X150814286Y-107188809D02*
X150861905Y-107141190D01*
X150861905Y-107141190D02*
X150957143Y-107093571D01*
X150957143Y-107093571D02*
X151195238Y-107093571D01*
X151195238Y-107093571D02*
X151290476Y-107141190D01*
X151290476Y-107141190D02*
X151338095Y-107188809D01*
X151338095Y-107188809D02*
X151385714Y-107284047D01*
X151385714Y-107284047D02*
X151385714Y-107522142D01*
X151385714Y-107522142D02*
X151338095Y-107617380D01*
X151338095Y-107617380D02*
X151290476Y-107665000D01*
X151290476Y-107665000D02*
X151195238Y-107712619D01*
X151195238Y-107712619D02*
X150957143Y-107712619D01*
X150957143Y-107712619D02*
X150861905Y-107665000D01*
X150861905Y-107665000D02*
X150814286Y-107617380D01*
X150058333Y-109287619D02*
X149486905Y-109287619D01*
X149772619Y-109287619D02*
X149772619Y-108287619D01*
X149772619Y-108287619D02*
X149677381Y-108430476D01*
X149677381Y-108430476D02*
X149582143Y-108525714D01*
X149582143Y-108525714D02*
X149486905Y-108573333D01*
X151010714Y-109287619D02*
X150439286Y-109287619D01*
X150725000Y-109287619D02*
X150725000Y-108287619D01*
X150725000Y-108287619D02*
X150629762Y-108430476D01*
X150629762Y-108430476D02*
X150534524Y-108525714D01*
X150534524Y-108525714D02*
X150439286Y-108573333D01*
X151629762Y-108287619D02*
X151725000Y-108287619D01*
X151725000Y-108287619D02*
X151820238Y-108335238D01*
X151820238Y-108335238D02*
X151867857Y-108382857D01*
X151867857Y-108382857D02*
X151915476Y-108478095D01*
X151915476Y-108478095D02*
X151963095Y-108668571D01*
X151963095Y-108668571D02*
X151963095Y-108906666D01*
X151963095Y-108906666D02*
X151915476Y-109097142D01*
X151915476Y-109097142D02*
X151867857Y-109192380D01*
X151867857Y-109192380D02*
X151820238Y-109240000D01*
X151820238Y-109240000D02*
X151725000Y-109287619D01*
X151725000Y-109287619D02*
X151629762Y-109287619D01*
X151629762Y-109287619D02*
X151534524Y-109240000D01*
X151534524Y-109240000D02*
X151486905Y-109192380D01*
X151486905Y-109192380D02*
X151439286Y-109097142D01*
X151439286Y-109097142D02*
X151391667Y-108906666D01*
X151391667Y-108906666D02*
X151391667Y-108668571D01*
X151391667Y-108668571D02*
X151439286Y-108478095D01*
X151439286Y-108478095D02*
X151486905Y-108382857D01*
X151486905Y-108382857D02*
X151534524Y-108335238D01*
X151534524Y-108335238D02*
X151629762Y-108287619D01*
G04 #@! TO.C,BZ4*
X116838809Y-73565952D02*
X116886428Y-73423095D01*
X116886428Y-73423095D02*
X116934047Y-73375476D01*
X116934047Y-73375476D02*
X117029285Y-73327857D01*
X117029285Y-73327857D02*
X117172142Y-73327857D01*
X117172142Y-73327857D02*
X117267380Y-73375476D01*
X117267380Y-73375476D02*
X117315000Y-73423095D01*
X117315000Y-73423095D02*
X117362619Y-73518333D01*
X117362619Y-73518333D02*
X117362619Y-73899285D01*
X117362619Y-73899285D02*
X116362619Y-73899285D01*
X116362619Y-73899285D02*
X116362619Y-73565952D01*
X116362619Y-73565952D02*
X116410238Y-73470714D01*
X116410238Y-73470714D02*
X116457857Y-73423095D01*
X116457857Y-73423095D02*
X116553095Y-73375476D01*
X116553095Y-73375476D02*
X116648333Y-73375476D01*
X116648333Y-73375476D02*
X116743571Y-73423095D01*
X116743571Y-73423095D02*
X116791190Y-73470714D01*
X116791190Y-73470714D02*
X116838809Y-73565952D01*
X116838809Y-73565952D02*
X116838809Y-73899285D01*
X116362619Y-72994523D02*
X116362619Y-72327857D01*
X116362619Y-72327857D02*
X117362619Y-72994523D01*
X117362619Y-72994523D02*
X117362619Y-72327857D01*
X116695952Y-71518333D02*
X117362619Y-71518333D01*
X116315000Y-71756428D02*
X117029285Y-71994523D01*
X117029285Y-71994523D02*
X117029285Y-71375476D01*
G04 #@! TO.C,SW7*
X199176667Y-107985000D02*
X199319524Y-108032619D01*
X199319524Y-108032619D02*
X199557619Y-108032619D01*
X199557619Y-108032619D02*
X199652857Y-107985000D01*
X199652857Y-107985000D02*
X199700476Y-107937380D01*
X199700476Y-107937380D02*
X199748095Y-107842142D01*
X199748095Y-107842142D02*
X199748095Y-107746904D01*
X199748095Y-107746904D02*
X199700476Y-107651666D01*
X199700476Y-107651666D02*
X199652857Y-107604047D01*
X199652857Y-107604047D02*
X199557619Y-107556428D01*
X199557619Y-107556428D02*
X199367143Y-107508809D01*
X199367143Y-107508809D02*
X199271905Y-107461190D01*
X199271905Y-107461190D02*
X199224286Y-107413571D01*
X199224286Y-107413571D02*
X199176667Y-107318333D01*
X199176667Y-107318333D02*
X199176667Y-107223095D01*
X199176667Y-107223095D02*
X199224286Y-107127857D01*
X199224286Y-107127857D02*
X199271905Y-107080238D01*
X199271905Y-107080238D02*
X199367143Y-107032619D01*
X199367143Y-107032619D02*
X199605238Y-107032619D01*
X199605238Y-107032619D02*
X199748095Y-107080238D01*
X200081429Y-107032619D02*
X200319524Y-108032619D01*
X200319524Y-108032619D02*
X200510000Y-107318333D01*
X200510000Y-107318333D02*
X200700476Y-108032619D01*
X200700476Y-108032619D02*
X200938572Y-107032619D01*
X201224286Y-107032619D02*
X201890952Y-107032619D01*
X201890952Y-107032619D02*
X201462381Y-108032619D01*
X196312619Y-117007142D02*
X195312619Y-117007142D01*
X195788809Y-117007142D02*
X195788809Y-116435714D01*
X196312619Y-116435714D02*
X195312619Y-116435714D01*
X196312619Y-115816666D02*
X196265000Y-115911904D01*
X196265000Y-115911904D02*
X196217380Y-115959523D01*
X196217380Y-115959523D02*
X196122142Y-116007142D01*
X196122142Y-116007142D02*
X195836428Y-116007142D01*
X195836428Y-116007142D02*
X195741190Y-115959523D01*
X195741190Y-115959523D02*
X195693571Y-115911904D01*
X195693571Y-115911904D02*
X195645952Y-115816666D01*
X195645952Y-115816666D02*
X195645952Y-115673809D01*
X195645952Y-115673809D02*
X195693571Y-115578571D01*
X195693571Y-115578571D02*
X195741190Y-115530952D01*
X195741190Y-115530952D02*
X195836428Y-115483333D01*
X195836428Y-115483333D02*
X196122142Y-115483333D01*
X196122142Y-115483333D02*
X196217380Y-115530952D01*
X196217380Y-115530952D02*
X196265000Y-115578571D01*
X196265000Y-115578571D02*
X196312619Y-115673809D01*
X196312619Y-115673809D02*
X196312619Y-115816666D01*
X196312619Y-114911904D02*
X196265000Y-115007142D01*
X196265000Y-115007142D02*
X196169761Y-115054761D01*
X196169761Y-115054761D02*
X195312619Y-115054761D01*
X196312619Y-114102380D02*
X195312619Y-114102380D01*
X196265000Y-114102380D02*
X196312619Y-114197618D01*
X196312619Y-114197618D02*
X196312619Y-114388094D01*
X196312619Y-114388094D02*
X196265000Y-114483332D01*
X196265000Y-114483332D02*
X196217380Y-114530951D01*
X196217380Y-114530951D02*
X196122142Y-114578570D01*
X196122142Y-114578570D02*
X195836428Y-114578570D01*
X195836428Y-114578570D02*
X195741190Y-114530951D01*
X195741190Y-114530951D02*
X195693571Y-114483332D01*
X195693571Y-114483332D02*
X195645952Y-114388094D01*
X195645952Y-114388094D02*
X195645952Y-114197618D01*
X195645952Y-114197618D02*
X195693571Y-114102380D01*
X196312619Y-112864284D02*
X195312619Y-112864284D01*
X195312619Y-112864284D02*
X195312619Y-112483332D01*
X195312619Y-112483332D02*
X195360238Y-112388094D01*
X195360238Y-112388094D02*
X195407857Y-112340475D01*
X195407857Y-112340475D02*
X195503095Y-112292856D01*
X195503095Y-112292856D02*
X195645952Y-112292856D01*
X195645952Y-112292856D02*
X195741190Y-112340475D01*
X195741190Y-112340475D02*
X195788809Y-112388094D01*
X195788809Y-112388094D02*
X195836428Y-112483332D01*
X195836428Y-112483332D02*
X195836428Y-112864284D01*
X196312619Y-111864284D02*
X195645952Y-111864284D01*
X195312619Y-111864284D02*
X195360238Y-111911903D01*
X195360238Y-111911903D02*
X195407857Y-111864284D01*
X195407857Y-111864284D02*
X195360238Y-111816665D01*
X195360238Y-111816665D02*
X195312619Y-111864284D01*
X195312619Y-111864284D02*
X195407857Y-111864284D01*
X196265000Y-111007142D02*
X196312619Y-111102380D01*
X196312619Y-111102380D02*
X196312619Y-111292856D01*
X196312619Y-111292856D02*
X196265000Y-111388094D01*
X196265000Y-111388094D02*
X196169761Y-111435713D01*
X196169761Y-111435713D02*
X195788809Y-111435713D01*
X195788809Y-111435713D02*
X195693571Y-111388094D01*
X195693571Y-111388094D02*
X195645952Y-111292856D01*
X195645952Y-111292856D02*
X195645952Y-111102380D01*
X195645952Y-111102380D02*
X195693571Y-111007142D01*
X195693571Y-111007142D02*
X195788809Y-110959523D01*
X195788809Y-110959523D02*
X195884047Y-110959523D01*
X195884047Y-110959523D02*
X195979285Y-111435713D01*
X196265000Y-110102380D02*
X196312619Y-110197618D01*
X196312619Y-110197618D02*
X196312619Y-110388094D01*
X196312619Y-110388094D02*
X196265000Y-110483332D01*
X196265000Y-110483332D02*
X196217380Y-110530951D01*
X196217380Y-110530951D02*
X196122142Y-110578570D01*
X196122142Y-110578570D02*
X195836428Y-110578570D01*
X195836428Y-110578570D02*
X195741190Y-110530951D01*
X195741190Y-110530951D02*
X195693571Y-110483332D01*
X195693571Y-110483332D02*
X195645952Y-110388094D01*
X195645952Y-110388094D02*
X195645952Y-110197618D01*
X195645952Y-110197618D02*
X195693571Y-110102380D01*
X196265000Y-109292856D02*
X196312619Y-109388094D01*
X196312619Y-109388094D02*
X196312619Y-109578570D01*
X196312619Y-109578570D02*
X196265000Y-109673808D01*
X196265000Y-109673808D02*
X196169761Y-109721427D01*
X196169761Y-109721427D02*
X195788809Y-109721427D01*
X195788809Y-109721427D02*
X195693571Y-109673808D01*
X195693571Y-109673808D02*
X195645952Y-109578570D01*
X195645952Y-109578570D02*
X195645952Y-109388094D01*
X195645952Y-109388094D02*
X195693571Y-109292856D01*
X195693571Y-109292856D02*
X195788809Y-109245237D01*
X195788809Y-109245237D02*
X195884047Y-109245237D01*
X195884047Y-109245237D02*
X195979285Y-109721427D01*
G04 #@! TO.C,M2*
X95543476Y-86402619D02*
X95543476Y-85402619D01*
X95543476Y-85402619D02*
X95876809Y-86116904D01*
X95876809Y-86116904D02*
X96210142Y-85402619D01*
X96210142Y-85402619D02*
X96210142Y-86402619D01*
X96638714Y-85497857D02*
X96686333Y-85450238D01*
X96686333Y-85450238D02*
X96781571Y-85402619D01*
X96781571Y-85402619D02*
X97019666Y-85402619D01*
X97019666Y-85402619D02*
X97114904Y-85450238D01*
X97114904Y-85450238D02*
X97162523Y-85497857D01*
X97162523Y-85497857D02*
X97210142Y-85593095D01*
X97210142Y-85593095D02*
X97210142Y-85688333D01*
X97210142Y-85688333D02*
X97162523Y-85831190D01*
X97162523Y-85831190D02*
X96591095Y-86402619D01*
X96591095Y-86402619D02*
X97210142Y-86402619D01*
X92690476Y-88402619D02*
X93309523Y-88402619D01*
X93309523Y-88402619D02*
X92976190Y-88783571D01*
X92976190Y-88783571D02*
X93119047Y-88783571D01*
X93119047Y-88783571D02*
X93214285Y-88831190D01*
X93214285Y-88831190D02*
X93261904Y-88878809D01*
X93261904Y-88878809D02*
X93309523Y-88974047D01*
X93309523Y-88974047D02*
X93309523Y-89212142D01*
X93309523Y-89212142D02*
X93261904Y-89307380D01*
X93261904Y-89307380D02*
X93214285Y-89355000D01*
X93214285Y-89355000D02*
X93119047Y-89402619D01*
X93119047Y-89402619D02*
X92833333Y-89402619D01*
X92833333Y-89402619D02*
X92738095Y-89355000D01*
X92738095Y-89355000D02*
X92690476Y-89307380D01*
X93690476Y-88497857D02*
X93738095Y-88450238D01*
X93738095Y-88450238D02*
X93833333Y-88402619D01*
X93833333Y-88402619D02*
X94071428Y-88402619D01*
X94071428Y-88402619D02*
X94166666Y-88450238D01*
X94166666Y-88450238D02*
X94214285Y-88497857D01*
X94214285Y-88497857D02*
X94261904Y-88593095D01*
X94261904Y-88593095D02*
X94261904Y-88688333D01*
X94261904Y-88688333D02*
X94214285Y-88831190D01*
X94214285Y-88831190D02*
X93642857Y-89402619D01*
X93642857Y-89402619D02*
X94261904Y-89402619D01*
X94085714Y-125517619D02*
X93514286Y-125517619D01*
X93800000Y-125517619D02*
X93800000Y-124517619D01*
X93800000Y-124517619D02*
X93704762Y-124660476D01*
X93704762Y-124660476D02*
X93609524Y-124755714D01*
X93609524Y-124755714D02*
X93514286Y-124803333D01*
G04 #@! TO.C,BZ3*
X134213809Y-73805952D02*
X134261428Y-73663095D01*
X134261428Y-73663095D02*
X134309047Y-73615476D01*
X134309047Y-73615476D02*
X134404285Y-73567857D01*
X134404285Y-73567857D02*
X134547142Y-73567857D01*
X134547142Y-73567857D02*
X134642380Y-73615476D01*
X134642380Y-73615476D02*
X134690000Y-73663095D01*
X134690000Y-73663095D02*
X134737619Y-73758333D01*
X134737619Y-73758333D02*
X134737619Y-74139285D01*
X134737619Y-74139285D02*
X133737619Y-74139285D01*
X133737619Y-74139285D02*
X133737619Y-73805952D01*
X133737619Y-73805952D02*
X133785238Y-73710714D01*
X133785238Y-73710714D02*
X133832857Y-73663095D01*
X133832857Y-73663095D02*
X133928095Y-73615476D01*
X133928095Y-73615476D02*
X134023333Y-73615476D01*
X134023333Y-73615476D02*
X134118571Y-73663095D01*
X134118571Y-73663095D02*
X134166190Y-73710714D01*
X134166190Y-73710714D02*
X134213809Y-73805952D01*
X134213809Y-73805952D02*
X134213809Y-74139285D01*
X133737619Y-73234523D02*
X133737619Y-72567857D01*
X133737619Y-72567857D02*
X134737619Y-73234523D01*
X134737619Y-73234523D02*
X134737619Y-72567857D01*
X133737619Y-72282142D02*
X133737619Y-71663095D01*
X133737619Y-71663095D02*
X134118571Y-71996428D01*
X134118571Y-71996428D02*
X134118571Y-71853571D01*
X134118571Y-71853571D02*
X134166190Y-71758333D01*
X134166190Y-71758333D02*
X134213809Y-71710714D01*
X134213809Y-71710714D02*
X134309047Y-71663095D01*
X134309047Y-71663095D02*
X134547142Y-71663095D01*
X134547142Y-71663095D02*
X134642380Y-71710714D01*
X134642380Y-71710714D02*
X134690000Y-71758333D01*
X134690000Y-71758333D02*
X134737619Y-71853571D01*
X134737619Y-71853571D02*
X134737619Y-72139285D01*
X134737619Y-72139285D02*
X134690000Y-72234523D01*
X134690000Y-72234523D02*
X134642380Y-72282142D01*
G04 #@! TO.C,BZ1*
X164038809Y-73330952D02*
X164086428Y-73188095D01*
X164086428Y-73188095D02*
X164134047Y-73140476D01*
X164134047Y-73140476D02*
X164229285Y-73092857D01*
X164229285Y-73092857D02*
X164372142Y-73092857D01*
X164372142Y-73092857D02*
X164467380Y-73140476D01*
X164467380Y-73140476D02*
X164515000Y-73188095D01*
X164515000Y-73188095D02*
X164562619Y-73283333D01*
X164562619Y-73283333D02*
X164562619Y-73664285D01*
X164562619Y-73664285D02*
X163562619Y-73664285D01*
X163562619Y-73664285D02*
X163562619Y-73330952D01*
X163562619Y-73330952D02*
X163610238Y-73235714D01*
X163610238Y-73235714D02*
X163657857Y-73188095D01*
X163657857Y-73188095D02*
X163753095Y-73140476D01*
X163753095Y-73140476D02*
X163848333Y-73140476D01*
X163848333Y-73140476D02*
X163943571Y-73188095D01*
X163943571Y-73188095D02*
X163991190Y-73235714D01*
X163991190Y-73235714D02*
X164038809Y-73330952D01*
X164038809Y-73330952D02*
X164038809Y-73664285D01*
X163562619Y-72759523D02*
X163562619Y-72092857D01*
X163562619Y-72092857D02*
X164562619Y-72759523D01*
X164562619Y-72759523D02*
X164562619Y-72092857D01*
X164562619Y-71188095D02*
X164562619Y-71759523D01*
X164562619Y-71473809D02*
X163562619Y-71473809D01*
X163562619Y-71473809D02*
X163705476Y-71569047D01*
X163705476Y-71569047D02*
X163800714Y-71664285D01*
X163800714Y-71664285D02*
X163848333Y-71759523D01*
G04 #@! TO.C,R11*
X127960142Y-107427619D02*
X127626809Y-106951428D01*
X127388714Y-107427619D02*
X127388714Y-106427619D01*
X127388714Y-106427619D02*
X127769666Y-106427619D01*
X127769666Y-106427619D02*
X127864904Y-106475238D01*
X127864904Y-106475238D02*
X127912523Y-106522857D01*
X127912523Y-106522857D02*
X127960142Y-106618095D01*
X127960142Y-106618095D02*
X127960142Y-106760952D01*
X127960142Y-106760952D02*
X127912523Y-106856190D01*
X127912523Y-106856190D02*
X127864904Y-106903809D01*
X127864904Y-106903809D02*
X127769666Y-106951428D01*
X127769666Y-106951428D02*
X127388714Y-106951428D01*
X128912523Y-107427619D02*
X128341095Y-107427619D01*
X128626809Y-107427619D02*
X128626809Y-106427619D01*
X128626809Y-106427619D02*
X128531571Y-106570476D01*
X128531571Y-106570476D02*
X128436333Y-106665714D01*
X128436333Y-106665714D02*
X128341095Y-106713333D01*
X129864904Y-107427619D02*
X129293476Y-107427619D01*
X129579190Y-107427619D02*
X129579190Y-106427619D01*
X129579190Y-106427619D02*
X129483952Y-106570476D01*
X129483952Y-106570476D02*
X129388714Y-106665714D01*
X129388714Y-106665714D02*
X129293476Y-106713333D01*
X127858333Y-109037619D02*
X127286905Y-109037619D01*
X127572619Y-109037619D02*
X127572619Y-108037619D01*
X127572619Y-108037619D02*
X127477381Y-108180476D01*
X127477381Y-108180476D02*
X127382143Y-108275714D01*
X127382143Y-108275714D02*
X127286905Y-108323333D01*
X128810714Y-109037619D02*
X128239286Y-109037619D01*
X128525000Y-109037619D02*
X128525000Y-108037619D01*
X128525000Y-108037619D02*
X128429762Y-108180476D01*
X128429762Y-108180476D02*
X128334524Y-108275714D01*
X128334524Y-108275714D02*
X128239286Y-108323333D01*
X129429762Y-108037619D02*
X129525000Y-108037619D01*
X129525000Y-108037619D02*
X129620238Y-108085238D01*
X129620238Y-108085238D02*
X129667857Y-108132857D01*
X129667857Y-108132857D02*
X129715476Y-108228095D01*
X129715476Y-108228095D02*
X129763095Y-108418571D01*
X129763095Y-108418571D02*
X129763095Y-108656666D01*
X129763095Y-108656666D02*
X129715476Y-108847142D01*
X129715476Y-108847142D02*
X129667857Y-108942380D01*
X129667857Y-108942380D02*
X129620238Y-108990000D01*
X129620238Y-108990000D02*
X129525000Y-109037619D01*
X129525000Y-109037619D02*
X129429762Y-109037619D01*
X129429762Y-109037619D02*
X129334524Y-108990000D01*
X129334524Y-108990000D02*
X129286905Y-108942380D01*
X129286905Y-108942380D02*
X129239286Y-108847142D01*
X129239286Y-108847142D02*
X129191667Y-108656666D01*
X129191667Y-108656666D02*
X129191667Y-108418571D01*
X129191667Y-108418571D02*
X129239286Y-108228095D01*
X129239286Y-108228095D02*
X129286905Y-108132857D01*
X129286905Y-108132857D02*
X129334524Y-108085238D01*
X129334524Y-108085238D02*
X129429762Y-108037619D01*
G04 #@! TO.C,R12*
X124860142Y-107427619D02*
X124526809Y-106951428D01*
X124288714Y-107427619D02*
X124288714Y-106427619D01*
X124288714Y-106427619D02*
X124669666Y-106427619D01*
X124669666Y-106427619D02*
X124764904Y-106475238D01*
X124764904Y-106475238D02*
X124812523Y-106522857D01*
X124812523Y-106522857D02*
X124860142Y-106618095D01*
X124860142Y-106618095D02*
X124860142Y-106760952D01*
X124860142Y-106760952D02*
X124812523Y-106856190D01*
X124812523Y-106856190D02*
X124764904Y-106903809D01*
X124764904Y-106903809D02*
X124669666Y-106951428D01*
X124669666Y-106951428D02*
X124288714Y-106951428D01*
X125812523Y-107427619D02*
X125241095Y-107427619D01*
X125526809Y-107427619D02*
X125526809Y-106427619D01*
X125526809Y-106427619D02*
X125431571Y-106570476D01*
X125431571Y-106570476D02*
X125336333Y-106665714D01*
X125336333Y-106665714D02*
X125241095Y-106713333D01*
X126193476Y-106522857D02*
X126241095Y-106475238D01*
X126241095Y-106475238D02*
X126336333Y-106427619D01*
X126336333Y-106427619D02*
X126574428Y-106427619D01*
X126574428Y-106427619D02*
X126669666Y-106475238D01*
X126669666Y-106475238D02*
X126717285Y-106522857D01*
X126717285Y-106522857D02*
X126764904Y-106618095D01*
X126764904Y-106618095D02*
X126764904Y-106713333D01*
X126764904Y-106713333D02*
X126717285Y-106856190D01*
X126717285Y-106856190D02*
X126145857Y-107427619D01*
X126145857Y-107427619D02*
X126764904Y-107427619D01*
X124758333Y-109037619D02*
X124186905Y-109037619D01*
X124472619Y-109037619D02*
X124472619Y-108037619D01*
X124472619Y-108037619D02*
X124377381Y-108180476D01*
X124377381Y-108180476D02*
X124282143Y-108275714D01*
X124282143Y-108275714D02*
X124186905Y-108323333D01*
X125710714Y-109037619D02*
X125139286Y-109037619D01*
X125425000Y-109037619D02*
X125425000Y-108037619D01*
X125425000Y-108037619D02*
X125329762Y-108180476D01*
X125329762Y-108180476D02*
X125234524Y-108275714D01*
X125234524Y-108275714D02*
X125139286Y-108323333D01*
X126329762Y-108037619D02*
X126425000Y-108037619D01*
X126425000Y-108037619D02*
X126520238Y-108085238D01*
X126520238Y-108085238D02*
X126567857Y-108132857D01*
X126567857Y-108132857D02*
X126615476Y-108228095D01*
X126615476Y-108228095D02*
X126663095Y-108418571D01*
X126663095Y-108418571D02*
X126663095Y-108656666D01*
X126663095Y-108656666D02*
X126615476Y-108847142D01*
X126615476Y-108847142D02*
X126567857Y-108942380D01*
X126567857Y-108942380D02*
X126520238Y-108990000D01*
X126520238Y-108990000D02*
X126425000Y-109037619D01*
X126425000Y-109037619D02*
X126329762Y-109037619D01*
X126329762Y-109037619D02*
X126234524Y-108990000D01*
X126234524Y-108990000D02*
X126186905Y-108942380D01*
X126186905Y-108942380D02*
X126139286Y-108847142D01*
X126139286Y-108847142D02*
X126091667Y-108656666D01*
X126091667Y-108656666D02*
X126091667Y-108418571D01*
X126091667Y-108418571D02*
X126139286Y-108228095D01*
X126139286Y-108228095D02*
X126186905Y-108132857D01*
X126186905Y-108132857D02*
X126234524Y-108085238D01*
X126234524Y-108085238D02*
X126329762Y-108037619D01*
G04 #@! TO.C,U1*
X99163095Y-117587619D02*
X99163095Y-118397142D01*
X99163095Y-118397142D02*
X99210714Y-118492380D01*
X99210714Y-118492380D02*
X99258333Y-118540000D01*
X99258333Y-118540000D02*
X99353571Y-118587619D01*
X99353571Y-118587619D02*
X99544047Y-118587619D01*
X99544047Y-118587619D02*
X99639285Y-118540000D01*
X99639285Y-118540000D02*
X99686904Y-118492380D01*
X99686904Y-118492380D02*
X99734523Y-118397142D01*
X99734523Y-118397142D02*
X99734523Y-117587619D01*
X100734523Y-118587619D02*
X100163095Y-118587619D01*
X100448809Y-118587619D02*
X100448809Y-117587619D01*
X100448809Y-117587619D02*
X100353571Y-117730476D01*
X100353571Y-117730476D02*
X100258333Y-117825714D01*
X100258333Y-117825714D02*
X100163095Y-117873333D01*
X113263095Y-117637619D02*
X113929761Y-117637619D01*
X113929761Y-117637619D02*
X113501190Y-118637619D01*
X114739285Y-117970952D02*
X114739285Y-118637619D01*
X114501190Y-117590000D02*
X114263095Y-118304285D01*
X114263095Y-118304285D02*
X114882142Y-118304285D01*
X115263095Y-118637619D02*
X115263095Y-117637619D01*
X115263095Y-118113809D02*
X115834523Y-118113809D01*
X115834523Y-118637619D02*
X115834523Y-117637619D01*
X116882142Y-118542380D02*
X116834523Y-118590000D01*
X116834523Y-118590000D02*
X116691666Y-118637619D01*
X116691666Y-118637619D02*
X116596428Y-118637619D01*
X116596428Y-118637619D02*
X116453571Y-118590000D01*
X116453571Y-118590000D02*
X116358333Y-118494761D01*
X116358333Y-118494761D02*
X116310714Y-118399523D01*
X116310714Y-118399523D02*
X116263095Y-118209047D01*
X116263095Y-118209047D02*
X116263095Y-118066190D01*
X116263095Y-118066190D02*
X116310714Y-117875714D01*
X116310714Y-117875714D02*
X116358333Y-117780476D01*
X116358333Y-117780476D02*
X116453571Y-117685238D01*
X116453571Y-117685238D02*
X116596428Y-117637619D01*
X116596428Y-117637619D02*
X116691666Y-117637619D01*
X116691666Y-117637619D02*
X116834523Y-117685238D01*
X116834523Y-117685238D02*
X116882142Y-117732857D01*
X117786904Y-117637619D02*
X117310714Y-117637619D01*
X117310714Y-117637619D02*
X117263095Y-118113809D01*
X117263095Y-118113809D02*
X117310714Y-118066190D01*
X117310714Y-118066190D02*
X117405952Y-118018571D01*
X117405952Y-118018571D02*
X117644047Y-118018571D01*
X117644047Y-118018571D02*
X117739285Y-118066190D01*
X117739285Y-118066190D02*
X117786904Y-118113809D01*
X117786904Y-118113809D02*
X117834523Y-118209047D01*
X117834523Y-118209047D02*
X117834523Y-118447142D01*
X117834523Y-118447142D02*
X117786904Y-118542380D01*
X117786904Y-118542380D02*
X117739285Y-118590000D01*
X117739285Y-118590000D02*
X117644047Y-118637619D01*
X117644047Y-118637619D02*
X117405952Y-118637619D01*
X117405952Y-118637619D02*
X117310714Y-118590000D01*
X117310714Y-118590000D02*
X117263095Y-118542380D01*
X118310714Y-118637619D02*
X118501190Y-118637619D01*
X118501190Y-118637619D02*
X118596428Y-118590000D01*
X118596428Y-118590000D02*
X118644047Y-118542380D01*
X118644047Y-118542380D02*
X118739285Y-118399523D01*
X118739285Y-118399523D02*
X118786904Y-118209047D01*
X118786904Y-118209047D02*
X118786904Y-117828095D01*
X118786904Y-117828095D02*
X118739285Y-117732857D01*
X118739285Y-117732857D02*
X118691666Y-117685238D01*
X118691666Y-117685238D02*
X118596428Y-117637619D01*
X118596428Y-117637619D02*
X118405952Y-117637619D01*
X118405952Y-117637619D02*
X118310714Y-117685238D01*
X118310714Y-117685238D02*
X118263095Y-117732857D01*
X118263095Y-117732857D02*
X118215476Y-117828095D01*
X118215476Y-117828095D02*
X118215476Y-118066190D01*
X118215476Y-118066190D02*
X118263095Y-118161428D01*
X118263095Y-118161428D02*
X118310714Y-118209047D01*
X118310714Y-118209047D02*
X118405952Y-118256666D01*
X118405952Y-118256666D02*
X118596428Y-118256666D01*
X118596428Y-118256666D02*
X118691666Y-118209047D01*
X118691666Y-118209047D02*
X118739285Y-118161428D01*
X118739285Y-118161428D02*
X118786904Y-118066190D01*
X119691666Y-117637619D02*
X119215476Y-117637619D01*
X119215476Y-117637619D02*
X119167857Y-118113809D01*
X119167857Y-118113809D02*
X119215476Y-118066190D01*
X119215476Y-118066190D02*
X119310714Y-118018571D01*
X119310714Y-118018571D02*
X119548809Y-118018571D01*
X119548809Y-118018571D02*
X119644047Y-118066190D01*
X119644047Y-118066190D02*
X119691666Y-118113809D01*
X119691666Y-118113809D02*
X119739285Y-118209047D01*
X119739285Y-118209047D02*
X119739285Y-118447142D01*
X119739285Y-118447142D02*
X119691666Y-118542380D01*
X119691666Y-118542380D02*
X119644047Y-118590000D01*
X119644047Y-118590000D02*
X119548809Y-118637619D01*
X119548809Y-118637619D02*
X119310714Y-118637619D01*
X119310714Y-118637619D02*
X119215476Y-118590000D01*
X119215476Y-118590000D02*
X119167857Y-118542380D01*
G04 #@! TO.C,R1*
X182433333Y-107637619D02*
X182100000Y-107161428D01*
X181861905Y-107637619D02*
X181861905Y-106637619D01*
X181861905Y-106637619D02*
X182242857Y-106637619D01*
X182242857Y-106637619D02*
X182338095Y-106685238D01*
X182338095Y-106685238D02*
X182385714Y-106732857D01*
X182385714Y-106732857D02*
X182433333Y-106828095D01*
X182433333Y-106828095D02*
X182433333Y-106970952D01*
X182433333Y-106970952D02*
X182385714Y-107066190D01*
X182385714Y-107066190D02*
X182338095Y-107113809D01*
X182338095Y-107113809D02*
X182242857Y-107161428D01*
X182242857Y-107161428D02*
X181861905Y-107161428D01*
X183385714Y-107637619D02*
X182814286Y-107637619D01*
X183100000Y-107637619D02*
X183100000Y-106637619D01*
X183100000Y-106637619D02*
X183004762Y-106780476D01*
X183004762Y-106780476D02*
X182909524Y-106875714D01*
X182909524Y-106875714D02*
X182814286Y-106923333D01*
X181933333Y-109137619D02*
X181361905Y-109137619D01*
X181647619Y-109137619D02*
X181647619Y-108137619D01*
X181647619Y-108137619D02*
X181552381Y-108280476D01*
X181552381Y-108280476D02*
X181457143Y-108375714D01*
X181457143Y-108375714D02*
X181361905Y-108423333D01*
X182885714Y-109137619D02*
X182314286Y-109137619D01*
X182600000Y-109137619D02*
X182600000Y-108137619D01*
X182600000Y-108137619D02*
X182504762Y-108280476D01*
X182504762Y-108280476D02*
X182409524Y-108375714D01*
X182409524Y-108375714D02*
X182314286Y-108423333D01*
X183504762Y-108137619D02*
X183600000Y-108137619D01*
X183600000Y-108137619D02*
X183695238Y-108185238D01*
X183695238Y-108185238D02*
X183742857Y-108232857D01*
X183742857Y-108232857D02*
X183790476Y-108328095D01*
X183790476Y-108328095D02*
X183838095Y-108518571D01*
X183838095Y-108518571D02*
X183838095Y-108756666D01*
X183838095Y-108756666D02*
X183790476Y-108947142D01*
X183790476Y-108947142D02*
X183742857Y-109042380D01*
X183742857Y-109042380D02*
X183695238Y-109090000D01*
X183695238Y-109090000D02*
X183600000Y-109137619D01*
X183600000Y-109137619D02*
X183504762Y-109137619D01*
X183504762Y-109137619D02*
X183409524Y-109090000D01*
X183409524Y-109090000D02*
X183361905Y-109042380D01*
X183361905Y-109042380D02*
X183314286Y-108947142D01*
X183314286Y-108947142D02*
X183266667Y-108756666D01*
X183266667Y-108756666D02*
X183266667Y-108518571D01*
X183266667Y-108518571D02*
X183314286Y-108328095D01*
X183314286Y-108328095D02*
X183361905Y-108232857D01*
X183361905Y-108232857D02*
X183409524Y-108185238D01*
X183409524Y-108185238D02*
X183504762Y-108137619D01*
G04 #@! TO.C,R16*
X95257142Y-104537619D02*
X94923809Y-104061428D01*
X94685714Y-104537619D02*
X94685714Y-103537619D01*
X94685714Y-103537619D02*
X95066666Y-103537619D01*
X95066666Y-103537619D02*
X95161904Y-103585238D01*
X95161904Y-103585238D02*
X95209523Y-103632857D01*
X95209523Y-103632857D02*
X95257142Y-103728095D01*
X95257142Y-103728095D02*
X95257142Y-103870952D01*
X95257142Y-103870952D02*
X95209523Y-103966190D01*
X95209523Y-103966190D02*
X95161904Y-104013809D01*
X95161904Y-104013809D02*
X95066666Y-104061428D01*
X95066666Y-104061428D02*
X94685714Y-104061428D01*
X96209523Y-104537619D02*
X95638095Y-104537619D01*
X95923809Y-104537619D02*
X95923809Y-103537619D01*
X95923809Y-103537619D02*
X95828571Y-103680476D01*
X95828571Y-103680476D02*
X95733333Y-103775714D01*
X95733333Y-103775714D02*
X95638095Y-103823333D01*
X97066666Y-103537619D02*
X96876190Y-103537619D01*
X96876190Y-103537619D02*
X96780952Y-103585238D01*
X96780952Y-103585238D02*
X96733333Y-103632857D01*
X96733333Y-103632857D02*
X96638095Y-103775714D01*
X96638095Y-103775714D02*
X96590476Y-103966190D01*
X96590476Y-103966190D02*
X96590476Y-104347142D01*
X96590476Y-104347142D02*
X96638095Y-104442380D01*
X96638095Y-104442380D02*
X96685714Y-104490000D01*
X96685714Y-104490000D02*
X96780952Y-104537619D01*
X96780952Y-104537619D02*
X96971428Y-104537619D01*
X96971428Y-104537619D02*
X97066666Y-104490000D01*
X97066666Y-104490000D02*
X97114285Y-104442380D01*
X97114285Y-104442380D02*
X97161904Y-104347142D01*
X97161904Y-104347142D02*
X97161904Y-104109047D01*
X97161904Y-104109047D02*
X97114285Y-104013809D01*
X97114285Y-104013809D02*
X97066666Y-103966190D01*
X97066666Y-103966190D02*
X96971428Y-103918571D01*
X96971428Y-103918571D02*
X96780952Y-103918571D01*
X96780952Y-103918571D02*
X96685714Y-103966190D01*
X96685714Y-103966190D02*
X96638095Y-104013809D01*
X96638095Y-104013809D02*
X96590476Y-104109047D01*
X95058333Y-106162619D02*
X94486905Y-106162619D01*
X94772619Y-106162619D02*
X94772619Y-105162619D01*
X94772619Y-105162619D02*
X94677381Y-105305476D01*
X94677381Y-105305476D02*
X94582143Y-105400714D01*
X94582143Y-105400714D02*
X94486905Y-105448333D01*
X96010714Y-106162619D02*
X95439286Y-106162619D01*
X95725000Y-106162619D02*
X95725000Y-105162619D01*
X95725000Y-105162619D02*
X95629762Y-105305476D01*
X95629762Y-105305476D02*
X95534524Y-105400714D01*
X95534524Y-105400714D02*
X95439286Y-105448333D01*
X96629762Y-105162619D02*
X96725000Y-105162619D01*
X96725000Y-105162619D02*
X96820238Y-105210238D01*
X96820238Y-105210238D02*
X96867857Y-105257857D01*
X96867857Y-105257857D02*
X96915476Y-105353095D01*
X96915476Y-105353095D02*
X96963095Y-105543571D01*
X96963095Y-105543571D02*
X96963095Y-105781666D01*
X96963095Y-105781666D02*
X96915476Y-105972142D01*
X96915476Y-105972142D02*
X96867857Y-106067380D01*
X96867857Y-106067380D02*
X96820238Y-106115000D01*
X96820238Y-106115000D02*
X96725000Y-106162619D01*
X96725000Y-106162619D02*
X96629762Y-106162619D01*
X96629762Y-106162619D02*
X96534524Y-106115000D01*
X96534524Y-106115000D02*
X96486905Y-106067380D01*
X96486905Y-106067380D02*
X96439286Y-105972142D01*
X96439286Y-105972142D02*
X96391667Y-105781666D01*
X96391667Y-105781666D02*
X96391667Y-105543571D01*
X96391667Y-105543571D02*
X96439286Y-105353095D01*
X96439286Y-105353095D02*
X96486905Y-105257857D01*
X96486905Y-105257857D02*
X96534524Y-105210238D01*
X96534524Y-105210238D02*
X96629762Y-105162619D01*
G04 #@! TO.C,R9*
X134636333Y-107452619D02*
X134303000Y-106976428D01*
X134064905Y-107452619D02*
X134064905Y-106452619D01*
X134064905Y-106452619D02*
X134445857Y-106452619D01*
X134445857Y-106452619D02*
X134541095Y-106500238D01*
X134541095Y-106500238D02*
X134588714Y-106547857D01*
X134588714Y-106547857D02*
X134636333Y-106643095D01*
X134636333Y-106643095D02*
X134636333Y-106785952D01*
X134636333Y-106785952D02*
X134588714Y-106881190D01*
X134588714Y-106881190D02*
X134541095Y-106928809D01*
X134541095Y-106928809D02*
X134445857Y-106976428D01*
X134445857Y-106976428D02*
X134064905Y-106976428D01*
X135112524Y-107452619D02*
X135303000Y-107452619D01*
X135303000Y-107452619D02*
X135398238Y-107405000D01*
X135398238Y-107405000D02*
X135445857Y-107357380D01*
X135445857Y-107357380D02*
X135541095Y-107214523D01*
X135541095Y-107214523D02*
X135588714Y-107024047D01*
X135588714Y-107024047D02*
X135588714Y-106643095D01*
X135588714Y-106643095D02*
X135541095Y-106547857D01*
X135541095Y-106547857D02*
X135493476Y-106500238D01*
X135493476Y-106500238D02*
X135398238Y-106452619D01*
X135398238Y-106452619D02*
X135207762Y-106452619D01*
X135207762Y-106452619D02*
X135112524Y-106500238D01*
X135112524Y-106500238D02*
X135064905Y-106547857D01*
X135064905Y-106547857D02*
X135017286Y-106643095D01*
X135017286Y-106643095D02*
X135017286Y-106881190D01*
X135017286Y-106881190D02*
X135064905Y-106976428D01*
X135064905Y-106976428D02*
X135112524Y-107024047D01*
X135112524Y-107024047D02*
X135207762Y-107071666D01*
X135207762Y-107071666D02*
X135398238Y-107071666D01*
X135398238Y-107071666D02*
X135493476Y-107024047D01*
X135493476Y-107024047D02*
X135541095Y-106976428D01*
X135541095Y-106976428D02*
X135588714Y-106881190D01*
X134058333Y-109062619D02*
X133486905Y-109062619D01*
X133772619Y-109062619D02*
X133772619Y-108062619D01*
X133772619Y-108062619D02*
X133677381Y-108205476D01*
X133677381Y-108205476D02*
X133582143Y-108300714D01*
X133582143Y-108300714D02*
X133486905Y-108348333D01*
X135010714Y-109062619D02*
X134439286Y-109062619D01*
X134725000Y-109062619D02*
X134725000Y-108062619D01*
X134725000Y-108062619D02*
X134629762Y-108205476D01*
X134629762Y-108205476D02*
X134534524Y-108300714D01*
X134534524Y-108300714D02*
X134439286Y-108348333D01*
X135629762Y-108062619D02*
X135725000Y-108062619D01*
X135725000Y-108062619D02*
X135820238Y-108110238D01*
X135820238Y-108110238D02*
X135867857Y-108157857D01*
X135867857Y-108157857D02*
X135915476Y-108253095D01*
X135915476Y-108253095D02*
X135963095Y-108443571D01*
X135963095Y-108443571D02*
X135963095Y-108681666D01*
X135963095Y-108681666D02*
X135915476Y-108872142D01*
X135915476Y-108872142D02*
X135867857Y-108967380D01*
X135867857Y-108967380D02*
X135820238Y-109015000D01*
X135820238Y-109015000D02*
X135725000Y-109062619D01*
X135725000Y-109062619D02*
X135629762Y-109062619D01*
X135629762Y-109062619D02*
X135534524Y-109015000D01*
X135534524Y-109015000D02*
X135486905Y-108967380D01*
X135486905Y-108967380D02*
X135439286Y-108872142D01*
X135439286Y-108872142D02*
X135391667Y-108681666D01*
X135391667Y-108681666D02*
X135391667Y-108443571D01*
X135391667Y-108443571D02*
X135439286Y-108253095D01*
X135439286Y-108253095D02*
X135486905Y-108157857D01*
X135486905Y-108157857D02*
X135534524Y-108110238D01*
X135534524Y-108110238D02*
X135629762Y-108062619D01*
G04 #@! TO.C,R10*
X131060142Y-107452619D02*
X130726809Y-106976428D01*
X130488714Y-107452619D02*
X130488714Y-106452619D01*
X130488714Y-106452619D02*
X130869666Y-106452619D01*
X130869666Y-106452619D02*
X130964904Y-106500238D01*
X130964904Y-106500238D02*
X131012523Y-106547857D01*
X131012523Y-106547857D02*
X131060142Y-106643095D01*
X131060142Y-106643095D02*
X131060142Y-106785952D01*
X131060142Y-106785952D02*
X131012523Y-106881190D01*
X131012523Y-106881190D02*
X130964904Y-106928809D01*
X130964904Y-106928809D02*
X130869666Y-106976428D01*
X130869666Y-106976428D02*
X130488714Y-106976428D01*
X132012523Y-107452619D02*
X131441095Y-107452619D01*
X131726809Y-107452619D02*
X131726809Y-106452619D01*
X131726809Y-106452619D02*
X131631571Y-106595476D01*
X131631571Y-106595476D02*
X131536333Y-106690714D01*
X131536333Y-106690714D02*
X131441095Y-106738333D01*
X132631571Y-106452619D02*
X132726809Y-106452619D01*
X132726809Y-106452619D02*
X132822047Y-106500238D01*
X132822047Y-106500238D02*
X132869666Y-106547857D01*
X132869666Y-106547857D02*
X132917285Y-106643095D01*
X132917285Y-106643095D02*
X132964904Y-106833571D01*
X132964904Y-106833571D02*
X132964904Y-107071666D01*
X132964904Y-107071666D02*
X132917285Y-107262142D01*
X132917285Y-107262142D02*
X132869666Y-107357380D01*
X132869666Y-107357380D02*
X132822047Y-107405000D01*
X132822047Y-107405000D02*
X132726809Y-107452619D01*
X132726809Y-107452619D02*
X132631571Y-107452619D01*
X132631571Y-107452619D02*
X132536333Y-107405000D01*
X132536333Y-107405000D02*
X132488714Y-107357380D01*
X132488714Y-107357380D02*
X132441095Y-107262142D01*
X132441095Y-107262142D02*
X132393476Y-107071666D01*
X132393476Y-107071666D02*
X132393476Y-106833571D01*
X132393476Y-106833571D02*
X132441095Y-106643095D01*
X132441095Y-106643095D02*
X132488714Y-106547857D01*
X132488714Y-106547857D02*
X132536333Y-106500238D01*
X132536333Y-106500238D02*
X132631571Y-106452619D01*
X130958333Y-109062619D02*
X130386905Y-109062619D01*
X130672619Y-109062619D02*
X130672619Y-108062619D01*
X130672619Y-108062619D02*
X130577381Y-108205476D01*
X130577381Y-108205476D02*
X130482143Y-108300714D01*
X130482143Y-108300714D02*
X130386905Y-108348333D01*
X131910714Y-109062619D02*
X131339286Y-109062619D01*
X131625000Y-109062619D02*
X131625000Y-108062619D01*
X131625000Y-108062619D02*
X131529762Y-108205476D01*
X131529762Y-108205476D02*
X131434524Y-108300714D01*
X131434524Y-108300714D02*
X131339286Y-108348333D01*
X132529762Y-108062619D02*
X132625000Y-108062619D01*
X132625000Y-108062619D02*
X132720238Y-108110238D01*
X132720238Y-108110238D02*
X132767857Y-108157857D01*
X132767857Y-108157857D02*
X132815476Y-108253095D01*
X132815476Y-108253095D02*
X132863095Y-108443571D01*
X132863095Y-108443571D02*
X132863095Y-108681666D01*
X132863095Y-108681666D02*
X132815476Y-108872142D01*
X132815476Y-108872142D02*
X132767857Y-108967380D01*
X132767857Y-108967380D02*
X132720238Y-109015000D01*
X132720238Y-109015000D02*
X132625000Y-109062619D01*
X132625000Y-109062619D02*
X132529762Y-109062619D01*
X132529762Y-109062619D02*
X132434524Y-109015000D01*
X132434524Y-109015000D02*
X132386905Y-108967380D01*
X132386905Y-108967380D02*
X132339286Y-108872142D01*
X132339286Y-108872142D02*
X132291667Y-108681666D01*
X132291667Y-108681666D02*
X132291667Y-108443571D01*
X132291667Y-108443571D02*
X132339286Y-108253095D01*
X132339286Y-108253095D02*
X132386905Y-108157857D01*
X132386905Y-108157857D02*
X132434524Y-108110238D01*
X132434524Y-108110238D02*
X132529762Y-108062619D01*
G04 #@! TO.C,R7*
X144433333Y-107762619D02*
X144100000Y-107286428D01*
X143861905Y-107762619D02*
X143861905Y-106762619D01*
X143861905Y-106762619D02*
X144242857Y-106762619D01*
X144242857Y-106762619D02*
X144338095Y-106810238D01*
X144338095Y-106810238D02*
X144385714Y-106857857D01*
X144385714Y-106857857D02*
X144433333Y-106953095D01*
X144433333Y-106953095D02*
X144433333Y-107095952D01*
X144433333Y-107095952D02*
X144385714Y-107191190D01*
X144385714Y-107191190D02*
X144338095Y-107238809D01*
X144338095Y-107238809D02*
X144242857Y-107286428D01*
X144242857Y-107286428D02*
X143861905Y-107286428D01*
X144766667Y-106762619D02*
X145433333Y-106762619D01*
X145433333Y-106762619D02*
X145004762Y-107762619D01*
X143933333Y-109362619D02*
X143361905Y-109362619D01*
X143647619Y-109362619D02*
X143647619Y-108362619D01*
X143647619Y-108362619D02*
X143552381Y-108505476D01*
X143552381Y-108505476D02*
X143457143Y-108600714D01*
X143457143Y-108600714D02*
X143361905Y-108648333D01*
X144885714Y-109362619D02*
X144314286Y-109362619D01*
X144600000Y-109362619D02*
X144600000Y-108362619D01*
X144600000Y-108362619D02*
X144504762Y-108505476D01*
X144504762Y-108505476D02*
X144409524Y-108600714D01*
X144409524Y-108600714D02*
X144314286Y-108648333D01*
X145504762Y-108362619D02*
X145600000Y-108362619D01*
X145600000Y-108362619D02*
X145695238Y-108410238D01*
X145695238Y-108410238D02*
X145742857Y-108457857D01*
X145742857Y-108457857D02*
X145790476Y-108553095D01*
X145790476Y-108553095D02*
X145838095Y-108743571D01*
X145838095Y-108743571D02*
X145838095Y-108981666D01*
X145838095Y-108981666D02*
X145790476Y-109172142D01*
X145790476Y-109172142D02*
X145742857Y-109267380D01*
X145742857Y-109267380D02*
X145695238Y-109315000D01*
X145695238Y-109315000D02*
X145600000Y-109362619D01*
X145600000Y-109362619D02*
X145504762Y-109362619D01*
X145504762Y-109362619D02*
X145409524Y-109315000D01*
X145409524Y-109315000D02*
X145361905Y-109267380D01*
X145361905Y-109267380D02*
X145314286Y-109172142D01*
X145314286Y-109172142D02*
X145266667Y-108981666D01*
X145266667Y-108981666D02*
X145266667Y-108743571D01*
X145266667Y-108743571D02*
X145314286Y-108553095D01*
X145314286Y-108553095D02*
X145361905Y-108457857D01*
X145361905Y-108457857D02*
X145409524Y-108410238D01*
X145409524Y-108410238D02*
X145504762Y-108362619D01*
G04 #@! TO.C,R6*
X153783333Y-107762619D02*
X153450000Y-107286428D01*
X153211905Y-107762619D02*
X153211905Y-106762619D01*
X153211905Y-106762619D02*
X153592857Y-106762619D01*
X153592857Y-106762619D02*
X153688095Y-106810238D01*
X153688095Y-106810238D02*
X153735714Y-106857857D01*
X153735714Y-106857857D02*
X153783333Y-106953095D01*
X153783333Y-106953095D02*
X153783333Y-107095952D01*
X153783333Y-107095952D02*
X153735714Y-107191190D01*
X153735714Y-107191190D02*
X153688095Y-107238809D01*
X153688095Y-107238809D02*
X153592857Y-107286428D01*
X153592857Y-107286428D02*
X153211905Y-107286428D01*
X154640476Y-106762619D02*
X154450000Y-106762619D01*
X154450000Y-106762619D02*
X154354762Y-106810238D01*
X154354762Y-106810238D02*
X154307143Y-106857857D01*
X154307143Y-106857857D02*
X154211905Y-107000714D01*
X154211905Y-107000714D02*
X154164286Y-107191190D01*
X154164286Y-107191190D02*
X154164286Y-107572142D01*
X154164286Y-107572142D02*
X154211905Y-107667380D01*
X154211905Y-107667380D02*
X154259524Y-107715000D01*
X154259524Y-107715000D02*
X154354762Y-107762619D01*
X154354762Y-107762619D02*
X154545238Y-107762619D01*
X154545238Y-107762619D02*
X154640476Y-107715000D01*
X154640476Y-107715000D02*
X154688095Y-107667380D01*
X154688095Y-107667380D02*
X154735714Y-107572142D01*
X154735714Y-107572142D02*
X154735714Y-107334047D01*
X154735714Y-107334047D02*
X154688095Y-107238809D01*
X154688095Y-107238809D02*
X154640476Y-107191190D01*
X154640476Y-107191190D02*
X154545238Y-107143571D01*
X154545238Y-107143571D02*
X154354762Y-107143571D01*
X154354762Y-107143571D02*
X154259524Y-107191190D01*
X154259524Y-107191190D02*
X154211905Y-107238809D01*
X154211905Y-107238809D02*
X154164286Y-107334047D01*
X153333333Y-109312619D02*
X152761905Y-109312619D01*
X153047619Y-109312619D02*
X153047619Y-108312619D01*
X153047619Y-108312619D02*
X152952381Y-108455476D01*
X152952381Y-108455476D02*
X152857143Y-108550714D01*
X152857143Y-108550714D02*
X152761905Y-108598333D01*
X154285714Y-109312619D02*
X153714286Y-109312619D01*
X154000000Y-109312619D02*
X154000000Y-108312619D01*
X154000000Y-108312619D02*
X153904762Y-108455476D01*
X153904762Y-108455476D02*
X153809524Y-108550714D01*
X153809524Y-108550714D02*
X153714286Y-108598333D01*
X154904762Y-108312619D02*
X155000000Y-108312619D01*
X155000000Y-108312619D02*
X155095238Y-108360238D01*
X155095238Y-108360238D02*
X155142857Y-108407857D01*
X155142857Y-108407857D02*
X155190476Y-108503095D01*
X155190476Y-108503095D02*
X155238095Y-108693571D01*
X155238095Y-108693571D02*
X155238095Y-108931666D01*
X155238095Y-108931666D02*
X155190476Y-109122142D01*
X155190476Y-109122142D02*
X155142857Y-109217380D01*
X155142857Y-109217380D02*
X155095238Y-109265000D01*
X155095238Y-109265000D02*
X155000000Y-109312619D01*
X155000000Y-109312619D02*
X154904762Y-109312619D01*
X154904762Y-109312619D02*
X154809524Y-109265000D01*
X154809524Y-109265000D02*
X154761905Y-109217380D01*
X154761905Y-109217380D02*
X154714286Y-109122142D01*
X154714286Y-109122142D02*
X154666667Y-108931666D01*
X154666667Y-108931666D02*
X154666667Y-108693571D01*
X154666667Y-108693571D02*
X154714286Y-108503095D01*
X154714286Y-108503095D02*
X154761905Y-108407857D01*
X154761905Y-108407857D02*
X154809524Y-108360238D01*
X154809524Y-108360238D02*
X154904762Y-108312619D01*
G04 #@! TO.C,SW2*
X210116667Y-91565000D02*
X210259524Y-91612619D01*
X210259524Y-91612619D02*
X210497619Y-91612619D01*
X210497619Y-91612619D02*
X210592857Y-91565000D01*
X210592857Y-91565000D02*
X210640476Y-91517380D01*
X210640476Y-91517380D02*
X210688095Y-91422142D01*
X210688095Y-91422142D02*
X210688095Y-91326904D01*
X210688095Y-91326904D02*
X210640476Y-91231666D01*
X210640476Y-91231666D02*
X210592857Y-91184047D01*
X210592857Y-91184047D02*
X210497619Y-91136428D01*
X210497619Y-91136428D02*
X210307143Y-91088809D01*
X210307143Y-91088809D02*
X210211905Y-91041190D01*
X210211905Y-91041190D02*
X210164286Y-90993571D01*
X210164286Y-90993571D02*
X210116667Y-90898333D01*
X210116667Y-90898333D02*
X210116667Y-90803095D01*
X210116667Y-90803095D02*
X210164286Y-90707857D01*
X210164286Y-90707857D02*
X210211905Y-90660238D01*
X210211905Y-90660238D02*
X210307143Y-90612619D01*
X210307143Y-90612619D02*
X210545238Y-90612619D01*
X210545238Y-90612619D02*
X210688095Y-90660238D01*
X211021429Y-90612619D02*
X211259524Y-91612619D01*
X211259524Y-91612619D02*
X211450000Y-90898333D01*
X211450000Y-90898333D02*
X211640476Y-91612619D01*
X211640476Y-91612619D02*
X211878572Y-90612619D01*
X212211905Y-90707857D02*
X212259524Y-90660238D01*
X212259524Y-90660238D02*
X212354762Y-90612619D01*
X212354762Y-90612619D02*
X212592857Y-90612619D01*
X212592857Y-90612619D02*
X212688095Y-90660238D01*
X212688095Y-90660238D02*
X212735714Y-90707857D01*
X212735714Y-90707857D02*
X212783333Y-90803095D01*
X212783333Y-90803095D02*
X212783333Y-90898333D01*
X212783333Y-90898333D02*
X212735714Y-91041190D01*
X212735714Y-91041190D02*
X212164286Y-91612619D01*
X212164286Y-91612619D02*
X212783333Y-91612619D01*
X216862619Y-97590476D02*
X216862619Y-98066666D01*
X216862619Y-98066666D02*
X215862619Y-98066666D01*
X216815000Y-96876190D02*
X216862619Y-96971428D01*
X216862619Y-96971428D02*
X216862619Y-97161904D01*
X216862619Y-97161904D02*
X216815000Y-97257142D01*
X216815000Y-97257142D02*
X216719761Y-97304761D01*
X216719761Y-97304761D02*
X216338809Y-97304761D01*
X216338809Y-97304761D02*
X216243571Y-97257142D01*
X216243571Y-97257142D02*
X216195952Y-97161904D01*
X216195952Y-97161904D02*
X216195952Y-96971428D01*
X216195952Y-96971428D02*
X216243571Y-96876190D01*
X216243571Y-96876190D02*
X216338809Y-96828571D01*
X216338809Y-96828571D02*
X216434047Y-96828571D01*
X216434047Y-96828571D02*
X216529285Y-97304761D01*
X216195952Y-96542856D02*
X216195952Y-96161904D01*
X216862619Y-96399999D02*
X216005476Y-96399999D01*
X216005476Y-96399999D02*
X215910238Y-96352380D01*
X215910238Y-96352380D02*
X215862619Y-96257142D01*
X215862619Y-96257142D02*
X215862619Y-96161904D01*
X216195952Y-95971427D02*
X216195952Y-95590475D01*
X215862619Y-95828570D02*
X216719761Y-95828570D01*
X216719761Y-95828570D02*
X216815000Y-95780951D01*
X216815000Y-95780951D02*
X216862619Y-95685713D01*
X216862619Y-95685713D02*
X216862619Y-95590475D01*
G04 #@! TO.C,BZ2*
X149238809Y-73730952D02*
X149286428Y-73588095D01*
X149286428Y-73588095D02*
X149334047Y-73540476D01*
X149334047Y-73540476D02*
X149429285Y-73492857D01*
X149429285Y-73492857D02*
X149572142Y-73492857D01*
X149572142Y-73492857D02*
X149667380Y-73540476D01*
X149667380Y-73540476D02*
X149715000Y-73588095D01*
X149715000Y-73588095D02*
X149762619Y-73683333D01*
X149762619Y-73683333D02*
X149762619Y-74064285D01*
X149762619Y-74064285D02*
X148762619Y-74064285D01*
X148762619Y-74064285D02*
X148762619Y-73730952D01*
X148762619Y-73730952D02*
X148810238Y-73635714D01*
X148810238Y-73635714D02*
X148857857Y-73588095D01*
X148857857Y-73588095D02*
X148953095Y-73540476D01*
X148953095Y-73540476D02*
X149048333Y-73540476D01*
X149048333Y-73540476D02*
X149143571Y-73588095D01*
X149143571Y-73588095D02*
X149191190Y-73635714D01*
X149191190Y-73635714D02*
X149238809Y-73730952D01*
X149238809Y-73730952D02*
X149238809Y-74064285D01*
X148762619Y-73159523D02*
X148762619Y-72492857D01*
X148762619Y-72492857D02*
X149762619Y-73159523D01*
X149762619Y-73159523D02*
X149762619Y-72492857D01*
X148857857Y-72159523D02*
X148810238Y-72111904D01*
X148810238Y-72111904D02*
X148762619Y-72016666D01*
X148762619Y-72016666D02*
X148762619Y-71778571D01*
X148762619Y-71778571D02*
X148810238Y-71683333D01*
X148810238Y-71683333D02*
X148857857Y-71635714D01*
X148857857Y-71635714D02*
X148953095Y-71588095D01*
X148953095Y-71588095D02*
X149048333Y-71588095D01*
X149048333Y-71588095D02*
X149191190Y-71635714D01*
X149191190Y-71635714D02*
X149762619Y-72207142D01*
X149762619Y-72207142D02*
X149762619Y-71588095D01*
G04 #@! TO.C,SW1*
X209836667Y-80515000D02*
X209979524Y-80562619D01*
X209979524Y-80562619D02*
X210217619Y-80562619D01*
X210217619Y-80562619D02*
X210312857Y-80515000D01*
X210312857Y-80515000D02*
X210360476Y-80467380D01*
X210360476Y-80467380D02*
X210408095Y-80372142D01*
X210408095Y-80372142D02*
X210408095Y-80276904D01*
X210408095Y-80276904D02*
X210360476Y-80181666D01*
X210360476Y-80181666D02*
X210312857Y-80134047D01*
X210312857Y-80134047D02*
X210217619Y-80086428D01*
X210217619Y-80086428D02*
X210027143Y-80038809D01*
X210027143Y-80038809D02*
X209931905Y-79991190D01*
X209931905Y-79991190D02*
X209884286Y-79943571D01*
X209884286Y-79943571D02*
X209836667Y-79848333D01*
X209836667Y-79848333D02*
X209836667Y-79753095D01*
X209836667Y-79753095D02*
X209884286Y-79657857D01*
X209884286Y-79657857D02*
X209931905Y-79610238D01*
X209931905Y-79610238D02*
X210027143Y-79562619D01*
X210027143Y-79562619D02*
X210265238Y-79562619D01*
X210265238Y-79562619D02*
X210408095Y-79610238D01*
X210741429Y-79562619D02*
X210979524Y-80562619D01*
X210979524Y-80562619D02*
X211170000Y-79848333D01*
X211170000Y-79848333D02*
X211360476Y-80562619D01*
X211360476Y-80562619D02*
X211598572Y-79562619D01*
X212503333Y-80562619D02*
X211931905Y-80562619D01*
X212217619Y-80562619D02*
X212217619Y-79562619D01*
X212217619Y-79562619D02*
X212122381Y-79705476D01*
X212122381Y-79705476D02*
X212027143Y-79800714D01*
X212027143Y-79800714D02*
X211931905Y-79848333D01*
X216862619Y-86819047D02*
X216386428Y-87152380D01*
X216862619Y-87390475D02*
X215862619Y-87390475D01*
X215862619Y-87390475D02*
X215862619Y-87009523D01*
X215862619Y-87009523D02*
X215910238Y-86914285D01*
X215910238Y-86914285D02*
X215957857Y-86866666D01*
X215957857Y-86866666D02*
X216053095Y-86819047D01*
X216053095Y-86819047D02*
X216195952Y-86819047D01*
X216195952Y-86819047D02*
X216291190Y-86866666D01*
X216291190Y-86866666D02*
X216338809Y-86914285D01*
X216338809Y-86914285D02*
X216386428Y-87009523D01*
X216386428Y-87009523D02*
X216386428Y-87390475D01*
X216862619Y-86390475D02*
X216195952Y-86390475D01*
X215862619Y-86390475D02*
X215910238Y-86438094D01*
X215910238Y-86438094D02*
X215957857Y-86390475D01*
X215957857Y-86390475D02*
X215910238Y-86342856D01*
X215910238Y-86342856D02*
X215862619Y-86390475D01*
X215862619Y-86390475D02*
X215957857Y-86390475D01*
X216195952Y-85485714D02*
X217005476Y-85485714D01*
X217005476Y-85485714D02*
X217100714Y-85533333D01*
X217100714Y-85533333D02*
X217148333Y-85580952D01*
X217148333Y-85580952D02*
X217195952Y-85676190D01*
X217195952Y-85676190D02*
X217195952Y-85819047D01*
X217195952Y-85819047D02*
X217148333Y-85914285D01*
X216815000Y-85485714D02*
X216862619Y-85580952D01*
X216862619Y-85580952D02*
X216862619Y-85771428D01*
X216862619Y-85771428D02*
X216815000Y-85866666D01*
X216815000Y-85866666D02*
X216767380Y-85914285D01*
X216767380Y-85914285D02*
X216672142Y-85961904D01*
X216672142Y-85961904D02*
X216386428Y-85961904D01*
X216386428Y-85961904D02*
X216291190Y-85914285D01*
X216291190Y-85914285D02*
X216243571Y-85866666D01*
X216243571Y-85866666D02*
X216195952Y-85771428D01*
X216195952Y-85771428D02*
X216195952Y-85580952D01*
X216195952Y-85580952D02*
X216243571Y-85485714D01*
X216862619Y-85009523D02*
X215862619Y-85009523D01*
X216862619Y-84580952D02*
X216338809Y-84580952D01*
X216338809Y-84580952D02*
X216243571Y-84628571D01*
X216243571Y-84628571D02*
X216195952Y-84723809D01*
X216195952Y-84723809D02*
X216195952Y-84866666D01*
X216195952Y-84866666D02*
X216243571Y-84961904D01*
X216243571Y-84961904D02*
X216291190Y-85009523D01*
X216195952Y-84247618D02*
X216195952Y-83866666D01*
X215862619Y-84104761D02*
X216719761Y-84104761D01*
X216719761Y-84104761D02*
X216815000Y-84057142D01*
X216815000Y-84057142D02*
X216862619Y-83961904D01*
X216862619Y-83961904D02*
X216862619Y-83866666D01*
G04 #@! TO.C,R4*
X176308333Y-107562619D02*
X175975000Y-107086428D01*
X175736905Y-107562619D02*
X175736905Y-106562619D01*
X175736905Y-106562619D02*
X176117857Y-106562619D01*
X176117857Y-106562619D02*
X176213095Y-106610238D01*
X176213095Y-106610238D02*
X176260714Y-106657857D01*
X176260714Y-106657857D02*
X176308333Y-106753095D01*
X176308333Y-106753095D02*
X176308333Y-106895952D01*
X176308333Y-106895952D02*
X176260714Y-106991190D01*
X176260714Y-106991190D02*
X176213095Y-107038809D01*
X176213095Y-107038809D02*
X176117857Y-107086428D01*
X176117857Y-107086428D02*
X175736905Y-107086428D01*
X177165476Y-106895952D02*
X177165476Y-107562619D01*
X176927381Y-106515000D02*
X176689286Y-107229285D01*
X176689286Y-107229285D02*
X177308333Y-107229285D01*
X175908333Y-109162619D02*
X175336905Y-109162619D01*
X175622619Y-109162619D02*
X175622619Y-108162619D01*
X175622619Y-108162619D02*
X175527381Y-108305476D01*
X175527381Y-108305476D02*
X175432143Y-108400714D01*
X175432143Y-108400714D02*
X175336905Y-108448333D01*
X176860714Y-109162619D02*
X176289286Y-109162619D01*
X176575000Y-109162619D02*
X176575000Y-108162619D01*
X176575000Y-108162619D02*
X176479762Y-108305476D01*
X176479762Y-108305476D02*
X176384524Y-108400714D01*
X176384524Y-108400714D02*
X176289286Y-108448333D01*
X177479762Y-108162619D02*
X177575000Y-108162619D01*
X177575000Y-108162619D02*
X177670238Y-108210238D01*
X177670238Y-108210238D02*
X177717857Y-108257857D01*
X177717857Y-108257857D02*
X177765476Y-108353095D01*
X177765476Y-108353095D02*
X177813095Y-108543571D01*
X177813095Y-108543571D02*
X177813095Y-108781666D01*
X177813095Y-108781666D02*
X177765476Y-108972142D01*
X177765476Y-108972142D02*
X177717857Y-109067380D01*
X177717857Y-109067380D02*
X177670238Y-109115000D01*
X177670238Y-109115000D02*
X177575000Y-109162619D01*
X177575000Y-109162619D02*
X177479762Y-109162619D01*
X177479762Y-109162619D02*
X177384524Y-109115000D01*
X177384524Y-109115000D02*
X177336905Y-109067380D01*
X177336905Y-109067380D02*
X177289286Y-108972142D01*
X177289286Y-108972142D02*
X177241667Y-108781666D01*
X177241667Y-108781666D02*
X177241667Y-108543571D01*
X177241667Y-108543571D02*
X177289286Y-108353095D01*
X177289286Y-108353095D02*
X177336905Y-108257857D01*
X177336905Y-108257857D02*
X177384524Y-108210238D01*
X177384524Y-108210238D02*
X177479762Y-108162619D01*
G04 #@! TO.C,R8*
X147433333Y-107762619D02*
X147100000Y-107286428D01*
X146861905Y-107762619D02*
X146861905Y-106762619D01*
X146861905Y-106762619D02*
X147242857Y-106762619D01*
X147242857Y-106762619D02*
X147338095Y-106810238D01*
X147338095Y-106810238D02*
X147385714Y-106857857D01*
X147385714Y-106857857D02*
X147433333Y-106953095D01*
X147433333Y-106953095D02*
X147433333Y-107095952D01*
X147433333Y-107095952D02*
X147385714Y-107191190D01*
X147385714Y-107191190D02*
X147338095Y-107238809D01*
X147338095Y-107238809D02*
X147242857Y-107286428D01*
X147242857Y-107286428D02*
X146861905Y-107286428D01*
X148004762Y-107191190D02*
X147909524Y-107143571D01*
X147909524Y-107143571D02*
X147861905Y-107095952D01*
X147861905Y-107095952D02*
X147814286Y-107000714D01*
X147814286Y-107000714D02*
X147814286Y-106953095D01*
X147814286Y-106953095D02*
X147861905Y-106857857D01*
X147861905Y-106857857D02*
X147909524Y-106810238D01*
X147909524Y-106810238D02*
X148004762Y-106762619D01*
X148004762Y-106762619D02*
X148195238Y-106762619D01*
X148195238Y-106762619D02*
X148290476Y-106810238D01*
X148290476Y-106810238D02*
X148338095Y-106857857D01*
X148338095Y-106857857D02*
X148385714Y-106953095D01*
X148385714Y-106953095D02*
X148385714Y-107000714D01*
X148385714Y-107000714D02*
X148338095Y-107095952D01*
X148338095Y-107095952D02*
X148290476Y-107143571D01*
X148290476Y-107143571D02*
X148195238Y-107191190D01*
X148195238Y-107191190D02*
X148004762Y-107191190D01*
X148004762Y-107191190D02*
X147909524Y-107238809D01*
X147909524Y-107238809D02*
X147861905Y-107286428D01*
X147861905Y-107286428D02*
X147814286Y-107381666D01*
X147814286Y-107381666D02*
X147814286Y-107572142D01*
X147814286Y-107572142D02*
X147861905Y-107667380D01*
X147861905Y-107667380D02*
X147909524Y-107715000D01*
X147909524Y-107715000D02*
X148004762Y-107762619D01*
X148004762Y-107762619D02*
X148195238Y-107762619D01*
X148195238Y-107762619D02*
X148290476Y-107715000D01*
X148290476Y-107715000D02*
X148338095Y-107667380D01*
X148338095Y-107667380D02*
X148385714Y-107572142D01*
X148385714Y-107572142D02*
X148385714Y-107381666D01*
X148385714Y-107381666D02*
X148338095Y-107286428D01*
X148338095Y-107286428D02*
X148290476Y-107238809D01*
X148290476Y-107238809D02*
X148195238Y-107191190D01*
X146983333Y-109312619D02*
X146411905Y-109312619D01*
X146697619Y-109312619D02*
X146697619Y-108312619D01*
X146697619Y-108312619D02*
X146602381Y-108455476D01*
X146602381Y-108455476D02*
X146507143Y-108550714D01*
X146507143Y-108550714D02*
X146411905Y-108598333D01*
X147935714Y-109312619D02*
X147364286Y-109312619D01*
X147650000Y-109312619D02*
X147650000Y-108312619D01*
X147650000Y-108312619D02*
X147554762Y-108455476D01*
X147554762Y-108455476D02*
X147459524Y-108550714D01*
X147459524Y-108550714D02*
X147364286Y-108598333D01*
X148554762Y-108312619D02*
X148650000Y-108312619D01*
X148650000Y-108312619D02*
X148745238Y-108360238D01*
X148745238Y-108360238D02*
X148792857Y-108407857D01*
X148792857Y-108407857D02*
X148840476Y-108503095D01*
X148840476Y-108503095D02*
X148888095Y-108693571D01*
X148888095Y-108693571D02*
X148888095Y-108931666D01*
X148888095Y-108931666D02*
X148840476Y-109122142D01*
X148840476Y-109122142D02*
X148792857Y-109217380D01*
X148792857Y-109217380D02*
X148745238Y-109265000D01*
X148745238Y-109265000D02*
X148650000Y-109312619D01*
X148650000Y-109312619D02*
X148554762Y-109312619D01*
X148554762Y-109312619D02*
X148459524Y-109265000D01*
X148459524Y-109265000D02*
X148411905Y-109217380D01*
X148411905Y-109217380D02*
X148364286Y-109122142D01*
X148364286Y-109122142D02*
X148316667Y-108931666D01*
X148316667Y-108931666D02*
X148316667Y-108693571D01*
X148316667Y-108693571D02*
X148364286Y-108503095D01*
X148364286Y-108503095D02*
X148411905Y-108407857D01*
X148411905Y-108407857D02*
X148459524Y-108360238D01*
X148459524Y-108360238D02*
X148554762Y-108312619D01*
D13*
G04 #@! TO.C,R13*
X105000000Y-101060000D02*
X105000000Y-100290000D01*
X103630000Y-100290000D02*
X106370000Y-100290000D01*
X106370000Y-100290000D02*
X106370000Y-93750000D01*
X103630000Y-93750000D02*
X103630000Y-100290000D01*
X106370000Y-93750000D02*
X103630000Y-93750000D01*
X105000000Y-92980000D02*
X105000000Y-93750000D01*
G04 #@! TO.C,R14*
X101900000Y-101035000D02*
X101900000Y-100265000D01*
X100530000Y-100265000D02*
X103270000Y-100265000D01*
X103270000Y-100265000D02*
X103270000Y-93725000D01*
X100530000Y-93725000D02*
X100530000Y-100265000D01*
X103270000Y-93725000D02*
X100530000Y-93725000D01*
X101900000Y-92955000D02*
X101900000Y-93725000D01*
G04 #@! TO.C,SW3*
X212200000Y-105050000D02*
X210700000Y-105050000D01*
X208200000Y-106300000D02*
X208200000Y-110800000D01*
X214700000Y-110800000D02*
X214700000Y-106300000D01*
X210700000Y-112050000D02*
X212200000Y-112050000D01*
G04 #@! TO.C,SW6*
X201450000Y-98600000D02*
X199950000Y-98600000D01*
X197450000Y-99850000D02*
X197450000Y-104350000D01*
X203950000Y-104350000D02*
X203950000Y-99850000D01*
X199950000Y-105600000D02*
X201450000Y-105600000D01*
G04 #@! TO.C,R2*
X179525000Y-103675000D02*
X179525000Y-102065000D01*
X178155000Y-102065000D02*
X180895000Y-102065000D01*
X180895000Y-102065000D02*
X180895000Y-95525000D01*
X178155000Y-95525000D02*
X178155000Y-102065000D01*
X180895000Y-95525000D02*
X178155000Y-95525000D01*
X179525000Y-94075000D02*
X179525000Y-95525000D01*
G04 #@! TO.C,R3*
X173375000Y-103675000D02*
X173375000Y-102065000D01*
X172005000Y-102065000D02*
X174745000Y-102065000D01*
X174745000Y-102065000D02*
X174745000Y-95525000D01*
X172005000Y-95525000D02*
X172005000Y-102065000D01*
X174745000Y-95525000D02*
X172005000Y-95525000D01*
X173375000Y-94075000D02*
X173375000Y-95525000D01*
G04 #@! TO.C,R15*
X98800000Y-101035000D02*
X98800000Y-100265000D01*
X97430000Y-100265000D02*
X100170000Y-100265000D01*
X100170000Y-100265000D02*
X100170000Y-93725000D01*
X97430000Y-93725000D02*
X97430000Y-100265000D01*
X100170000Y-93725000D02*
X97430000Y-93725000D01*
X98800000Y-92955000D02*
X98800000Y-93725000D01*
G04 #@! TO.C,SW5*
X201450000Y-87550000D02*
X199950000Y-87550000D01*
X197450000Y-88800000D02*
X197450000Y-93300000D01*
X203950000Y-93300000D02*
X203950000Y-88800000D01*
X199950000Y-94550000D02*
X201450000Y-94550000D01*
G04 #@! TO.C,G2*
G36*
X161288029Y-105348116D02*
G01*
X161252153Y-105383991D01*
X161216277Y-105348116D01*
X161252153Y-105312240D01*
X161288029Y-105348116D01*
G37*
G36*
X163081814Y-119411393D02*
G01*
X163045938Y-119447268D01*
X163010063Y-119411393D01*
X163045938Y-119375517D01*
X163081814Y-119411393D01*
G37*
G36*
X163584074Y-107357155D02*
G01*
X163548198Y-107393031D01*
X163512323Y-107357155D01*
X163548198Y-107321280D01*
X163584074Y-107357155D01*
G37*
G36*
X165377859Y-102836816D02*
G01*
X165341984Y-102872692D01*
X165306108Y-102836816D01*
X165341984Y-102800941D01*
X165377859Y-102836816D01*
G37*
G36*
X161120609Y-106412428D02*
G01*
X161129196Y-106497581D01*
X161120609Y-106508097D01*
X161077953Y-106498248D01*
X161072775Y-106460263D01*
X161099027Y-106401203D01*
X161120609Y-106412428D01*
G37*
G36*
X161284561Y-107093966D02*
G01*
X161314134Y-107142313D01*
X161310655Y-107234460D01*
X161240304Y-107239730D01*
X161183466Y-107182735D01*
X161190120Y-107090451D01*
X161207589Y-107075520D01*
X161284561Y-107093966D01*
G37*
G36*
X161750686Y-105141360D02*
G01*
X161851681Y-105199260D01*
X161834763Y-105236700D01*
X161794523Y-105240489D01*
X161697227Y-105188377D01*
X161683170Y-105169559D01*
X161694719Y-105128786D01*
X161750686Y-105141360D01*
G37*
G36*
X164096079Y-108398003D02*
G01*
X164130751Y-108431718D01*
X164215457Y-108542124D01*
X164184539Y-108580001D01*
X164104272Y-108561127D01*
X164023196Y-108470921D01*
X164014583Y-108422322D01*
X164029737Y-108356715D01*
X164096079Y-108398003D01*
G37*
G36*
X162271240Y-108564454D02*
G01*
X162220016Y-108633771D01*
X162127773Y-108749799D01*
X162004552Y-108911088D01*
X161999554Y-108917749D01*
X161860671Y-109074608D01*
X161777282Y-109102346D01*
X161751644Y-109000472D01*
X161753108Y-108971345D01*
X161825349Y-108795923D01*
X161987171Y-108626222D01*
X162166984Y-108521745D01*
X162276818Y-108500678D01*
X162271240Y-108564454D01*
G37*
G36*
X165620414Y-107025656D02*
G01*
X165783831Y-107073596D01*
X165850440Y-107147063D01*
X165883044Y-107267486D01*
X165948022Y-107437203D01*
X166003044Y-107554472D01*
X166007310Y-107596386D01*
X165939216Y-107588858D01*
X165782283Y-107526247D01*
X165520034Y-107402910D01*
X165425684Y-107356822D01*
X164935373Y-107116078D01*
X165191716Y-107045298D01*
X165407381Y-107013804D01*
X165620414Y-107025656D01*
G37*
G36*
X164609217Y-108508577D02*
G01*
X164781881Y-108552389D01*
X164945022Y-108605517D01*
X165155317Y-108683841D01*
X165247591Y-108736271D01*
X165240666Y-108780135D01*
X165177844Y-108819904D01*
X165053073Y-108949780D01*
X165005933Y-109080180D01*
X164987026Y-109169463D01*
X164948840Y-109177491D01*
X164871786Y-109091095D01*
X164738509Y-108900396D01*
X164615018Y-108705753D01*
X164539917Y-108561738D01*
X164528394Y-108505585D01*
X164609217Y-108508577D01*
G37*
G36*
X165696286Y-107862934D02*
G01*
X165925293Y-107909814D01*
X166117016Y-107985338D01*
X166227379Y-108079006D01*
X166238876Y-108120115D01*
X166169807Y-108160965D01*
X165963529Y-108164550D01*
X165790430Y-108150432D01*
X165341984Y-108104478D01*
X165539300Y-108271648D01*
X165695545Y-108418241D01*
X165739436Y-108503059D01*
X165665341Y-108528784D01*
X165467627Y-108498100D01*
X165204170Y-108431320D01*
X165009176Y-108354246D01*
X164803174Y-108237187D01*
X164618296Y-108104185D01*
X164486676Y-107979283D01*
X164440445Y-107886524D01*
X164449683Y-107866782D01*
X164533061Y-107861039D01*
X164707591Y-107883804D01*
X164818307Y-107905232D01*
X165097609Y-107941151D01*
X165286422Y-107905244D01*
X165302723Y-107897103D01*
X165474070Y-107855197D01*
X165696286Y-107862934D01*
G37*
G36*
X165177540Y-98611166D02*
G01*
X165383131Y-98756365D01*
X165655262Y-98984467D01*
X165931289Y-99203499D01*
X166227026Y-99402334D01*
X166486674Y-99544027D01*
X166525882Y-99560860D01*
X166822733Y-99698557D01*
X167130967Y-99868110D01*
X167262642Y-99951204D01*
X167604769Y-100182014D01*
X167585523Y-103733709D01*
X167566277Y-107285404D01*
X167367534Y-107480886D01*
X167221703Y-107671336D01*
X167129339Y-107877017D01*
X167124401Y-107898316D01*
X167038848Y-108094489D01*
X166910574Y-108231284D01*
X166804036Y-108328041D01*
X166753666Y-108467331D01*
X166741136Y-108695060D01*
X166722810Y-108943305D01*
X166664634Y-109070031D01*
X166634073Y-109088901D01*
X166553254Y-109180208D01*
X166465624Y-109368852D01*
X166386085Y-109610320D01*
X166329541Y-109860101D01*
X166310628Y-110054988D01*
X166287436Y-110298204D01*
X166204445Y-110429985D01*
X166041527Y-110476805D01*
X165988786Y-110478342D01*
X165843353Y-110497448D01*
X165708510Y-110570997D01*
X165548564Y-110723332D01*
X165426249Y-110862035D01*
X165226927Y-111113330D01*
X165041045Y-111377624D01*
X164929279Y-111561611D01*
X164795793Y-111795014D01*
X164622945Y-112076680D01*
X164484679Y-112290269D01*
X164209249Y-112703044D01*
X164263997Y-113474167D01*
X164287718Y-113859750D01*
X164311010Y-114327706D01*
X164331085Y-114816926D01*
X164344389Y-115236050D01*
X164357596Y-115603587D01*
X164375972Y-115922336D01*
X164397341Y-116163389D01*
X164419523Y-116297841D01*
X164425500Y-116312321D01*
X164447645Y-116420364D01*
X164460529Y-116640272D01*
X164464934Y-116940758D01*
X164461641Y-117290536D01*
X164451432Y-117658319D01*
X164435089Y-118012822D01*
X164413394Y-118322757D01*
X164387128Y-118556840D01*
X164366903Y-118657248D01*
X164333471Y-118837537D01*
X164350432Y-119027827D01*
X164423814Y-119283151D01*
X164440922Y-119332936D01*
X164559168Y-119776409D01*
X164587913Y-120158346D01*
X164527465Y-120460260D01*
X164419374Y-120627531D01*
X164274321Y-120862258D01*
X164199507Y-121178549D01*
X164157232Y-121411621D01*
X164104284Y-121591644D01*
X164072935Y-121651831D01*
X163944250Y-121711289D01*
X163710573Y-121732555D01*
X163405414Y-121715004D01*
X163117690Y-121669671D01*
X162873525Y-121610801D01*
X162651469Y-121542471D01*
X162626906Y-121533349D01*
X162458789Y-121496964D01*
X162211958Y-121493968D01*
X161858974Y-121524429D01*
X161765889Y-121535438D01*
X161081690Y-121586556D01*
X160507571Y-121556398D01*
X160033692Y-121442509D01*
X159650213Y-121242434D01*
X159347294Y-120953716D01*
X159326093Y-120926515D01*
X159209340Y-120764490D01*
X159459904Y-120764490D01*
X159527322Y-120872275D01*
X159595446Y-120947342D01*
X159793706Y-121129800D01*
X159999229Y-121254576D01*
X160244815Y-121331450D01*
X160563261Y-121370203D01*
X160987367Y-121380616D01*
X161047743Y-121380421D01*
X161401887Y-121373692D01*
X161733552Y-121358861D01*
X161997361Y-121338382D01*
X162113170Y-121322796D01*
X162478451Y-121319511D01*
X162644612Y-121368468D01*
X163046657Y-121495399D01*
X163462998Y-121566842D01*
X163727577Y-121575649D01*
X163866830Y-121563136D01*
X163948595Y-121519343D01*
X163997676Y-121410224D01*
X164038883Y-121201733D01*
X164050458Y-121132514D01*
X164140991Y-120780507D01*
X164272749Y-120551853D01*
X164283650Y-120540564D01*
X164401517Y-120365903D01*
X164439697Y-120129213D01*
X164439632Y-120075093D01*
X164412206Y-119801229D01*
X164348738Y-119544010D01*
X164263043Y-119345462D01*
X164168937Y-119247608D01*
X164167436Y-119247090D01*
X164123541Y-119265859D01*
X164106426Y-119374506D01*
X164114461Y-119593714D01*
X164127574Y-119753154D01*
X164147385Y-120052877D01*
X164139203Y-120237069D01*
X164101113Y-120331312D01*
X164083149Y-120346129D01*
X164020364Y-120360026D01*
X164034611Y-120287834D01*
X164040488Y-120205694D01*
X163966889Y-120215122D01*
X163809304Y-120251216D01*
X163665599Y-120265281D01*
X163515823Y-120310610D01*
X163478876Y-120399415D01*
X163556635Y-120484161D01*
X163655825Y-120512835D01*
X163844612Y-120583131D01*
X163918317Y-120713711D01*
X163903772Y-120804809D01*
X163918244Y-120925429D01*
X163953375Y-120960564D01*
X163953724Y-121006631D01*
X163827219Y-121053108D01*
X163768083Y-121065541D01*
X163391792Y-121074170D01*
X162936637Y-120978155D01*
X162417596Y-120781418D01*
X162109987Y-120631526D01*
X161778608Y-120469277D01*
X161528072Y-120380378D01*
X161320111Y-120358140D01*
X161116462Y-120395873D01*
X160998798Y-120437273D01*
X160844019Y-120475955D01*
X160592878Y-120516317D01*
X160292242Y-120551184D01*
X160201351Y-120559339D01*
X159836108Y-120594796D01*
X159600191Y-120634785D01*
X159479492Y-120688338D01*
X159459904Y-120764490D01*
X159209340Y-120764490D01*
X159199402Y-120750698D01*
X159145231Y-120628840D01*
X159178145Y-120547510D01*
X159312710Y-120493275D01*
X159563492Y-120452705D01*
X159638771Y-120444640D01*
X160638371Y-120444640D01*
X160713098Y-120450229D01*
X160867526Y-120400367D01*
X161080943Y-120295073D01*
X161249515Y-120186789D01*
X161348683Y-120096911D01*
X161359780Y-120072239D01*
X161366738Y-120057155D01*
X161431532Y-120057155D01*
X161467407Y-120093031D01*
X161503283Y-120057155D01*
X161467407Y-120021280D01*
X161431532Y-120057155D01*
X161366738Y-120057155D01*
X161402388Y-119979869D01*
X161508596Y-119830757D01*
X161548459Y-119781888D01*
X161737138Y-119557656D01*
X161458770Y-119434399D01*
X161286490Y-119369716D01*
X161181449Y-119352388D01*
X161168107Y-119361268D01*
X161151983Y-119456719D01*
X161125022Y-119642035D01*
X161109831Y-119752658D01*
X161061097Y-119984641D01*
X160968018Y-120138297D01*
X160800525Y-120272856D01*
X160661471Y-120385037D01*
X160638371Y-120444640D01*
X159638771Y-120444640D01*
X159876249Y-120419198D01*
X160182993Y-120364283D01*
X160481985Y-120269974D01*
X160730455Y-120153275D01*
X160885633Y-120031194D01*
X160898748Y-120012620D01*
X160919982Y-119908644D01*
X160935048Y-119697315D01*
X160941948Y-119414722D01*
X160941518Y-119240267D01*
X160909365Y-118741568D01*
X160873258Y-118478624D01*
X161076437Y-118478624D01*
X161087342Y-118721865D01*
X161119163Y-118955772D01*
X161163764Y-119138642D01*
X161213008Y-119228771D01*
X161223414Y-119232014D01*
X161234237Y-119214881D01*
X162621071Y-119214881D01*
X162648174Y-119324266D01*
X162717715Y-119510447D01*
X162752742Y-119613656D01*
X162795129Y-119687958D01*
X162878730Y-119707447D01*
X163034408Y-119670569D01*
X163261193Y-119588081D01*
X163416702Y-119498841D01*
X163573736Y-119372532D01*
X163706588Y-119272095D01*
X163785224Y-119284094D01*
X163796943Y-119299906D01*
X163855135Y-119330000D01*
X163900935Y-119262606D01*
X163915708Y-119143603D01*
X163897198Y-119053082D01*
X163849517Y-119005942D01*
X163760679Y-119056099D01*
X163655409Y-119160709D01*
X163467473Y-119323850D01*
X163325179Y-119370832D01*
X163241737Y-119300698D01*
X163225317Y-119191904D01*
X163204878Y-119069972D01*
X163161723Y-119047594D01*
X163096276Y-119022262D01*
X163077478Y-118980884D01*
X164100322Y-118980884D01*
X164108077Y-119103423D01*
X164130539Y-119114212D01*
X164133398Y-119107815D01*
X164147592Y-118965375D01*
X164136057Y-118892560D01*
X164113217Y-118863300D01*
X164100795Y-118958602D01*
X164100322Y-118980884D01*
X163077478Y-118980884D01*
X163060813Y-118944201D01*
X162966844Y-118824343D01*
X162879257Y-118801506D01*
X162741441Y-118761969D01*
X162693274Y-118711816D01*
X162671809Y-118711074D01*
X162672225Y-118823926D01*
X162675332Y-118858478D01*
X162676094Y-119029564D01*
X162645871Y-119127168D01*
X162642048Y-119130108D01*
X162621071Y-119214881D01*
X161234237Y-119214881D01*
X161256414Y-119179773D01*
X161245778Y-119133646D01*
X161267889Y-119028355D01*
X161319781Y-118992395D01*
X161397936Y-118911996D01*
X161430989Y-118788292D01*
X161410924Y-118684665D01*
X161362072Y-118658003D01*
X163153566Y-118658003D01*
X163208167Y-118727669D01*
X163225317Y-118729754D01*
X163290254Y-118678859D01*
X164063690Y-118678859D01*
X164095989Y-118730532D01*
X164164251Y-118667206D01*
X164195699Y-118604189D01*
X164217778Y-118488487D01*
X164240953Y-118260054D01*
X164262760Y-117949619D01*
X164280732Y-117587909D01*
X164283928Y-117504466D01*
X164295711Y-117079287D01*
X164294389Y-116771636D01*
X164278437Y-116556007D01*
X164246327Y-116406895D01*
X164213526Y-116328640D01*
X164157428Y-116228926D01*
X164125670Y-116211526D01*
X164111153Y-116294623D01*
X164106776Y-116496400D01*
X164106310Y-116603222D01*
X164112850Y-116843533D01*
X164131482Y-117014704D01*
X164157988Y-117079472D01*
X164183818Y-117144799D01*
X164195800Y-117316743D01*
X164195484Y-117559244D01*
X164184417Y-117836245D01*
X164164147Y-118111686D01*
X164136224Y-118349509D01*
X164102194Y-118513656D01*
X164095602Y-118532438D01*
X164063690Y-118678859D01*
X163290254Y-118678859D01*
X163294983Y-118675153D01*
X163297068Y-118658003D01*
X163242467Y-118588336D01*
X163225317Y-118586251D01*
X163155651Y-118640852D01*
X163153566Y-118658003D01*
X161362072Y-118658003D01*
X161282668Y-118601263D01*
X161187595Y-118464403D01*
X161185566Y-118460686D01*
X161078520Y-118263370D01*
X161076437Y-118478624D01*
X160873258Y-118478624D01*
X160829484Y-118159852D01*
X160814897Y-118083991D01*
X161001023Y-118083991D01*
X161027276Y-118143051D01*
X161048857Y-118131826D01*
X161057445Y-118046674D01*
X161048857Y-118036157D01*
X161006201Y-118046007D01*
X161001023Y-118083991D01*
X160814897Y-118083991D01*
X160794202Y-117976364D01*
X163081814Y-117976364D01*
X163117690Y-118012240D01*
X163153566Y-117976364D01*
X163117690Y-117940489D01*
X163081814Y-117976364D01*
X160794202Y-117976364D01*
X160711034Y-117543845D01*
X160563173Y-116942277D01*
X160424123Y-116487237D01*
X160388846Y-116361958D01*
X160613800Y-116361958D01*
X160622341Y-116425448D01*
X160663876Y-116594826D01*
X160730422Y-116838451D01*
X160760660Y-116944098D01*
X160839241Y-117235265D01*
X160898290Y-117491891D01*
X160927715Y-117668882D01*
X160929272Y-117697488D01*
X160945678Y-117828512D01*
X160975113Y-117868737D01*
X160993485Y-117804105D01*
X160994094Y-117636630D01*
X160981471Y-117456167D01*
X160946003Y-117245259D01*
X160882348Y-116995382D01*
X160803318Y-116744668D01*
X160721727Y-116531249D01*
X160650388Y-116393257D01*
X160613800Y-116361958D01*
X160388846Y-116361958D01*
X160345602Y-116208385D01*
X160334110Y-116146703D01*
X160498763Y-116146703D01*
X160525016Y-116205763D01*
X160546598Y-116194538D01*
X160555185Y-116109385D01*
X160546598Y-116098869D01*
X160503941Y-116108718D01*
X160498763Y-116146703D01*
X160334110Y-116146703D01*
X160294563Y-115934431D01*
X160294330Y-115931449D01*
X160498763Y-115931449D01*
X160525016Y-115990509D01*
X160546598Y-115979283D01*
X160555185Y-115894131D01*
X160546598Y-115883615D01*
X160503941Y-115893464D01*
X160498763Y-115931449D01*
X160294330Y-115931449D01*
X160283509Y-115792861D01*
X160274518Y-115716195D01*
X160498763Y-115716195D01*
X160525016Y-115775254D01*
X160546598Y-115764029D01*
X160555185Y-115678877D01*
X160546598Y-115668361D01*
X160503941Y-115678210D01*
X160498763Y-115716195D01*
X160274518Y-115716195D01*
X160258096Y-115576166D01*
X160157092Y-115420390D01*
X160060070Y-115336474D01*
X159836632Y-115161607D01*
X159827431Y-114308816D01*
X159824860Y-114070522D01*
X159951189Y-114070522D01*
X159961005Y-114300783D01*
X159985287Y-114572626D01*
X160018726Y-114905038D01*
X160030209Y-115024289D01*
X160096641Y-115154007D01*
X160234886Y-115274100D01*
X160369417Y-115375036D01*
X160426980Y-115456529D01*
X160427012Y-115457767D01*
X160452003Y-115492148D01*
X160500918Y-115442099D01*
X160534669Y-115352116D01*
X160536155Y-115333521D01*
X160602519Y-115278761D01*
X160782763Y-115268956D01*
X160799509Y-115270141D01*
X160983233Y-115265084D01*
X161057231Y-115240223D01*
X162111781Y-115240223D01*
X162175861Y-115307927D01*
X162185334Y-115311792D01*
X162280524Y-115407792D01*
X162292549Y-115462813D01*
X162332250Y-115591233D01*
X162424066Y-115708177D01*
X162527063Y-115774146D01*
X162596393Y-115756017D01*
X162623100Y-115649082D01*
X162640652Y-115444963D01*
X162645164Y-115213935D01*
X162633633Y-114974875D01*
X164093541Y-114974875D01*
X164096692Y-115278267D01*
X164111622Y-115514019D01*
X164134286Y-115668147D01*
X164160634Y-115726670D01*
X164186620Y-115675604D01*
X164208194Y-115500969D01*
X164214685Y-115393314D01*
X164214557Y-115100027D01*
X164191775Y-114814769D01*
X164168078Y-114675799D01*
X164135327Y-114549343D01*
X164114628Y-114518860D01*
X164102666Y-114597652D01*
X164096127Y-114799020D01*
X164093541Y-114974875D01*
X162633633Y-114974875D01*
X162627628Y-114850374D01*
X162582765Y-114624834D01*
X162511226Y-114538163D01*
X162413662Y-114591209D01*
X162300766Y-114765489D01*
X162252152Y-114885263D01*
X162291678Y-114924991D01*
X162325900Y-114926929D01*
X162422639Y-114983243D01*
X162436051Y-115034556D01*
X162376579Y-115122634D01*
X162296783Y-115142184D01*
X162160098Y-115172787D01*
X162111781Y-115240223D01*
X161057231Y-115240223D01*
X161098261Y-115226438D01*
X161107172Y-115216328D01*
X161208647Y-115155235D01*
X161310201Y-115139012D01*
X161385476Y-115125371D01*
X161349975Y-115080579D01*
X161198340Y-114993795D01*
X161032280Y-114892097D01*
X160937649Y-114806948D01*
X160929272Y-114786357D01*
X160868675Y-114721680D01*
X160727591Y-114650010D01*
X161323905Y-114650010D01*
X161467407Y-114711675D01*
X161646580Y-114756494D01*
X161826164Y-114769894D01*
X162041419Y-114766448D01*
X161826164Y-114711675D01*
X161621383Y-114670283D01*
X161467407Y-114653456D01*
X161323905Y-114650010D01*
X160727591Y-114650010D01*
X160719182Y-114645738D01*
X160681962Y-114631535D01*
X160530886Y-114559806D01*
X160522429Y-114551018D01*
X161319149Y-114551018D01*
X161389677Y-114562508D01*
X161482739Y-114549316D01*
X161483850Y-114524822D01*
X161387819Y-114507694D01*
X161346327Y-114519158D01*
X161319149Y-114551018D01*
X160522429Y-114551018D01*
X160476665Y-114503461D01*
X162041419Y-114503461D01*
X162351931Y-114470146D01*
X162578316Y-114421821D01*
X162760782Y-114342356D01*
X162795455Y-114316457D01*
X162890742Y-114177722D01*
X162983181Y-113960590D01*
X163019303Y-113840855D01*
X163749777Y-113840855D01*
X163765963Y-113978217D01*
X163798677Y-113991861D01*
X163841389Y-113890139D01*
X163887569Y-113681400D01*
X163930687Y-113373997D01*
X163933877Y-113344759D01*
X163958119Y-113086600D01*
X163959625Y-112948606D01*
X163935913Y-112908876D01*
X163888231Y-112941739D01*
X163829325Y-113070218D01*
X163782184Y-113308172D01*
X163756648Y-113571424D01*
X163749777Y-113840855D01*
X163019303Y-113840855D01*
X163020674Y-113836310D01*
X163113308Y-113574299D01*
X163229140Y-113436652D01*
X163266184Y-113418252D01*
X163424227Y-113309790D01*
X163637529Y-113091416D01*
X163893520Y-112779674D01*
X164179628Y-112391112D01*
X164483281Y-111942275D01*
X164791907Y-111449710D01*
X164900204Y-111267607D01*
X165182306Y-110848433D01*
X165462782Y-110551886D01*
X165733374Y-110385980D01*
X165837791Y-110357863D01*
X166033411Y-110298300D01*
X166119775Y-110190073D01*
X166126145Y-110163843D01*
X166208083Y-109749769D01*
X166277538Y-109449896D01*
X166342427Y-109236378D01*
X166410661Y-109081368D01*
X166454797Y-109007438D01*
X166544213Y-108829170D01*
X166592397Y-108650497D01*
X166591958Y-108516062D01*
X166543820Y-108469792D01*
X166474251Y-108524151D01*
X166362476Y-108660410D01*
X166312804Y-108730428D01*
X166151674Y-108933171D01*
X165976951Y-109106033D01*
X165941896Y-109133785D01*
X165819960Y-109255403D01*
X165781207Y-109360798D01*
X165783471Y-109368933D01*
X165776551Y-109489938D01*
X165713032Y-109664501D01*
X165701424Y-109687754D01*
X165629766Y-109858067D01*
X165638372Y-109968960D01*
X165676342Y-110025786D01*
X165721057Y-110115431D01*
X165670917Y-110204550D01*
X165569838Y-110289700D01*
X165340568Y-110481405D01*
X165073598Y-110729070D01*
X164787869Y-111012167D01*
X164502325Y-111310169D01*
X164235910Y-111602548D01*
X164007566Y-111868777D01*
X163836237Y-112088328D01*
X163740866Y-112240675D01*
X163727577Y-112286014D01*
X163681712Y-112393375D01*
X163560959Y-112571305D01*
X163390582Y-112787597D01*
X163195845Y-113010046D01*
X163015465Y-113193801D01*
X162867994Y-113340298D01*
X162814778Y-113426976D01*
X162842844Y-113489385D01*
X162892894Y-113529673D01*
X162980478Y-113607172D01*
X162952734Y-113666595D01*
X162873508Y-113719468D01*
X162757551Y-113823073D01*
X162723057Y-113898958D01*
X162663392Y-113986288D01*
X162574365Y-114031684D01*
X162466718Y-114110487D01*
X162465943Y-114183819D01*
X162435398Y-114291466D01*
X162273816Y-114396112D01*
X162041419Y-114503461D01*
X160476665Y-114503461D01*
X160468391Y-114494863D01*
X160470942Y-114483388D01*
X160453238Y-114428556D01*
X160427012Y-114424669D01*
X160380222Y-114380962D01*
X160391136Y-114352918D01*
X160493648Y-114289773D01*
X160556811Y-114280960D01*
X160691149Y-114213979D01*
X160851563Y-114011811D01*
X161039961Y-113671998D01*
X161057953Y-113635404D01*
X161211536Y-113426228D01*
X161455768Y-113211494D01*
X161558491Y-113140518D01*
X161748630Y-113009622D01*
X161871991Y-112908395D01*
X161901611Y-112861792D01*
X161810960Y-112860594D01*
X161640845Y-112919570D01*
X161432097Y-113020647D01*
X161225543Y-113145748D01*
X161168919Y-113186150D01*
X161003857Y-113284917D01*
X160905567Y-113291884D01*
X160896919Y-113282347D01*
X160894328Y-113146744D01*
X161001001Y-112944981D01*
X161207152Y-112691022D01*
X161502997Y-112398833D01*
X161538255Y-112367050D01*
X161749405Y-112165653D01*
X161910895Y-111987685D01*
X161997485Y-111861969D01*
X162005503Y-111833465D01*
X161957721Y-111709717D01*
X161839896Y-111553265D01*
X161811755Y-111523896D01*
X161680750Y-111376268D01*
X161605474Y-111259987D01*
X161600695Y-111245044D01*
X161571975Y-111109870D01*
X161546849Y-110995298D01*
X161536325Y-110787249D01*
X161630400Y-110659218D01*
X161844427Y-110587277D01*
X162142773Y-110497713D01*
X162498056Y-110341526D01*
X162858155Y-110145363D01*
X162903620Y-110114913D01*
X164462683Y-110114913D01*
X164472498Y-110119585D01*
X164537977Y-110069073D01*
X164552718Y-110047833D01*
X164571002Y-109980754D01*
X164561187Y-109976082D01*
X164495708Y-110026593D01*
X164480967Y-110047833D01*
X164462683Y-110114913D01*
X162903620Y-110114913D01*
X163170947Y-109935870D01*
X163261193Y-109862961D01*
X163379625Y-109757946D01*
X163416963Y-109713421D01*
X163362766Y-109733027D01*
X163206594Y-109820409D01*
X162952096Y-109970809D01*
X162465975Y-110241700D01*
X162071021Y-110418344D01*
X161754165Y-110505123D01*
X161502336Y-110506418D01*
X161418985Y-110484719D01*
X161243207Y-110425657D01*
X161167210Y-110424322D01*
X161153838Y-110495539D01*
X161161113Y-110587589D01*
X161202352Y-110718758D01*
X161267937Y-110733343D01*
X161327940Y-110719429D01*
X161348213Y-110749810D01*
X161322562Y-110843110D01*
X161244792Y-111017950D01*
X161108709Y-111292951D01*
X161030543Y-111446986D01*
X160733498Y-112028111D01*
X160493393Y-112498925D01*
X160304919Y-112878414D01*
X160162767Y-113185565D01*
X160061627Y-113439365D01*
X159996190Y-113658800D01*
X159961147Y-113862857D01*
X159951189Y-114070522D01*
X159824860Y-114070522D01*
X159818231Y-113456025D01*
X160141964Y-112810263D01*
X160304375Y-112495095D01*
X160467748Y-112192769D01*
X160606474Y-111950127D01*
X160656999Y-111868285D01*
X160883171Y-111474744D01*
X161009857Y-111126276D01*
X161038335Y-110787441D01*
X160969881Y-110422802D01*
X160805772Y-109996919D01*
X160730203Y-109835577D01*
X160618837Y-109594508D01*
X160541287Y-109387627D01*
X160488494Y-109174468D01*
X160451402Y-108914566D01*
X160437477Y-108755834D01*
X160784539Y-108755834D01*
X160787731Y-109134522D01*
X160802046Y-109406726D01*
X160832605Y-109609342D01*
X160884531Y-109779264D01*
X160945980Y-109918702D01*
X161107232Y-110159078D01*
X161314834Y-110341522D01*
X161532238Y-110441033D01*
X161706468Y-110438894D01*
X161864648Y-110409270D01*
X161919160Y-110406590D01*
X161997371Y-110396356D01*
X161969913Y-110341858D01*
X161919161Y-110289457D01*
X161846114Y-110136034D01*
X161897992Y-109973986D01*
X162060615Y-109829932D01*
X162198123Y-109765824D01*
X162410441Y-109664136D01*
X162583965Y-109540882D01*
X162592809Y-109532319D01*
X162721498Y-109434829D01*
X162784358Y-109463873D01*
X162780358Y-109617946D01*
X162748271Y-109759246D01*
X162673294Y-110040148D01*
X162876586Y-109935022D01*
X163062490Y-109818569D01*
X163272218Y-109659614D01*
X163323510Y-109615983D01*
X163498266Y-109474478D01*
X163611909Y-109405972D01*
X163646557Y-109419381D01*
X163624974Y-109465692D01*
X163638446Y-109557762D01*
X163686846Y-109613296D01*
X163757198Y-109654077D01*
X163757310Y-109582074D01*
X163747851Y-109543601D01*
X163711470Y-109473822D01*
X163799328Y-109473822D01*
X163825581Y-109532882D01*
X163847163Y-109521656D01*
X163855750Y-109436504D01*
X163847163Y-109425988D01*
X163804506Y-109435837D01*
X163799328Y-109473822D01*
X163711470Y-109473822D01*
X163674999Y-109403869D01*
X163609993Y-109352446D01*
X163545666Y-109258997D01*
X163515530Y-109071261D01*
X163518874Y-108834141D01*
X163554989Y-108592544D01*
X163623166Y-108391375D01*
X163625240Y-108387320D01*
X163691618Y-108231528D01*
X163705310Y-108137911D01*
X163702174Y-108132976D01*
X163642017Y-108168558D01*
X163499384Y-108290224D01*
X163292241Y-108481569D01*
X163038554Y-108726188D01*
X162873750Y-108889432D01*
X162601069Y-109155425D01*
X162363444Y-109374586D01*
X162178879Y-109531306D01*
X162065379Y-109609975D01*
X162038872Y-109613204D01*
X162057961Y-109517587D01*
X162166698Y-109345820D01*
X162347419Y-109117027D01*
X162582457Y-108850328D01*
X162854147Y-108564849D01*
X163144824Y-108279710D01*
X163436823Y-108014035D01*
X163450318Y-108002918D01*
X163942831Y-108002918D01*
X163978707Y-108038794D01*
X164014583Y-108002918D01*
X163978707Y-107967042D01*
X163942831Y-108002918D01*
X163450318Y-108002918D01*
X163712478Y-107786947D01*
X163757547Y-107752729D01*
X163802919Y-107715912D01*
X164158085Y-107715912D01*
X164193961Y-107751788D01*
X164229837Y-107715912D01*
X164193961Y-107680037D01*
X164158085Y-107715912D01*
X163802919Y-107715912D01*
X163979766Y-107572410D01*
X164229837Y-107572410D01*
X164265712Y-107608285D01*
X164301588Y-107572410D01*
X164265712Y-107536534D01*
X164229837Y-107572410D01*
X163979766Y-107572410D01*
X164020736Y-107539165D01*
X164298884Y-107288382D01*
X164445091Y-107143908D01*
X164767972Y-106807901D01*
X164352664Y-106990101D01*
X164085788Y-107097028D01*
X163830529Y-107182793D01*
X163688964Y-107218900D01*
X163524486Y-107265840D01*
X163442609Y-107320726D01*
X163440571Y-107329265D01*
X163377788Y-107372601D01*
X163224789Y-107392834D01*
X163206366Y-107393031D01*
X163048484Y-107407651D01*
X162846475Y-107456403D01*
X162578089Y-107546629D01*
X162221076Y-107685668D01*
X161842382Y-107843032D01*
X161475267Y-107962078D01*
X161197863Y-107970362D01*
X161008665Y-107867903D01*
X160997037Y-107854613D01*
X160949264Y-107728803D01*
X161031052Y-107640287D01*
X161230645Y-107601407D01*
X161238450Y-107601133D01*
X161569085Y-107562238D01*
X161776398Y-107471712D01*
X161851096Y-107354009D01*
X161906433Y-107238599D01*
X162033039Y-107047451D01*
X162208364Y-106813414D01*
X162302750Y-106696040D01*
X162537651Y-106398245D01*
X162695663Y-106158925D01*
X162800356Y-105934082D01*
X162875299Y-105679718D01*
X162896071Y-105588478D01*
X162998259Y-105410090D01*
X163045633Y-105383991D01*
X165377859Y-105383991D01*
X165404112Y-105443051D01*
X165425694Y-105431826D01*
X165434281Y-105346674D01*
X165425694Y-105336157D01*
X165383038Y-105346007D01*
X165377859Y-105383991D01*
X163045633Y-105383991D01*
X163161167Y-105320342D01*
X163319541Y-105236649D01*
X163344702Y-105137824D01*
X163343230Y-105133793D01*
X163352767Y-105040418D01*
X163402713Y-105025234D01*
X163501649Y-104996531D01*
X163568259Y-104894116D01*
X163612208Y-104693536D01*
X163638983Y-104427363D01*
X163675865Y-104143141D01*
X163741238Y-103964647D01*
X163818442Y-103876163D01*
X163916352Y-103748548D01*
X163975749Y-103538136D01*
X163999929Y-103333058D01*
X164036507Y-103059541D01*
X164101826Y-102882513D01*
X164206961Y-102760354D01*
X164330188Y-102602266D01*
X164332611Y-102491286D01*
X164321751Y-102390893D01*
X164348403Y-102370432D01*
X164435769Y-102427484D01*
X164520477Y-102553526D01*
X164562944Y-102680888D01*
X164555561Y-102724589D01*
X164573165Y-102800227D01*
X164606944Y-102820145D01*
X164681524Y-102789779D01*
X164706065Y-102692255D01*
X164763098Y-102521807D01*
X164864528Y-102381503D01*
X164990751Y-102223213D01*
X165126105Y-102007692D01*
X165164634Y-101935948D01*
X165274269Y-101740507D01*
X165333923Y-101678342D01*
X165341796Y-101747559D01*
X165296086Y-101946260D01*
X165267601Y-102044364D01*
X165211815Y-102312448D01*
X165177806Y-102638925D01*
X165172376Y-102866158D01*
X165181183Y-103077090D01*
X165195250Y-103190765D01*
X165211680Y-103185100D01*
X165213242Y-103177636D01*
X165276327Y-103051472D01*
X165346974Y-103016195D01*
X165415189Y-103020897D01*
X165440075Y-103055508D01*
X165418940Y-103150784D01*
X165349096Y-103337483D01*
X165310240Y-103436220D01*
X165227930Y-103684111D01*
X165218003Y-103821563D01*
X165279706Y-103843074D01*
X165358802Y-103791503D01*
X165404423Y-103771421D01*
X165432038Y-103817169D01*
X165444166Y-103949644D01*
X165443324Y-104189743D01*
X165436308Y-104434753D01*
X165428244Y-104760678D01*
X165431443Y-104959059D01*
X165447486Y-105045526D01*
X165477955Y-105035709D01*
X165494367Y-105008641D01*
X165560353Y-104921308D01*
X165664683Y-104877764D01*
X165848308Y-104866765D01*
X165997474Y-104870497D01*
X166390257Y-104893353D01*
X166641429Y-104926776D01*
X166750653Y-104969862D01*
X166717594Y-105021710D01*
X166541916Y-105081418D01*
X166223282Y-105148083D01*
X166108244Y-105167899D01*
X165773034Y-105242059D01*
X165580196Y-105329736D01*
X165529196Y-105431362D01*
X165619501Y-105547370D01*
X165630350Y-105555492D01*
X165710041Y-105628730D01*
X165685644Y-105692609D01*
X165587508Y-105767299D01*
X165479200Y-105857499D01*
X165485849Y-105884081D01*
X165590941Y-105840949D01*
X165666868Y-105796597D01*
X165766907Y-105755794D01*
X165886826Y-105768432D01*
X166066771Y-105843214D01*
X166204031Y-105913021D01*
X166445330Y-106053675D01*
X166571193Y-106158821D01*
X166577581Y-106220785D01*
X166460457Y-106231894D01*
X166364441Y-106217898D01*
X166155215Y-106184588D01*
X165883081Y-106148271D01*
X165736616Y-106131134D01*
X165341984Y-106087767D01*
X165170572Y-106417518D01*
X165062597Y-106604209D01*
X164972475Y-106723734D01*
X164937380Y-106747268D01*
X164879076Y-106803577D01*
X164875599Y-106831308D01*
X164831216Y-106945749D01*
X164756852Y-107046562D01*
X164682442Y-107144073D01*
X164711354Y-107176241D01*
X164743428Y-107177777D01*
X164856364Y-107226314D01*
X165008782Y-107347324D01*
X165054978Y-107393031D01*
X165177352Y-107542127D01*
X165191857Y-107605792D01*
X165108945Y-107571573D01*
X164987851Y-107473029D01*
X164819934Y-107352801D01*
X164689723Y-107292446D01*
X164583490Y-107286886D01*
X164497711Y-107365564D01*
X164409572Y-107535742D01*
X164309416Y-107730963D01*
X164215290Y-107872372D01*
X164190285Y-107898342D01*
X164133017Y-108020652D01*
X164135841Y-108131121D01*
X164145361Y-108229052D01*
X164106166Y-108200080D01*
X164026111Y-108173660D01*
X163928513Y-108253466D01*
X163833099Y-108407148D01*
X163759598Y-108602353D01*
X163727738Y-108806730D01*
X163727577Y-108820919D01*
X163751252Y-109030894D01*
X163811496Y-109153056D01*
X163892141Y-109166472D01*
X163948138Y-109106479D01*
X164010289Y-109053582D01*
X164116357Y-109072673D01*
X164262997Y-109144460D01*
X164455155Y-109284094D01*
X164508298Y-109429709D01*
X164426627Y-109596388D01*
X164398095Y-109629613D01*
X164220793Y-109746321D01*
X164039053Y-109732231D01*
X163952930Y-109671138D01*
X163890343Y-109623027D01*
X163905431Y-109693976D01*
X163908457Y-109702000D01*
X164012840Y-109828961D01*
X164182250Y-109906369D01*
X164373261Y-109931440D01*
X164542448Y-109901390D01*
X164646384Y-109813434D01*
X164658000Y-109760828D01*
X164732097Y-109760828D01*
X164786698Y-109830494D01*
X164803848Y-109832579D01*
X164873514Y-109777978D01*
X164875599Y-109760828D01*
X164825132Y-109696436D01*
X164947351Y-109696436D01*
X164996855Y-109724912D01*
X165135153Y-109661589D01*
X165147172Y-109653201D01*
X165306108Y-109653201D01*
X165341984Y-109689076D01*
X165377859Y-109653201D01*
X165341984Y-109617325D01*
X165306108Y-109653201D01*
X165147172Y-109653201D01*
X165341984Y-109517237D01*
X165435532Y-109436023D01*
X165415305Y-109407664D01*
X165359922Y-109404353D01*
X165253484Y-109433943D01*
X165234357Y-109468987D01*
X165175138Y-109541854D01*
X165090854Y-109581449D01*
X164974864Y-109646939D01*
X164947351Y-109696436D01*
X164825132Y-109696436D01*
X164820998Y-109691161D01*
X164803848Y-109689076D01*
X164734182Y-109743677D01*
X164732097Y-109760828D01*
X164658000Y-109760828D01*
X164660345Y-109750207D01*
X164717616Y-109616570D01*
X164785910Y-109572262D01*
X164936860Y-109512289D01*
X165127860Y-109423510D01*
X165133770Y-109420563D01*
X165345857Y-109353170D01*
X165546655Y-109345867D01*
X165548824Y-109346272D01*
X165675641Y-109361600D01*
X165705173Y-109346710D01*
X165732015Y-109280477D01*
X165836435Y-109139157D01*
X165996918Y-108951453D01*
X166023022Y-108922683D01*
X166253769Y-108648581D01*
X166488897Y-108335262D01*
X166640234Y-108109049D01*
X166695510Y-108026752D01*
X166821256Y-108026752D01*
X166831790Y-108089498D01*
X166884639Y-108074669D01*
X166947070Y-107972272D01*
X166955292Y-107908994D01*
X166943680Y-107828695D01*
X166894077Y-107880852D01*
X166884639Y-107895291D01*
X166821256Y-108026752D01*
X166695510Y-108026752D01*
X166778099Y-107903789D01*
X166893325Y-107764723D01*
X166962352Y-107720007D01*
X166964843Y-107721136D01*
X166995156Y-107700694D01*
X166979251Y-107636117D01*
X166965284Y-107552612D01*
X167027035Y-107571725D01*
X167088192Y-107591554D01*
X167070060Y-107546312D01*
X167072944Y-107452999D01*
X167128103Y-107305056D01*
X167211016Y-107147929D01*
X167297164Y-107027061D01*
X167362029Y-106987900D01*
X167368927Y-106992385D01*
X167360644Y-107071478D01*
X167288454Y-107209704D01*
X167287337Y-107211413D01*
X167222367Y-107336899D01*
X167227517Y-107392842D01*
X167230225Y-107393031D01*
X167312469Y-107329016D01*
X167388859Y-107167108D01*
X167442802Y-106952518D01*
X167458650Y-106770597D01*
X167458650Y-106513673D01*
X167153707Y-106564576D01*
X166686976Y-106638981D01*
X166339336Y-106685570D01*
X166089537Y-106706495D01*
X165916331Y-106703912D01*
X165858614Y-106695825D01*
X165719960Y-106650285D01*
X165717630Y-106597564D01*
X165845052Y-106543649D01*
X166076553Y-106497336D01*
X166305355Y-106453942D01*
X166486821Y-106403784D01*
X166535164Y-106383538D01*
X166669688Y-106346334D01*
X166889961Y-106317815D01*
X167055362Y-106307797D01*
X167284164Y-106296331D01*
X167404382Y-106268656D01*
X167450912Y-106205964D01*
X167458650Y-106090435D01*
X167447197Y-105962104D01*
X167386247Y-105902803D01*
X167235917Y-105885603D01*
X167153707Y-105884540D01*
X166861025Y-105865237D01*
X166576021Y-105817230D01*
X166345241Y-105750635D01*
X166220977Y-105681798D01*
X166229560Y-105618374D01*
X166380089Y-105551661D01*
X166462941Y-105528327D01*
X166709173Y-105443588D01*
X166930863Y-105334096D01*
X166975077Y-105305148D01*
X167173142Y-105163334D01*
X167239719Y-105338444D01*
X167311238Y-105501160D01*
X167366295Y-105561666D01*
X167406650Y-105512397D01*
X167434061Y-105345789D01*
X167450288Y-105054277D01*
X167457090Y-104630296D01*
X167457552Y-104401644D01*
X167453780Y-103988805D01*
X167443925Y-103656183D01*
X167428957Y-103420972D01*
X167409846Y-103300363D01*
X167394987Y-103292570D01*
X167320734Y-103323075D01*
X167232480Y-103249175D01*
X167153011Y-103105171D01*
X167105114Y-102925365D01*
X167099893Y-102848362D01*
X167115748Y-102703506D01*
X167189052Y-102663597D01*
X167279272Y-102674999D01*
X167409015Y-102680320D01*
X167454625Y-102600600D01*
X167458650Y-102511662D01*
X167419180Y-102343416D01*
X167343579Y-102269877D01*
X167264182Y-102184325D01*
X167267297Y-102124635D01*
X167247521Y-102015277D01*
X167202990Y-101983989D01*
X167110421Y-101886816D01*
X167099893Y-101834548D01*
X167079270Y-101743193D01*
X167008515Y-101748645D01*
X166874306Y-101857187D01*
X166721002Y-102013202D01*
X166568000Y-102188808D01*
X166527332Y-102293253D01*
X166608756Y-102349518D01*
X166822028Y-102380583D01*
X166879113Y-102385605D01*
X167063239Y-102430217D01*
X167153329Y-102512804D01*
X167153644Y-102513935D01*
X167163999Y-102582128D01*
X167114657Y-102524457D01*
X167113115Y-102522256D01*
X167050463Y-102480134D01*
X166949384Y-102513919D01*
X166780122Y-102634960D01*
X166745777Y-102662336D01*
X166412396Y-102990622D01*
X166205104Y-103347047D01*
X166126014Y-103626082D01*
X166007779Y-104058883D01*
X165837322Y-104377290D01*
X165742540Y-104481738D01*
X165662970Y-104547436D01*
X165614815Y-104559309D01*
X165596953Y-104499222D01*
X165608259Y-104349039D01*
X165647610Y-104090625D01*
X165699555Y-103787891D01*
X165783205Y-103421065D01*
X165900485Y-103054778D01*
X166036587Y-102725441D01*
X166176703Y-102469465D01*
X166290619Y-102334556D01*
X166366454Y-102217744D01*
X166425161Y-102035085D01*
X166426276Y-102029519D01*
X166472106Y-101796233D01*
X166200965Y-101909523D01*
X165972168Y-102015536D01*
X165766415Y-102127040D01*
X165743531Y-102141203D01*
X165655398Y-102189860D01*
X165653734Y-102163427D01*
X165743629Y-102050522D01*
X165826306Y-101956049D01*
X165999223Y-101754096D01*
X166076886Y-101639079D01*
X166064273Y-101595235D01*
X165966361Y-101606802D01*
X165933933Y-101615200D01*
X165832423Y-101639054D01*
X165849653Y-101615662D01*
X165950970Y-101554579D01*
X166090735Y-101486316D01*
X166166225Y-101472442D01*
X166229731Y-101437894D01*
X166331122Y-101323701D01*
X166331915Y-101322644D01*
X166406991Y-101200606D01*
X166384122Y-101159955D01*
X166256900Y-101200948D01*
X166018918Y-101323845D01*
X165996784Y-101336171D01*
X165783622Y-101435684D01*
X165674659Y-101444478D01*
X165671271Y-101371941D01*
X165774836Y-101227459D01*
X165954662Y-101049045D01*
X166108128Y-100894089D01*
X166196721Y-100772049D01*
X166205777Y-100724641D01*
X166234994Y-100651894D01*
X166362456Y-100551343D01*
X166551056Y-100442863D01*
X166763689Y-100346330D01*
X166827872Y-100325517D01*
X167386899Y-100325517D01*
X167422775Y-100361393D01*
X167458650Y-100325517D01*
X167422775Y-100289641D01*
X167386899Y-100325517D01*
X166827872Y-100325517D01*
X166963249Y-100281617D01*
X167061445Y-100266322D01*
X167205603Y-100245010D01*
X167241903Y-100197328D01*
X167163994Y-100116970D01*
X166965525Y-99997625D01*
X166640148Y-99832986D01*
X166611160Y-99818978D01*
X166342261Y-99689101D01*
X166112111Y-99577502D01*
X165959956Y-99503223D01*
X165934906Y-99490825D01*
X165799000Y-99434699D01*
X165761691Y-99462924D01*
X165782421Y-99536251D01*
X165784495Y-99628672D01*
X165755455Y-99643878D01*
X165674752Y-99690669D01*
X165522734Y-99814590D01*
X165329218Y-99990963D01*
X165286364Y-100032099D01*
X165073957Y-100225495D01*
X164881732Y-100379108D01*
X164746875Y-100463562D01*
X164734068Y-100468394D01*
X164623934Y-100542655D01*
X164628692Y-100661703D01*
X164623992Y-100795880D01*
X164519654Y-100963607D01*
X164426194Y-101068486D01*
X164246458Y-101276508D01*
X164012518Y-101574446D01*
X163744842Y-101933344D01*
X163463897Y-102324243D01*
X163190152Y-102718186D01*
X162944075Y-103086214D01*
X162746134Y-103399372D01*
X162617331Y-103627624D01*
X162344943Y-104149603D01*
X162107816Y-104544130D01*
X161897488Y-104820431D01*
X161705498Y-104987735D01*
X161523384Y-105055267D01*
X161342684Y-105032257D01*
X161332636Y-105028554D01*
X161260204Y-105003109D01*
X161204806Y-105000803D01*
X161162417Y-105038815D01*
X161129008Y-105134324D01*
X161100551Y-105304509D01*
X161073021Y-105566552D01*
X161042390Y-105937630D01*
X161005424Y-106424387D01*
X160972413Y-106812546D01*
X160935175Y-107170002D01*
X160897810Y-107461914D01*
X160864417Y-107653440D01*
X160857749Y-107679563D01*
X160828387Y-107853126D01*
X160804565Y-108129182D01*
X160789070Y-108466749D01*
X160784539Y-108755834D01*
X160437477Y-108755834D01*
X160420952Y-108567456D01*
X160408980Y-108400548D01*
X160384095Y-107935496D01*
X160368811Y-107414490D01*
X160362767Y-106877068D01*
X160790812Y-106877068D01*
X160799734Y-107066464D01*
X160821507Y-107124642D01*
X160857520Y-107070150D01*
X160903151Y-106895618D01*
X160924229Y-106689220D01*
X160909679Y-106535071D01*
X160863715Y-106492998D01*
X160857520Y-106496138D01*
X160815947Y-106588502D01*
X160792735Y-106771752D01*
X160790812Y-106877068D01*
X160362767Y-106877068D01*
X160362577Y-106860203D01*
X160364634Y-106346656D01*
X160719682Y-106346656D01*
X160732874Y-106439719D01*
X160757367Y-106440830D01*
X160774496Y-106344799D01*
X160763032Y-106303306D01*
X160731172Y-106276128D01*
X160719682Y-106346656D01*
X160364634Y-106346656D01*
X160364840Y-106295307D01*
X160370074Y-106011816D01*
X160862563Y-106011816D01*
X160871482Y-106203066D01*
X160893194Y-106262958D01*
X160929272Y-106209133D01*
X160978911Y-106025039D01*
X160995980Y-105868314D01*
X160977173Y-105725245D01*
X160929272Y-105670997D01*
X160888408Y-105735288D01*
X160864967Y-105898859D01*
X160862563Y-106011816D01*
X160370074Y-106011816D01*
X160375047Y-105742476D01*
X160392644Y-105224382D01*
X160393917Y-105200378D01*
X160929272Y-105200378D01*
X160938454Y-105391955D01*
X160962181Y-105446368D01*
X160994720Y-105361199D01*
X161016792Y-105237330D01*
X161021954Y-105073012D01*
X160989619Y-104982321D01*
X160989060Y-104981965D01*
X160950292Y-105019356D01*
X160930097Y-105158614D01*
X160929272Y-105200378D01*
X160393917Y-105200378D01*
X160413438Y-104832371D01*
X160939495Y-104832371D01*
X161105009Y-104659735D01*
X161224319Y-104512064D01*
X161399112Y-104512064D01*
X161481317Y-104461908D01*
X161643571Y-104306851D01*
X161826887Y-104110404D01*
X162029125Y-103878795D01*
X162282241Y-103577240D01*
X162549766Y-103249653D01*
X162735647Y-103016195D01*
X162969544Y-102722673D01*
X163195348Y-102446618D01*
X163385268Y-102221597D01*
X163499106Y-102094069D01*
X163627535Y-101940697D01*
X163692321Y-101827073D01*
X163692925Y-101798401D01*
X163721115Y-101723132D01*
X163824999Y-101566888D01*
X163985747Y-101356666D01*
X164087832Y-101232271D01*
X164320148Y-100946490D01*
X164458924Y-100751043D01*
X164510881Y-100633596D01*
X164482739Y-100581813D01*
X164445091Y-100576647D01*
X164367836Y-100547259D01*
X164391664Y-100481943D01*
X164492497Y-100414969D01*
X164577059Y-100388813D01*
X164774906Y-100289219D01*
X164898422Y-100148914D01*
X164945206Y-100069715D01*
X165108446Y-100069715D01*
X165118260Y-100074387D01*
X165183740Y-100023875D01*
X165198481Y-100002636D01*
X165216765Y-99935556D01*
X165206950Y-99930884D01*
X165141471Y-99981396D01*
X165126729Y-100002636D01*
X165108446Y-100069715D01*
X164945206Y-100069715D01*
X165016065Y-99949760D01*
X164692228Y-100065887D01*
X164486043Y-100130853D01*
X164371385Y-100137289D01*
X164309744Y-100087352D01*
X164309729Y-100087327D01*
X164252813Y-100088573D01*
X164143359Y-100200514D01*
X163976416Y-100429072D01*
X163799837Y-100697214D01*
X163595060Y-101007021D01*
X163391697Y-101297656D01*
X163216242Y-101532137D01*
X163115192Y-101652918D01*
X162929592Y-101885805D01*
X162760517Y-102150112D01*
X162727913Y-102211526D01*
X162615743Y-102395754D01*
X162522563Y-102473452D01*
X162493966Y-102469507D01*
X162447548Y-102464054D01*
X162463062Y-102499591D01*
X162451421Y-102596635D01*
X162370682Y-102766075D01*
X162270889Y-102923248D01*
X162094961Y-103194472D01*
X161914127Y-103504347D01*
X161830409Y-103661958D01*
X161695687Y-103920897D01*
X161561547Y-104166020D01*
X161489680Y-104289782D01*
X161400664Y-104455346D01*
X161399112Y-104512064D01*
X161224319Y-104512064D01*
X161238275Y-104494791D01*
X161391526Y-104268939D01*
X161465473Y-104146280D01*
X161571938Y-103931445D01*
X161585876Y-103825870D01*
X161510152Y-103831907D01*
X161347631Y-103951910D01*
X161290741Y-104002777D01*
X161091934Y-104274406D01*
X161007715Y-104516232D01*
X160939495Y-104832371D01*
X160413438Y-104832371D01*
X160417081Y-104763697D01*
X160443626Y-104434838D01*
X160572770Y-104434838D01*
X160603229Y-104428451D01*
X160634765Y-104379472D01*
X160692244Y-104231752D01*
X160737263Y-104056590D01*
X160779873Y-103841336D01*
X160678430Y-104056590D01*
X160614749Y-104216529D01*
X160578070Y-104353404D01*
X160572770Y-104434838D01*
X160443626Y-104434838D01*
X160447803Y-104383094D01*
X160484258Y-104105246D01*
X160516911Y-103972884D01*
X160566513Y-103812707D01*
X161154142Y-103812707D01*
X161188497Y-103824678D01*
X161288383Y-103759371D01*
X161472345Y-103608122D01*
X161521152Y-103566546D01*
X161534609Y-103554330D01*
X161718537Y-103554330D01*
X161754413Y-103590206D01*
X161790289Y-103554330D01*
X161754413Y-103518455D01*
X161718537Y-103554330D01*
X161534609Y-103554330D01*
X161754399Y-103354807D01*
X161970701Y-103137424D01*
X162115054Y-102971472D01*
X162223998Y-102813042D01*
X162275350Y-102706359D01*
X162273848Y-102686572D01*
X162207842Y-102712651D01*
X162062772Y-102807725D01*
X161869197Y-102948180D01*
X161657673Y-103110400D01*
X161458758Y-103270771D01*
X161303009Y-103405678D01*
X161220983Y-103491508D01*
X161215298Y-103504615D01*
X161197696Y-103605544D01*
X161166778Y-103732121D01*
X161154142Y-103812707D01*
X160566513Y-103812707D01*
X160579908Y-103769453D01*
X160796154Y-103769453D01*
X160830155Y-103731207D01*
X160904217Y-103569470D01*
X160915343Y-103542348D01*
X161000605Y-103349003D01*
X161071888Y-103214868D01*
X161090712Y-103189570D01*
X161134331Y-103202090D01*
X161145625Y-103273304D01*
X161158011Y-103362526D01*
X161205061Y-103318412D01*
X161212642Y-103306626D01*
X161249487Y-103183009D01*
X161238226Y-103137164D01*
X161247229Y-103044905D01*
X161268152Y-103026111D01*
X161356408Y-102927442D01*
X161381713Y-102888170D01*
X161501074Y-102888170D01*
X161771247Y-102725502D01*
X161990090Y-102597648D01*
X162192962Y-102485187D01*
X162230692Y-102465391D01*
X162358236Y-102360791D01*
X162365608Y-102350109D01*
X162510974Y-102350109D01*
X162541384Y-102327867D01*
X162614983Y-102207667D01*
X162662267Y-102119302D01*
X162810865Y-101878211D01*
X162996268Y-101635382D01*
X163044543Y-101581167D01*
X163214322Y-101377435D01*
X163404871Y-101117291D01*
X163525156Y-100935404D01*
X163696620Y-100661010D01*
X163801107Y-100489591D01*
X163846477Y-100401677D01*
X163840587Y-100377798D01*
X163791299Y-100398485D01*
X163727996Y-100432920D01*
X163535958Y-100486968D01*
X163358890Y-100488133D01*
X163204140Y-100486104D01*
X163131747Y-100564672D01*
X163110267Y-100642639D01*
X162998340Y-101080072D01*
X162855937Y-101518915D01*
X162704722Y-101893785D01*
X162675255Y-101955476D01*
X162581148Y-102156713D01*
X162521873Y-102304796D01*
X162510974Y-102350109D01*
X162365608Y-102350109D01*
X162457452Y-102217022D01*
X162498404Y-102085678D01*
X162481481Y-102033188D01*
X162420787Y-102064113D01*
X162286025Y-102165558D01*
X162162366Y-102268050D01*
X161988308Y-102403094D01*
X161855535Y-102480829D01*
X161807212Y-102488518D01*
X161738404Y-102519978D01*
X161642618Y-102642693D01*
X161625809Y-102670833D01*
X161501074Y-102888170D01*
X161381713Y-102888170D01*
X161482658Y-102731511D01*
X161636884Y-102459548D01*
X161771446Y-102204177D01*
X161933792Y-102204177D01*
X161982714Y-102193198D01*
X162108508Y-102111367D01*
X162279716Y-101981951D01*
X162464881Y-101828214D01*
X162569637Y-101733934D01*
X162708977Y-101585836D01*
X162788037Y-101467036D01*
X162794809Y-101440518D01*
X162775230Y-101394874D01*
X162702513Y-101413468D01*
X162555684Y-101505997D01*
X162382238Y-101631279D01*
X162237626Y-101725424D01*
X162154132Y-101755086D01*
X162146237Y-101746259D01*
X162121255Y-101768996D01*
X162064928Y-101875706D01*
X161999969Y-102017430D01*
X161949092Y-102145208D01*
X161933792Y-102204177D01*
X161771446Y-102204177D01*
X161809068Y-102132779D01*
X161989191Y-101772431D01*
X162135355Y-101466467D01*
X162272958Y-101466467D01*
X162313611Y-101511002D01*
X162396992Y-101439854D01*
X162414548Y-101412309D01*
X162520149Y-101321615D01*
X162683270Y-101246193D01*
X162875703Y-101122636D01*
X162943453Y-100994559D01*
X162992295Y-100811934D01*
X162690000Y-100980890D01*
X162490201Y-101120078D01*
X162340350Y-101273197D01*
X162305789Y-101329631D01*
X162272958Y-101466467D01*
X162135355Y-101466467D01*
X162167235Y-101399734D01*
X162333182Y-101035913D01*
X162461544Y-100738088D01*
X162580653Y-100738088D01*
X162623394Y-100791275D01*
X162743610Y-100744724D01*
X162916372Y-100611235D01*
X163117690Y-100430570D01*
X162902436Y-100478780D01*
X162682154Y-100568220D01*
X162584309Y-100704949D01*
X162580653Y-100738088D01*
X162461544Y-100738088D01*
X162477013Y-100702197D01*
X162588710Y-100419814D01*
X162647710Y-100241807D01*
X162746974Y-100241807D01*
X162756824Y-100284463D01*
X162794809Y-100289641D01*
X162853868Y-100263388D01*
X162842643Y-100241807D01*
X162757491Y-100233220D01*
X162746974Y-100241807D01*
X162647710Y-100241807D01*
X162658255Y-100209992D01*
X162675630Y-100093957D01*
X162659605Y-100077782D01*
X162596097Y-100131422D01*
X162471045Y-100269177D01*
X162310912Y-100461815D01*
X162302821Y-100471911D01*
X162141799Y-100661077D01*
X162013017Y-100790226D01*
X161942885Y-100833054D01*
X161941010Y-100832238D01*
X161903235Y-100872667D01*
X161876978Y-101011893D01*
X161875518Y-101030057D01*
X161772642Y-101528234D01*
X161546248Y-101972871D01*
X161315220Y-102242991D01*
X161125438Y-102442233D01*
X161037599Y-102588637D01*
X161032669Y-102702005D01*
X161030726Y-102850401D01*
X160986037Y-103076425D01*
X160928432Y-103269765D01*
X160845900Y-103526080D01*
X160801605Y-103696860D01*
X160796154Y-103769453D01*
X160579908Y-103769453D01*
X160599745Y-103705394D01*
X160665107Y-103406272D01*
X160677162Y-103327121D01*
X160745904Y-102905476D01*
X160833691Y-102593755D01*
X160954775Y-102358460D01*
X161123405Y-102166091D01*
X161199007Y-102100477D01*
X161396637Y-101900335D01*
X161543378Y-101653211D01*
X161650341Y-101330992D01*
X161728638Y-100905569D01*
X161755197Y-100693348D01*
X161777494Y-100533717D01*
X161933792Y-100533717D01*
X161943633Y-100672053D01*
X161963489Y-100720150D01*
X162018671Y-100668003D01*
X162138814Y-100529530D01*
X162300779Y-100331677D01*
X162348573Y-100271703D01*
X162571436Y-99976894D01*
X162579388Y-99964752D01*
X162786197Y-99964752D01*
X162879579Y-100127473D01*
X163043447Y-100221368D01*
X163180671Y-100274181D01*
X163215277Y-100268341D01*
X163178253Y-100199952D01*
X163132900Y-100073792D01*
X163099947Y-99917036D01*
X163148894Y-99917036D01*
X163217183Y-100127920D01*
X163258660Y-100192499D01*
X163322058Y-100320436D01*
X163318452Y-100387843D01*
X163320083Y-100427395D01*
X163413191Y-100430316D01*
X163551825Y-100401284D01*
X163678480Y-100351208D01*
X163822115Y-100256663D01*
X164015305Y-100106021D01*
X164127265Y-100010388D01*
X164337927Y-99837682D01*
X164544614Y-99690131D01*
X164629525Y-99639022D01*
X164801990Y-99509274D01*
X164972982Y-99321738D01*
X165114979Y-99115642D01*
X165156914Y-99024678D01*
X165349509Y-99024678D01*
X165387047Y-99120025D01*
X165450212Y-99214214D01*
X165575343Y-99350240D01*
X165664562Y-99386208D01*
X165690676Y-99328599D01*
X165626490Y-99183896D01*
X165619940Y-99173753D01*
X165503794Y-99046356D01*
X165400597Y-98998116D01*
X165349509Y-99024678D01*
X165156914Y-99024678D01*
X165200462Y-98930215D01*
X165207195Y-98815574D01*
X165163507Y-98746921D01*
X165086772Y-98760235D01*
X164965585Y-98837309D01*
X164746851Y-98974291D01*
X164452720Y-99140215D01*
X164125733Y-99313033D01*
X163808434Y-99470699D01*
X163543365Y-99591166D01*
X163417080Y-99639791D01*
X163215701Y-99753714D01*
X163148894Y-99917036D01*
X163099947Y-99917036D01*
X163091274Y-99875779D01*
X163084330Y-99829097D01*
X163031031Y-99615324D01*
X162956291Y-99527041D01*
X162875328Y-99569793D01*
X162808683Y-99728693D01*
X162786197Y-99964752D01*
X162579388Y-99964752D01*
X162710715Y-99764229D01*
X162765975Y-99640026D01*
X162736782Y-99610605D01*
X162622702Y-99682284D01*
X162423301Y-99861384D01*
X162373398Y-99910397D01*
X162126307Y-100173568D01*
X161984007Y-100371301D01*
X161934165Y-100521078D01*
X161933792Y-100533717D01*
X161777494Y-100533717D01*
X161783532Y-100490493D01*
X161828756Y-100335042D01*
X161912156Y-100190341D01*
X162055020Y-100019738D01*
X162278638Y-99786579D01*
X162286539Y-99778517D01*
X162506459Y-99565386D01*
X162699490Y-99398553D01*
X162837963Y-99300968D01*
X162881404Y-99285121D01*
X163005189Y-99339563D01*
X163091000Y-99429765D01*
X163157106Y-99513570D01*
X163230806Y-99538224D01*
X163357826Y-99505430D01*
X163512323Y-99445463D01*
X163747525Y-99341858D01*
X164039660Y-99199973D01*
X164293435Y-99067628D01*
X164540237Y-98933818D01*
X164751717Y-98819588D01*
X164883172Y-98749082D01*
X164885384Y-98747909D01*
X164993617Y-98667891D01*
X165019102Y-98622344D01*
X165057873Y-98567446D01*
X165177540Y-98611166D01*
G37*
G04 #@! TO.C,SW4*
X212250000Y-118150000D02*
X210750000Y-118150000D01*
X208250000Y-119400000D02*
X208250000Y-123900000D01*
X214750000Y-123900000D02*
X214750000Y-119400000D01*
X210750000Y-125150000D02*
X212250000Y-125150000D01*
G04 #@! TO.C,R5*
X150675000Y-94175000D02*
X150675000Y-95785000D01*
X152045000Y-95785000D02*
X149305000Y-95785000D01*
X149305000Y-95785000D02*
X149305000Y-102325000D01*
X152045000Y-102325000D02*
X152045000Y-95785000D01*
X149305000Y-102325000D02*
X152045000Y-102325000D01*
X150675000Y-103775000D02*
X150675000Y-102325000D01*
G04 #@! TO.C,BZ4*
X115650000Y-74150000D02*
G75*
G03*
X115650000Y-71150001I-6400000J1500000D01*
G01*
G04 #@! TO.C,SW7*
X201350000Y-109700000D02*
X199850000Y-109700000D01*
X197350000Y-110950000D02*
X197350000Y-115450000D01*
X203850000Y-115450000D02*
X203850000Y-110950000D01*
X199850000Y-116700000D02*
X201350000Y-116700000D01*
G04 #@! TO.C,BZ3*
X132975000Y-74215000D02*
G75*
G03*
X132975000Y-71215001I-6400000J1500000D01*
G01*
G04 #@! TO.C,G1*
G36*
X163997085Y-97998798D02*
G01*
X164088776Y-98091380D01*
X164138074Y-98177559D01*
X164132479Y-98199907D01*
X164067721Y-98171381D01*
X163976549Y-98088979D01*
X163903645Y-97990987D01*
X163913053Y-97955550D01*
X163997085Y-97998798D01*
G37*
G36*
X162639451Y-98109719D02*
G01*
X162606435Y-98154027D01*
X162519320Y-98269094D01*
X162486972Y-98313382D01*
X162469157Y-98282876D01*
X162466377Y-98230194D01*
X162525697Y-98109457D01*
X162585841Y-98070840D01*
X162664446Y-98051287D01*
X162639451Y-98109719D01*
G37*
G36*
X163918693Y-98224557D02*
G01*
X163921965Y-98286771D01*
X163855228Y-98410082D01*
X163676853Y-98507204D01*
X163419589Y-98570352D01*
X163116190Y-98591742D01*
X162799406Y-98563591D01*
X162775690Y-98559202D01*
X162635992Y-98506393D01*
X162626769Y-98445252D01*
X162736890Y-98401142D01*
X162848469Y-98393341D01*
X162995210Y-98403647D01*
X163011060Y-98437697D01*
X162975833Y-98465006D01*
X162933293Y-98513330D01*
X163014971Y-98534158D01*
X163103197Y-98536671D01*
X163264153Y-98516862D01*
X163339045Y-98467115D01*
X163339730Y-98461292D01*
X163400418Y-98386317D01*
X163550504Y-98297779D01*
X163592120Y-98279344D01*
X163788286Y-98201400D01*
X163885665Y-98182879D01*
X163918693Y-98224557D01*
G37*
G36*
X164064750Y-95008493D02*
G01*
X164235209Y-95085025D01*
X164443706Y-95216488D01*
X164741876Y-95417737D01*
X164940227Y-95572213D01*
X165061107Y-95712279D01*
X165126864Y-95870298D01*
X165159846Y-96078631D01*
X165175745Y-96276563D01*
X165208878Y-96590428D01*
X165257545Y-96782232D01*
X165327781Y-96875164D01*
X165332180Y-96877751D01*
X165407007Y-96991619D01*
X165446507Y-97196092D01*
X165450092Y-97440422D01*
X165417173Y-97673860D01*
X165347159Y-97845659D01*
X165343477Y-97850666D01*
X165256791Y-98023812D01*
X165234308Y-98139499D01*
X165182034Y-98342923D01*
X165022718Y-98533092D01*
X164742533Y-98723184D01*
X164482186Y-98856177D01*
X164191527Y-99002432D01*
X163918384Y-99155922D01*
X163718540Y-99285165D01*
X163707682Y-99293292D01*
X163483978Y-99433152D01*
X163288506Y-99472295D01*
X163093470Y-99403756D01*
X162871076Y-99220569D01*
X162702910Y-99041476D01*
X162475824Y-98763135D01*
X162352837Y-98551194D01*
X162320819Y-98404481D01*
X162293470Y-98155093D01*
X162222946Y-97878735D01*
X162126533Y-97626257D01*
X162021515Y-97448503D01*
X161983204Y-97411314D01*
X161899909Y-97326464D01*
X161903305Y-97219194D01*
X161920225Y-97177683D01*
X162075432Y-97177683D01*
X162077887Y-97297300D01*
X162102316Y-97369702D01*
X162149009Y-97426840D01*
X162213205Y-97550039D01*
X162282479Y-97765970D01*
X162343886Y-98022928D01*
X162384483Y-98269205D01*
X162393598Y-98403922D01*
X162441897Y-98530862D01*
X162567009Y-98718360D01*
X162739256Y-98932629D01*
X162928961Y-99139883D01*
X163106446Y-99306335D01*
X163242033Y-99398198D01*
X163274226Y-99406481D01*
X163396602Y-99368589D01*
X163581894Y-99266593D01*
X163702091Y-99185545D01*
X163941515Y-99032014D01*
X164241542Y-98866233D01*
X164471993Y-98754246D01*
X164800104Y-98587769D01*
X165005730Y-98421722D01*
X165108140Y-98223463D01*
X165126602Y-97960351D01*
X165096295Y-97696626D01*
X165024185Y-97364974D01*
X164932479Y-97158778D01*
X164900142Y-97124280D01*
X165027873Y-97124280D01*
X165057671Y-97174075D01*
X165113016Y-97197673D01*
X165187599Y-97252045D01*
X165210269Y-97363517D01*
X165189065Y-97573448D01*
X165187752Y-97582256D01*
X165161603Y-97781399D01*
X165168762Y-97862235D01*
X165217672Y-97849872D01*
X165265201Y-97812632D01*
X165344821Y-97706585D01*
X165369874Y-97540177D01*
X165359475Y-97356344D01*
X165323727Y-97096706D01*
X165272925Y-96968892D01*
X165196569Y-96959240D01*
X165108170Y-97029271D01*
X165027873Y-97124280D01*
X164900142Y-97124280D01*
X164889946Y-97113402D01*
X164769617Y-97033657D01*
X164674050Y-97028931D01*
X164547151Y-97106546D01*
X164467045Y-97168582D01*
X164214093Y-97294606D01*
X163984164Y-97311192D01*
X163806149Y-97316060D01*
X163709443Y-97348613D01*
X163703627Y-97361882D01*
X163641505Y-97424469D01*
X163523609Y-97463538D01*
X163341812Y-97444368D01*
X163239431Y-97344659D01*
X163131532Y-97246704D01*
X163040342Y-97291135D01*
X162968150Y-97475494D01*
X162931715Y-97674876D01*
X162910686Y-97880328D01*
X162931336Y-97986580D01*
X163008381Y-98037470D01*
X163058380Y-98052170D01*
X163197672Y-98061604D01*
X163254820Y-98026472D01*
X163338258Y-97963065D01*
X163390673Y-97955550D01*
X163469956Y-97908481D01*
X163463114Y-97805835D01*
X163460631Y-97694754D01*
X163505242Y-97683214D01*
X163582227Y-97766949D01*
X163638780Y-97905708D01*
X163657637Y-98052783D01*
X163598945Y-98100676D01*
X163587176Y-98101109D01*
X163443923Y-98137827D01*
X163343234Y-98188590D01*
X163205158Y-98237579D01*
X163047135Y-98191785D01*
X163009095Y-98172214D01*
X162887168Y-98089321D01*
X162839926Y-97981890D01*
X162846019Y-97794650D01*
X162849812Y-97759823D01*
X162863842Y-97563425D01*
X162829226Y-97459776D01*
X162718767Y-97397656D01*
X162643794Y-97371819D01*
X162469555Y-97294764D01*
X162366148Y-97212955D01*
X162361909Y-97205469D01*
X162313357Y-97159048D01*
X162278213Y-97210015D01*
X162200157Y-97267806D01*
X162165510Y-97258120D01*
X162142891Y-97174662D01*
X162180637Y-97112108D01*
X162329591Y-97033292D01*
X162567048Y-97013855D01*
X162848113Y-97054935D01*
X162972788Y-97092042D01*
X163168005Y-97134978D01*
X163256571Y-97103647D01*
X163349674Y-97041443D01*
X163533370Y-96961048D01*
X163757275Y-96880504D01*
X163971004Y-96817856D01*
X164124174Y-96791148D01*
X164129342Y-96791080D01*
X164269392Y-96837021D01*
X164355594Y-96897492D01*
X164527252Y-96968915D01*
X164635274Y-96961514D01*
X164731348Y-96918709D01*
X164777648Y-96828987D01*
X164789062Y-96651595D01*
X164787163Y-96545790D01*
X164762764Y-96288138D01*
X164688749Y-96103100D01*
X164553521Y-95935923D01*
X164354417Y-95761411D01*
X164185361Y-95710427D01*
X164012370Y-95775778D01*
X163962639Y-95810873D01*
X163795809Y-95882731D01*
X163574587Y-95917204D01*
X163546701Y-95917728D01*
X163295405Y-95942082D01*
X163018678Y-96002408D01*
X162960181Y-96020261D01*
X162707829Y-96096721D01*
X162469561Y-96158893D01*
X162420762Y-96169633D01*
X162294881Y-96204750D01*
X162220037Y-96269584D01*
X162174845Y-96401246D01*
X162137921Y-96636847D01*
X162133864Y-96667529D01*
X162094305Y-96978533D01*
X162075432Y-97177683D01*
X161920225Y-97177683D01*
X161948478Y-97108365D01*
X162001438Y-96931669D01*
X162049965Y-96666133D01*
X162083776Y-96368360D01*
X162084409Y-96360138D01*
X162113667Y-96065228D01*
X162119489Y-96039313D01*
X162175260Y-96039313D01*
X162182458Y-96098488D01*
X162221384Y-96125403D01*
X162318037Y-96117415D01*
X162498415Y-96071880D01*
X162788516Y-95986155D01*
X162834351Y-95972312D01*
X163109086Y-95884853D01*
X163272772Y-95815136D01*
X163355089Y-95743710D01*
X163385715Y-95651123D01*
X163389844Y-95608247D01*
X163387233Y-95471644D01*
X163332713Y-95451076D01*
X163262480Y-95483444D01*
X163148740Y-95518891D01*
X163121392Y-95489677D01*
X163177289Y-95402649D01*
X163191839Y-95396142D01*
X163223110Y-95326123D01*
X163203437Y-95277184D01*
X163134456Y-95220906D01*
X163012643Y-95242087D01*
X162932846Y-95274351D01*
X162741675Y-95373325D01*
X162569631Y-95488519D01*
X162444262Y-95596660D01*
X162393118Y-95674472D01*
X162429740Y-95699390D01*
X162521227Y-95751007D01*
X162524027Y-95826753D01*
X162438080Y-95930619D01*
X162336742Y-95948339D01*
X162210492Y-95980422D01*
X162175260Y-96039313D01*
X162119489Y-96039313D01*
X162158380Y-95866196D01*
X162235740Y-95713368D01*
X162361960Y-95558154D01*
X162684312Y-95304578D01*
X163127421Y-95119234D01*
X163679522Y-95006511D01*
X163899114Y-94987706D01*
X164064750Y-95008493D01*
G37*
G04 #@! TO.C,BZ1*
X163050000Y-73950000D02*
G75*
G03*
X163050000Y-70950001I-6400000J1500000D01*
G01*
G04 #@! TO.C,R11*
X128600000Y-103575000D02*
X128600000Y-101965000D01*
X127230000Y-101965000D02*
X129970000Y-101965000D01*
X129970000Y-101965000D02*
X129970000Y-95425000D01*
X127230000Y-95425000D02*
X127230000Y-101965000D01*
X129970000Y-95425000D02*
X127230000Y-95425000D01*
X128600000Y-93975000D02*
X128600000Y-95425000D01*
G04 #@! TO.C,R12*
X125500000Y-103575000D02*
X125500000Y-101965000D01*
X124130000Y-101965000D02*
X126870000Y-101965000D01*
X126870000Y-101965000D02*
X126870000Y-95425000D01*
X124130000Y-95425000D02*
X124130000Y-101965000D01*
X126870000Y-95425000D02*
X124130000Y-95425000D01*
X125500000Y-93975000D02*
X125500000Y-95425000D01*
G04 #@! TO.C,U1*
X119745000Y-106715000D02*
X99185000Y-106715000D01*
X99185000Y-106715000D02*
X99185000Y-117215000D01*
X119685000Y-109715000D02*
X99245000Y-109715000D01*
X99245000Y-109715000D02*
X99245000Y-114215000D01*
X119685000Y-110965000D02*
X119685000Y-109715000D01*
X119685000Y-114215000D02*
X119685000Y-112965000D01*
X99245000Y-114215000D02*
X119685000Y-114215000D01*
X119745000Y-117215000D02*
X119745000Y-106715000D01*
X99185000Y-117215000D02*
X119745000Y-117215000D01*
X119685000Y-110965000D02*
G75*
G03*
X119685000Y-112965000I0J-1000000D01*
G01*
G04 #@! TO.C,R1*
X182600000Y-103675000D02*
X182600000Y-102065000D01*
X181230000Y-102065000D02*
X183970000Y-102065000D01*
X183970000Y-102065000D02*
X183970000Y-95525000D01*
X181230000Y-95525000D02*
X181230000Y-102065000D01*
X183970000Y-95525000D02*
X181230000Y-95525000D01*
X182600000Y-94075000D02*
X182600000Y-95525000D01*
G04 #@! TO.C,R16*
X95725000Y-101035000D02*
X95725000Y-100265000D01*
X94355000Y-100265000D02*
X97095000Y-100265000D01*
X97095000Y-100265000D02*
X97095000Y-93725000D01*
X94355000Y-93725000D02*
X94355000Y-100265000D01*
X97095000Y-93725000D02*
X94355000Y-93725000D01*
X95725000Y-92955000D02*
X95725000Y-93725000D01*
G04 #@! TO.C,R9*
X134800000Y-103600000D02*
X134800000Y-101990000D01*
X133430000Y-101990000D02*
X136170000Y-101990000D01*
X136170000Y-101990000D02*
X136170000Y-95450000D01*
X133430000Y-95450000D02*
X133430000Y-101990000D01*
X136170000Y-95450000D02*
X133430000Y-95450000D01*
X134800000Y-94000000D02*
X134800000Y-95450000D01*
G04 #@! TO.C,R10*
X131700000Y-103600000D02*
X131700000Y-101990000D01*
X130330000Y-101990000D02*
X133070000Y-101990000D01*
X133070000Y-101990000D02*
X133070000Y-95450000D01*
X130330000Y-95450000D02*
X130330000Y-101990000D01*
X133070000Y-95450000D02*
X130330000Y-95450000D01*
X131700000Y-94000000D02*
X131700000Y-95450000D01*
G04 #@! TO.C,R7*
X144475000Y-94175000D02*
X144475000Y-95785000D01*
X145845000Y-95785000D02*
X143105000Y-95785000D01*
X143105000Y-95785000D02*
X143105000Y-102325000D01*
X145845000Y-102325000D02*
X145845000Y-95785000D01*
X143105000Y-102325000D02*
X145845000Y-102325000D01*
X144475000Y-103775000D02*
X144475000Y-102325000D01*
G04 #@! TO.C,R6*
X153775000Y-94175000D02*
X153775000Y-95785000D01*
X155145000Y-95785000D02*
X152405000Y-95785000D01*
X152405000Y-95785000D02*
X152405000Y-102325000D01*
X155145000Y-102325000D02*
X155145000Y-95785000D01*
X152405000Y-102325000D02*
X155145000Y-102325000D01*
X153775000Y-103775000D02*
X153775000Y-102325000D01*
G04 #@! TO.C,SW2*
X212250000Y-93300000D02*
X210750000Y-93300000D01*
X208250000Y-94550000D02*
X208250000Y-99050000D01*
X214750000Y-99050000D02*
X214750000Y-94550000D01*
X210750000Y-100300000D02*
X212250000Y-100300000D01*
G04 #@! TO.C,BZ2*
X148250000Y-74050000D02*
G75*
G03*
X148250000Y-71050001I-6400000J1500000D01*
G01*
G04 #@! TO.C,SW1*
X212150000Y-82150000D02*
X210650000Y-82150000D01*
X208150000Y-83400000D02*
X208150000Y-87900000D01*
X214650000Y-87900000D02*
X214650000Y-83400000D01*
X210650000Y-89150000D02*
X212150000Y-89150000D01*
G04 #@! TO.C,R4*
X176450000Y-103675000D02*
X176450000Y-102065000D01*
X175080000Y-102065000D02*
X177820000Y-102065000D01*
X177820000Y-102065000D02*
X177820000Y-95525000D01*
X175080000Y-95525000D02*
X175080000Y-102065000D01*
X177820000Y-95525000D02*
X175080000Y-95525000D01*
X176450000Y-94075000D02*
X176450000Y-95525000D01*
G04 #@! TO.C,R8*
X147575000Y-94175000D02*
X147575000Y-95785000D01*
X148945000Y-95785000D02*
X146205000Y-95785000D01*
X146205000Y-95785000D02*
X146205000Y-102325000D01*
X148945000Y-102325000D02*
X148945000Y-95785000D01*
X146205000Y-102325000D02*
X148945000Y-102325000D01*
X147575000Y-103775000D02*
X147575000Y-102325000D01*
G04 #@! TD*
M02*
