M48
; DRILL file {KiCad 7.0.2} date Wed May 10 23:43:40 2023
; FORMAT={2:4/ absolute / inch / suppress leading zeros}
; #@! TF.CreationDate,2023-05-10T23:43:40-04:00
; #@! TF.GenerationSoftware,Kicad,Pcbnew,7.0.2
; #@! TF.FileFunction,Plated,1,2,PTH
FMAT,2
INCH,TZ
; #@! TA.AperFunction,Plated,PTH,ComponentDrill
T1C0.0315
; #@! TA.AperFunction,Plated,PTH,ViaDrill
T2C0.0394
; #@! TA.AperFunction,Plated,PTH,ComponentDrill
T3C0.0394
; #@! TA.AperFunction,Plated,PTH,ComponentDrill
T4C0.0433
%
G90
G05
T1
X37687Y-36187
X37687Y-40187
X37878Y-49213
X37917Y-35039
X38878Y-49213
X38898Y-36187
X38898Y-40187
X38917Y-35039
X39596Y-42581
X39596Y-45581
X39878Y-49213
X39917Y-35039
X40118Y-36187
X40118Y-40187
X40591Y-30256
X40596Y-42581
X40596Y-45581
X40878Y-49213
X40917Y-35039
X41339Y-36197
X41339Y-40197
X41596Y-42581
X41596Y-45581
X41878Y-49213
X41917Y-35039
X42596Y-42581
X42596Y-45581
X42878Y-49213
X42917Y-35039
X43596Y-42581
X43596Y-45581
X43878Y-49213
X43917Y-35039
X44596Y-42581
X44596Y-45581
X44878Y-49213
X44917Y-35039
X45472Y-30256
X45596Y-42581
X45596Y-45581
X45878Y-49213
X45917Y-35039
X46596Y-42581
X46596Y-45581
X46878Y-49213
X46917Y-35039
X47431Y-30321
X47878Y-49213
X47917Y-35039
X48878Y-49213
X48917Y-35039
X49409Y-36447
X49409Y-41329
X49878Y-49213
X49917Y-35039
X50630Y-36447
X50630Y-41329
X50878Y-49213
X50917Y-35039
X51850Y-36457
X51850Y-41339
X51878Y-49213
X51917Y-35039
X52313Y-30321
X52878Y-49213
X52917Y-35039
X53071Y-36457
X53071Y-41339
X53362Y-30315
X56850Y-49173
X56880Y-36526
X56880Y-41407
X56890Y-35000
X57850Y-49173
X57890Y-35000
X58100Y-36526
X58100Y-41407
X58244Y-30315
X58850Y-49173
X58890Y-35000
X59321Y-36526
X59321Y-41407
X59331Y-30315
X59850Y-49173
X59890Y-35000
X60541Y-36526
X60541Y-41407
X60850Y-49173
X60890Y-35000
X61850Y-49173
X61890Y-35000
X62850Y-49173
X62890Y-35000
X63850Y-49173
X63890Y-35000
X64213Y-30315
X64850Y-49173
X64890Y-35000
X65850Y-49173
X65890Y-35000
X66850Y-49173
X66890Y-35000
X67850Y-49173
X67890Y-35000
X68258Y-36486
X68258Y-41368
X68850Y-49173
X68890Y-35000
X69469Y-36486
X69469Y-41368
X69850Y-49173
X69890Y-35000
X70679Y-36486
X70679Y-41368
X70850Y-49173
X70890Y-35000
X71850Y-49173
X71890Y-35000
X71890Y-36486
X71890Y-41368
X81142Y-33295
X81142Y-37295
X81142Y-38724
X81142Y-42724
X81142Y-44374
X81142Y-48374
X85354Y-32260
X85354Y-35260
X85394Y-36650
X85394Y-39650
X85394Y-40756
X85394Y-44756
X85394Y-45866
X85394Y-49866
T2
X37313Y-45551
X37343Y-43583
X37343Y-46565
X37352Y-44557
X40837Y-32392
X49508Y-52713
X76319Y-31728
X77185Y-32358
X77850Y-48366
X77850Y-50098
X78819Y-48366
X78819Y-50098
X79843Y-48362
X79862Y-50075
T3
X42028Y-28602
X43996Y-28602
X47559Y-32323
X48559Y-32323
X48848Y-28628
X49559Y-32323
X50559Y-32323
X50817Y-28628
X51559Y-32323
X52175Y-51398
X52559Y-32323
X53175Y-51398
X53559Y-32323
X54862Y-28563
X55164Y-32323
X56164Y-32323
X56831Y-28563
X57164Y-32323
X57164Y-51417
X58164Y-32323
X58164Y-51417
X59164Y-32323
X59164Y-51417
X60164Y-32323
X60164Y-51417
X60689Y-28524
X61164Y-51417
X62164Y-51417
X62657Y-28524
X63164Y-51417
X64164Y-51417
X64172Y-32362
X65172Y-32362
X66164Y-51417
X66172Y-32362
X67164Y-51417
X67172Y-32362
X68164Y-51417
X68172Y-32362
X69164Y-51417
X69172Y-32362
X70164Y-51417
X70172Y-32362
X71164Y-51417
X71172Y-32362
X72164Y-51417
X73164Y-51417
X74170Y-32366
X74170Y-33366
X74170Y-34366
X74170Y-35366
X74170Y-36366
X74170Y-37366
X74170Y-38366
X74170Y-39366
X74170Y-40366
X74177Y-42362
X74177Y-43362
X74177Y-44362
X74177Y-45362
X74177Y-46362
X74177Y-47362
X74177Y-48362
X74177Y-49362
X75170Y-32366
X75170Y-33366
X75170Y-34366
X75170Y-35366
X75170Y-36366
X75170Y-37366
X75170Y-38366
X75170Y-39366
X75170Y-40366
X75177Y-42362
X75177Y-43362
X75177Y-44362
X75177Y-45362
X75177Y-46362
X75177Y-47362
X75177Y-48362
X75177Y-49362
T4
X78091Y-43287
X78091Y-45846
X78130Y-34567
X78130Y-37126
X78130Y-38917
X78130Y-41476
X79862Y-43287
X79862Y-45846
X79902Y-34567
X79902Y-37126
X79902Y-38917
X79902Y-41476
X82343Y-32441
X82343Y-35000
X82362Y-41457
X82362Y-44016
X82382Y-36831
X82382Y-39390
X82382Y-46614
X82382Y-49173
X84114Y-32441
X84114Y-35000
X84134Y-41457
X84134Y-44016
X84154Y-36831
X84154Y-39390
X84154Y-46614
X84154Y-49173
T0
M30
